<svg width="54" height="54" viewBox="0 0 54 54" fill="none" xmlns="http://www.w3.org/2000/svg">
<g filter="url(#filter0_d_418_3020)">
<rect x="8" y="8" width="38" height="38" rx="4" fill="white"/>
</g>
<path d="M15.6913 37.3668C15.6913 37.3668 11.9555 34.7062 10.8803 30.1784C9.80512 25.6499 11.4466 20.1598 14.5593 17.3863C17.6727 14.6129 23.2763 16.4808 25.7666 18.8015C28.2569 21.1221 28.2569 21.1221 28.2569 21.1221C28.2569 21.1221 30.6344 22.4237 33.7477 22.3108C36.8611 22.1973 39.6346 26.4426 40.3705 29.7824C41.1064 33.1222 39.3514 37.5371 39.3514 37.5371L15.6913 37.3668Z" fill="#3CB27F" fill-opacity="0.1"/>
<path d="M13.9938 38.046C13.9938 38.046 11.39 36.6309 10.7108 33.3479C10.0316 30.0649 12.9747 27.065 13.2579 25.4235C13.541 23.782 12.9179 21.7445 15.5218 20.1591C18.1256 18.5744 22.7669 19.14 24.522 18.744C26.277 18.348 28.3145 15.6306 31.8239 16.2537C35.3333 16.8761 38.7298 18.744 38.8994 22.8197C39.0691 26.8954 37.7675 27.0083 39.0691 29.2161C40.3706 31.4239 40.8802 32.9519 40.2578 35.2158C39.6354 37.4797 38.3331 38.1027 38.3331 38.1027L13.9938 38.046Z" fill="#3CB27F" fill-opacity="0.1"/>
<path d="M19.4278 37.31C19.2657 37.1404 16.8903 32.3855 19.5359 28.0274C22.1814 23.6692 28.8219 24.178 31.4675 25.8763C34.113 27.5746 35.4085 29.7817 35.6786 32.1024C35.9488 34.423 34.1671 38.046 34.1671 38.046L19.4278 37.31Z" fill="#DBF2E8"/>
<path d="M38.0579 29.3057H35.006C34.8173 29.3057 34.6641 29.1525 34.6641 28.9637V27.4398C34.6641 27.2511 34.8173 27.0979 35.006 27.0979H38.0579C38.2466 27.0979 38.3998 27.2511 38.3998 27.4398V28.9637C38.3998 29.1525 38.2466 29.3057 38.0579 29.3057Z" fill="#3CB27F"/>
<path d="M36.5304 30.1688L37.014 29.0225H36.0469L36.5304 30.1688Z" fill="#3CB27F"/>
<path d="M36.5195 27.8228H37.3936V27.9507L37.8218 27.7038L37.3936 27.4569V27.5848H36.5195V27.8228Z" fill="#193C3F"/>
<path d="M37.8218 28.3249H36.9484V28.1977L36.5195 28.4446L36.9484 28.6915V28.5636H37.8218V28.3249Z" fill="white"/>
<path d="M35.9816 28.5499L35.9399 28.5649C35.9399 28.5649 35.8099 28.4172 35.7429 28.2558C35.6758 28.0944 35.6731 27.8981 35.6731 27.8981L35.7032 27.8851L35.5185 27.4433C35.4857 27.4692 35.4542 27.5021 35.4289 27.5452C35.3243 27.7216 35.3346 27.9932 35.4399 28.2579C35.5452 28.5225 35.6574 28.7592 35.8626 28.9076C35.9836 28.9952 36.0876 29.0109 36.1683 28.9979L35.9816 28.5499Z" fill="#193C3F"/>
<path d="M36.116 28.4979L36.0586 28.5191L36.2474 28.9719C36.2686 28.9651 36.2877 28.9562 36.3048 28.9473C36.3534 28.9206 36.3753 28.8618 36.3547 28.8098L36.2563 28.5608C36.2344 28.5054 36.1721 28.4774 36.116 28.4979Z" fill="#193C3F"/>
<path d="M35.6637 27.3653C35.6405 27.3735 35.6152 27.3851 35.5898 27.4002L35.7786 27.8516L35.8422 27.8249C35.8976 27.8016 35.9236 27.7394 35.9024 27.6833L35.8032 27.4289C35.7814 27.3742 35.7198 27.3454 35.6637 27.3653Z" fill="#193C3F"/>
<path d="M18.544 36.546V31.4519C18.544 31.4519 18.4872 30.0792 19.2088 29.6832C19.9304 29.2872 22.9726 29.4992 22.9726 29.4992V36.546H18.544Z" fill="#1F6D4C"/>
<path d="M23.9246 24.73C23.9246 24.73 23.7406 26.2723 23.6701 26.3995C23.5997 26.5268 23.5997 26.5268 23.5997 26.5268L23.2461 26.7675C23.2461 26.7675 23.9253 27.7298 24.7604 27.8851C25.5955 28.041 25.5244 27.5452 25.5244 27.5452L25.3971 27.2764L25.5668 25.8045C25.5661 25.8059 24.0518 25.1123 23.9246 24.73Z" fill="#FBD3CC"/>
<path d="M22.8086 26.8954L23.3605 26.6547C23.3605 26.6547 23.7142 27.2346 24.5349 27.5746C25.3557 27.9145 25.37 27.7162 25.4124 27.5746C25.4548 27.433 25.3981 27.2777 25.3981 27.2777L25.4589 26.7826L25.7872 26.892L26.9267 36.1083L23.9973 36.2499L22.8086 26.8954Z" fill="white"/>
<path d="M25.5156 26.7914C25.5156 26.7914 25.714 27.249 25.898 28.3242C26.0819 29.3994 26.2516 31.2112 26.294 32.456C26.3364 33.7008 26.3644 36.5454 26.3644 36.5454C26.3644 36.5454 30.0154 36.5454 30.0578 36.5454C30.1002 36.5454 30.3546 35.1446 30.3546 35.1446C30.3546 35.1446 28.7412 33.7623 28.6564 33.536C28.5996 33.3848 28.6283 30.5881 28.3876 29.3002C28.1468 28.0123 27.8356 27.7531 27.1845 27.4323C26.5128 27.1013 25.5156 26.7914 25.5156 26.7914Z" fill="#3CB27F"/>
<path d="M27.4374 34.9251C27.4182 34.9251 27.4032 34.91 27.4032 34.8909C27.4032 34.7896 27.3854 33.352 27.3676 31.9622C27.3505 30.5717 27.332 29.134 27.332 29.0328C27.332 29.0136 27.3471 28.9986 27.3662 28.9986C27.3854 28.9986 27.4004 29.0136 27.4004 29.0328C27.4004 29.134 27.4182 30.5717 27.436 31.9615C27.4531 33.352 27.4716 34.7896 27.4716 34.8909C27.4716 34.9093 27.4558 34.9251 27.4374 34.9251Z" fill="#1F6D4C"/>
<path d="M20.0788 34.579L20.0508 36.546H24.3529C24.3529 36.546 24.5369 34.8765 24.4664 34.7206C24.3946 34.5653 20.0788 34.579 20.0788 34.579Z" fill="#3CB27F"/>
<path d="M24.8669 26.3578C25.042 26.4994 25.2821 26.6122 25.4688 26.6813L25.57 25.8059C25.57 25.8059 24.4326 25.2847 24.0469 24.8976C24.1276 25.3373 24.3259 25.9208 24.8669 26.3578Z" fill="#193C3F"/>
<path d="M26.9021 21.8574C26.9021 21.8574 27.199 22.3669 27.2557 22.9893C27.3125 23.6117 27.2557 25.2108 26.7462 25.89C26.2366 26.5692 25.1751 26.3708 24.6943 25.9604C24.2525 25.5836 23.8168 25.1677 23.7039 24.347C23.5904 23.5262 23.9447 21.9695 24.9494 21.644C25.9535 21.3198 26.9021 21.8574 26.9021 21.8574Z" fill="#FBD3CC"/>
<path d="M28.1811 35.6569C28.1811 35.6569 28.1312 35.6569 28.0553 35.6549C28.0375 35.6542 28.0177 35.6549 27.9971 35.6542C27.924 35.6521 27.8351 35.6501 27.7455 35.6473C27.7256 35.6466 27.7051 35.646 27.6853 35.6453C27.5964 35.6432 27.5204 35.6542 27.4493 35.6501H27.4472C27.4322 35.6494 27.4103 35.6514 27.3925 35.6521C27.3836 35.6528 27.3754 35.6535 27.37 35.6528C27.3289 35.6453 27.3207 35.6357 27.2763 35.6159C27.2188 35.5899 26.4411 35.4162 25.8085 35.4203C25.1765 35.423 24.6095 35.4661 24.5172 35.3888C24.4242 35.3101 24.3681 34.5161 24.9077 34.4641L25.5712 34.7158C25.5712 34.7158 27.0861 34.5359 27.6415 34.9456C28.1982 35.3553 28.1811 35.6569 28.1811 35.6569Z" fill="#FBD3CC"/>
<path d="M27.4487 35.6501C27.4336 35.6494 27.4117 35.6514 27.3939 35.6521C27.3803 35.6302 27.3515 35.5906 27.3358 35.5741C27.1648 35.3997 26.7517 35.2869 26.6019 35.2506C26.5882 35.2472 26.5793 35.2335 26.5828 35.2199C26.5855 35.2062 26.5999 35.198 26.6142 35.2007C26.8324 35.2534 27.2954 35.3881 27.4268 35.609C27.4309 35.6152 27.4418 35.6364 27.4487 35.6501Z" fill="#223A7A"/>
<path d="M27.7391 35.6466C27.7193 35.646 27.6988 35.646 27.6789 35.6446C27.4922 35.304 27.1865 35.2062 26.8096 35.0851L26.7871 35.0776C26.7741 35.0735 26.7666 35.0584 26.7707 35.0448C26.7748 35.0318 26.7891 35.0242 26.8035 35.0283L26.8254 35.0359C27.2241 35.1645 27.5456 35.267 27.7391 35.6466Z" fill="#223A7A"/>
<path d="M28.0554 35.6542C28.0376 35.6535 28.0177 35.6542 27.9972 35.6535C27.8837 35.4155 27.5089 35.0167 27.0137 34.9244C26.9993 34.9216 26.9904 34.9087 26.9925 34.8943C26.9952 34.8806 27.0089 34.8717 27.0226 34.8738C27.5328 34.9702 27.9452 35.3867 28.0554 35.6542Z" fill="#223A7A"/>
<path d="M24.0434 23.648C24.0434 23.648 24.3546 23.4996 24.5742 23.0817C24.7937 22.6644 24.765 22.289 24.765 22.289C24.765 22.289 25.161 22.2253 25.7554 22.4025C26.3497 22.5796 27.0569 22.8197 27.6513 22.4805C28.2457 22.1405 28.2457 21.5961 27.9557 21.3697C27.6308 21.116 26.9865 21.2705 26.9865 21.2705C26.9865 21.2705 27.2341 21.0298 27.1 20.8882C26.9653 20.7466 26.4776 20.9306 26.4776 20.9306C26.4776 20.9306 25.8833 20.4566 24.7582 20.5134C23.633 20.5702 23.0955 21.3554 23.0318 22.2329C22.9682 23.1104 23.2863 23.9879 23.2863 23.9879L24.0434 23.648Z" fill="#193C3F"/>
<path d="M26.3256 23.8607C26.262 24.018 26.2634 24.2006 26.2476 24.3668C26.2353 24.4968 26.2114 24.6479 26.3304 24.7355C26.3872 24.7772 26.656 24.89 26.5178 24.9817C26.4651 25.0166 26.3769 25.007 26.3167 25.0043C26.2757 25.0022 26.234 25.0008 26.1922 24.9974C26.1478 24.994 26.1047 24.981 26.0602 24.9803C26.0342 24.9803 26.026 25.0145 26.0472 25.0282C26.1184 25.0727 26.2237 25.087 26.3065 25.0898C26.3899 25.0932 26.446 25.0891 26.5212 25.0521C26.567 25.0296 26.6122 24.9967 26.619 24.942C26.6272 24.8805 26.5807 24.8251 26.5342 24.7902C26.4809 24.7505 26.4152 24.732 26.3612 24.6931C26.2859 24.6397 26.2921 24.5487 26.2976 24.4653C26.3106 24.2642 26.3564 24.0666 26.3742 23.8662C26.3776 23.8367 26.3352 23.8367 26.3256 23.8607Z" fill="#193C3F"/>
<path d="M26.9016 24.3306C26.8804 24.4496 26.7935 24.5344 26.708 24.5193C26.6219 24.5043 26.5699 24.3949 26.5904 24.2759C26.6116 24.1568 26.6985 24.072 26.784 24.0871C26.8701 24.1028 26.9228 24.2116 26.9016 24.3306Z" fill="#193C3F"/>
<path d="M25.8199 24.2362C25.8007 24.3648 25.7098 24.4578 25.6174 24.4441C25.5244 24.4304 25.4649 24.3148 25.4841 24.1862C25.5032 24.0577 25.5942 23.9646 25.6865 23.9783C25.7788 23.992 25.839 24.1076 25.8199 24.2362Z" fill="#193C3F"/>
<path d="M26.65 23.8395C26.7163 23.8504 26.7826 23.8395 26.8497 23.8443C26.8654 23.8456 26.8818 23.8477 26.8976 23.8491C26.9092 23.8504 26.8764 23.8456 26.8921 23.8484C26.8955 23.8491 26.8989 23.8497 26.9023 23.8497C26.9105 23.8511 26.9188 23.8532 26.927 23.8552C26.9413 23.8586 26.955 23.8641 26.9694 23.8668C26.9824 23.8696 26.9967 23.873 27.0097 23.8723C27.0172 23.8716 27.0241 23.8703 27.0316 23.8696C27.0268 23.8703 27.0227 23.8709 27.0179 23.8723C27.0179 23.8737 27.0426 23.8703 27.0453 23.8696C27.0829 23.8607 27.1068 23.8169 27.0959 23.78C27.0932 23.769 27.0884 23.7601 27.0815 23.7513C27.0788 23.7478 27.0761 23.7437 27.0726 23.7403C27.0754 23.743 27.0781 23.7465 27.0809 23.7492C27.0781 23.7451 27.0754 23.7417 27.072 23.7376C27.0685 23.7314 27.0631 23.7259 27.0569 23.7225C27.0514 23.7184 27.0467 23.7143 27.0412 23.7102C27.0234 23.6979 27.0008 23.6911 26.9796 23.6856C26.94 23.6753 26.8989 23.6705 26.8579 23.6699C26.8175 23.6699 26.7772 23.674 26.7375 23.6794C26.7019 23.6842 26.663 23.6965 26.6342 23.7177C26.6123 23.7342 26.5987 23.7554 26.6021 23.7841C26.6055 23.8073 26.6247 23.8347 26.65 23.8395Z" fill="#193C3F"/>
<path d="M25.8976 23.65C25.8887 23.6446 25.8791 23.6398 25.8703 23.6357C25.8621 23.6322 25.8402 23.6206 25.8566 23.6295C25.8504 23.6261 25.8443 23.6227 25.8381 23.6199C25.8108 23.6063 25.782 23.5967 25.7526 23.5892C25.6883 23.5727 25.6199 23.5686 25.5536 23.5755C25.4831 23.583 25.4182 23.6001 25.3573 23.637C25.3484 23.6425 25.3395 23.6473 25.3327 23.6548C25.3279 23.661 25.3231 23.6671 25.3183 23.6733C25.3197 23.6712 25.321 23.6692 25.3224 23.6671C25.3033 23.6801 25.2923 23.702 25.293 23.7246C25.293 23.7465 25.3046 23.7649 25.3238 23.7752C25.347 23.7882 25.3689 23.782 25.3929 23.7759C25.3812 23.7759 25.3689 23.7759 25.3573 23.7759C25.3771 23.7786 25.3908 23.78 25.4106 23.7752C25.4113 23.7752 25.4298 23.7704 25.4175 23.7731C25.4059 23.7759 25.4366 23.7711 25.44 23.7704C25.4442 23.7697 25.4654 23.7677 25.4428 23.7697C25.4469 23.769 25.451 23.769 25.4551 23.7683C25.466 23.767 25.4763 23.7656 25.4872 23.7649C25.5338 23.7615 25.5803 23.7595 25.6275 23.7574C25.6705 23.756 25.715 23.7554 25.7588 23.7574C25.7772 23.7581 25.7957 23.7588 25.8142 23.7595C25.8244 23.7595 25.8203 23.7615 25.8128 23.7595C25.8169 23.7608 25.8203 23.7615 25.8244 23.7622C25.832 23.7642 25.8395 23.767 25.847 23.7697C25.8771 23.7813 25.9133 23.7595 25.9243 23.7314C25.9366 23.702 25.9263 23.6671 25.8976 23.65Z" fill="#193C3F"/>
<path d="M26.2288 25.6171C26.2938 25.4865 26.4121 25.3907 26.5482 25.3291C26.4299 25.3168 25.8697 25.2655 25.7288 25.3456C25.5708 25.4352 25.7582 25.7963 26.0852 25.8141C26.1194 25.8161 26.1508 25.8134 26.1809 25.8086C26.1837 25.7429 26.1987 25.678 26.2288 25.6171Z" fill="#193C3F"/>
<path d="M23.6445 24.8579C23.6445 24.8579 23.7013 25.0774 24.0269 25.3319C24.3524 25.5863 24.8244 25.773 24.8244 25.773L24.862 25.6082C24.862 25.6082 24.3736 25.3962 24.1472 25.1623C23.9208 24.929 23.8928 24.8011 23.8928 24.8011L23.6445 24.8579Z" fill="#DEE1EB"/>
<path d="M24.919 25.4858C25.181 25.4735 25.3273 25.6807 25.3451 25.8148C25.3636 25.9488 25.2377 26.0993 24.9429 25.9673C24.5777 25.8024 24.657 25.4974 24.919 25.4858Z" fill="#193C3F"/>
<path d="M23.8492 23.2376C23.8492 23.2376 23.9621 22.4244 24.5072 21.8717C25.5475 20.8178 26.4319 20.8814 26.4319 20.8814C26.4319 20.8814 26.425 20.7329 26.0919 20.6194C25.7794 20.5134 25.6392 20.5702 25.6392 20.5702C25.6392 20.5702 24.7828 20.6406 24.0613 21.4402C23.3397 22.2397 23.2617 23.2588 23.2617 23.2588L23.8492 23.2376Z" fill="#DEE1EB"/>
<path d="M23.7667 23.1384C23.0855 23.0228 22.7052 23.5556 22.6772 24.0939C22.6492 24.6315 23.0397 25.0405 23.5616 24.9995C24.7359 24.9071 24.6019 23.28 23.7667 23.1384Z" fill="white"/>
<path d="M23.4287 24.4762C23.2488 24.4762 23.097 24.386 23.0101 24.2266C22.9171 24.0563 22.9246 23.8463 23.03 23.6917C23.0382 23.6801 23.0539 23.6774 23.0655 23.6849C23.0772 23.6931 23.0806 23.7088 23.0724 23.7205C22.978 23.8593 22.9711 24.0481 23.0553 24.202C23.1346 24.3477 23.2755 24.4304 23.4424 24.4249C23.5983 24.4208 23.7303 24.3497 23.8138 24.2246C23.9095 24.0816 23.9314 23.8846 23.8699 23.7218C23.8083 23.5604 23.6407 23.451 23.4882 23.4708C23.4745 23.4729 23.4615 23.4626 23.4595 23.4489C23.4574 23.4346 23.4677 23.4223 23.4814 23.4202C23.6599 23.3963 23.8473 23.5187 23.9177 23.7041C23.9855 23.8819 23.9608 24.0973 23.8562 24.2533C23.7625 24.3928 23.6161 24.4721 23.4438 24.4762C23.4383 24.4762 23.4335 24.4762 23.4287 24.4762Z" fill="#818FB3"/>
<path d="M22.9375 26.6971C22.9375 26.6971 20.8713 27.2066 20.1497 28.0274C19.4281 28.8481 19.0882 32.8951 19.0745 33.6454C19.0601 34.3957 19.5841 34.7069 19.8953 34.9189C20.2065 35.1309 21.5792 35.5133 22.6831 35.57C23.787 35.6268 24.8341 35.57 24.8341 35.57C24.8341 35.57 24.8307 35.3293 25.0003 34.9757C25.1576 34.6474 25.3573 34.5797 25.3573 34.5797L24.4094 34.2397C24.4094 34.2397 24.2432 31.2652 23.9846 29.8248C23.6878 28.1689 22.9375 26.6971 22.9375 26.6971Z" fill="#3CB27F"/>
<path d="M26.3641 33.7644C26.3593 33.7644 26.3546 33.7637 26.3505 33.7617C26.3334 33.7541 26.3251 33.7336 26.3334 33.7165C26.5269 33.2795 26.7273 32.4225 26.8402 31.8206L26.8497 31.772C26.8839 31.5949 26.9263 31.3753 26.8415 31.2228C26.7984 31.1455 26.7006 30.9773 26.6063 30.8159C26.5084 30.6483 26.4168 30.4896 26.3908 30.4424C26.3409 30.3501 26.4982 30.1032 26.7253 29.7646C26.7868 29.673 26.8395 29.5943 26.8703 29.541C26.951 29.4007 26.8976 29.2728 26.8347 29.1237L26.8135 29.0724C26.7567 28.9336 26.6924 28.7948 26.6302 28.66C26.6049 28.6053 26.5796 28.5499 26.5543 28.4945C26.5208 28.4213 26.4879 28.3468 26.4537 28.2715C26.254 27.8256 26.0468 27.3646 25.7821 26.9193C25.7725 26.9029 25.778 26.8824 25.7937 26.8722C25.8101 26.8626 25.8306 26.868 25.8409 26.8838C26.1076 27.3325 26.3156 27.7955 26.516 28.2428C26.5495 28.318 26.583 28.3926 26.6158 28.4651C26.6411 28.5205 26.6664 28.5752 26.6917 28.6299C26.754 28.7653 26.819 28.9049 26.8757 29.0451L26.8969 29.0957C26.9605 29.2469 27.0262 29.4042 26.9284 29.5731C26.8962 29.6285 26.8429 29.7085 26.7807 29.8009C26.6623 29.9773 26.4161 30.3446 26.4496 30.4082C26.4749 30.4547 26.5666 30.6127 26.6637 30.7796C26.7581 30.9417 26.8559 31.11 26.8997 31.1879C26.9968 31.3617 26.9516 31.5956 26.9154 31.783L26.9058 31.8315C26.8648 32.0504 26.6466 33.1721 26.3942 33.7425C26.3901 33.7569 26.3771 33.7644 26.3641 33.7644Z" fill="#1F6D4C"/>
<path d="M24.3462 33.8848C24.3373 33.8848 24.3284 33.8814 24.3222 33.8745C24.1615 33.7124 23.3859 32.3698 23.3285 32.1174C23.297 31.9793 23.3763 31.6284 23.4529 31.2891C23.5124 31.0265 23.574 30.755 23.5562 30.6811C23.5302 30.571 23.3319 30.4089 23.1397 30.2523C22.9078 30.0628 22.6684 29.8672 22.6219 29.6907C22.5693 29.4903 22.6144 28.236 22.6438 27.4063C22.6548 27.1081 22.663 26.8722 22.663 26.788C22.663 26.7689 22.678 26.7538 22.6972 26.7538C22.7163 26.7538 22.7314 26.7689 22.7314 26.788C22.7314 26.8735 22.7231 27.1095 22.7122 27.4084C22.6842 28.184 22.6377 29.4821 22.6876 29.673C22.7286 29.8275 22.9694 30.0245 23.1821 30.1982C23.3921 30.3699 23.5897 30.5313 23.6212 30.664C23.6424 30.7529 23.5849 31.008 23.5179 31.3028C23.4461 31.6188 23.3654 31.9772 23.3934 32.1003C23.4502 32.3479 24.2114 33.6652 24.3694 33.8246C24.3824 33.8383 24.3824 33.8595 24.3694 33.8731C24.364 33.8813 24.3551 33.8848 24.3462 33.8848Z" fill="#1F6D4C"/>
<path d="M21.5618 33.2973C21.5604 33.2973 21.5583 33.2973 21.557 33.2973C21.5385 33.2945 21.5255 33.2774 21.5276 33.2583C21.5529 33.0804 21.9455 29.5375 21.9632 29.266C21.9646 29.2469 21.981 29.2325 21.9995 29.2339C22.0186 29.2352 22.0323 29.2516 22.0316 29.2701C22.0139 29.5416 21.6206 33.0893 21.5953 33.2672C21.5932 33.2849 21.5782 33.2973 21.5618 33.2973Z" fill="#1F6D4C"/>
<path d="M24.3841 34.2596C24.38 34.2596 24.3752 34.2589 24.3711 34.2568C24.2842 34.2213 23.8998 34.092 23.4135 33.9279C22.4314 33.5968 21.0867 33.1434 20.8309 33.01C20.8138 33.0011 20.8077 32.9806 20.8166 32.9642C20.8254 32.9471 20.846 32.9409 20.8624 32.9498C21.1134 33.0804 22.5107 33.5517 23.4354 33.8636C23.9231 34.0284 24.3082 34.1577 24.3971 34.1939C24.4149 34.2008 24.4231 34.2213 24.4162 34.2384C24.4101 34.2514 24.3971 34.2596 24.3841 34.2596Z" fill="#1F6D4C"/>
<path d="M23.9093 35.6706C23.0448 35.6706 21.3698 35.5146 20.097 35.0646C20.0792 35.0584 20.0696 35.0386 20.0764 35.0208C20.0826 35.003 20.1024 34.9935 20.1202 35.0003C21.7282 35.5694 23.9777 35.6665 24.3963 35.5721C24.4148 35.568 24.4332 35.5796 24.4374 35.5981C24.4415 35.6165 24.4298 35.635 24.4114 35.6391C24.3197 35.659 24.1446 35.6706 23.9093 35.6706Z" fill="#8593B6"/>
<path d="M14.0217 27.1745C14.2898 27.4104 14.6298 27.5616 14.8651 27.8345C14.9574 27.9419 15.0408 28.0561 15.127 28.1689C15.1899 28.251 15.3568 28.3871 15.3835 28.4897C15.3951 28.5348 15.3931 28.4733 15.3808 28.4282C15.3801 28.4261 15.3794 28.4247 15.3787 28.4227C15.3554 28.2141 15.3383 28.0048 15.3308 27.7948C15.3233 27.5855 15.3363 27.3755 15.3233 27.1669C15.3048 26.8721 15.2125 26.5869 14.9717 26.4023C14.8541 26.312 14.703 26.2573 14.5942 26.1567C14.4916 26.0617 14.5326 25.9529 14.5928 25.8469C14.6496 25.7477 14.718 25.6499 14.7399 25.5357C14.7652 25.4057 14.7159 25.2717 14.6503 25.1616C14.5101 24.9263 14.1996 24.6636 13.9048 24.6992C13.6592 24.7286 13.6312 25.0118 13.6353 25.2088C13.6387 25.4003 13.6579 25.5918 13.6592 25.7833C13.6613 25.9803 13.6278 26.1738 13.625 26.3701C13.6223 26.7039 13.7762 26.9583 14.0217 27.1745Z" fill="#3CB27F"/>
<path d="M16.514 30.2372C16.5886 30.0587 16.6747 29.8925 16.7801 29.7304C16.9244 29.5081 17.0851 29.2913 17.1822 29.0423C17.2814 28.7879 17.267 28.5164 17.2766 28.249C17.2835 28.052 17.3423 27.8564 17.3265 27.6587C17.319 27.5643 17.2643 27.4111 17.1419 27.4268C17.0468 27.4392 16.99 27.5568 16.9538 27.6327C16.8902 27.764 16.8457 27.9042 16.7985 28.0424C16.7801 28.0964 16.7623 28.1512 16.739 28.2031C16.7253 28.2332 16.6823 28.3071 16.6412 28.2975C16.5715 28.2804 16.6351 27.9966 16.6453 27.946C16.6973 27.6936 16.7753 27.459 16.7862 27.1991C16.8019 26.8222 16.7725 26.3735 16.4039 26.1677C16.3074 26.1136 16.1857 26.0815 16.0941 26.1622C16.0038 26.2415 15.9785 26.379 15.9648 26.4926C15.9237 26.8407 16.0058 27.1697 16.1173 27.4973C16.2096 27.7675 16.3191 28.0465 16.3273 28.3358C16.3348 28.6142 16.1905 28.8604 16.1221 29.1237C16.014 29.5423 16.0359 29.7646 16.0359 29.9C16.0352 30.0697 16.0414 30.2379 16.0537 30.4075C16.0653 30.5635 16.0783 30.7187 16.0975 30.874C16.1016 30.9054 16.105 30.9383 16.1091 30.9711C16.0489 30.8268 16.0284 30.662 15.9785 30.517C15.8902 30.2598 15.7883 30.0074 15.7035 29.7489C15.6337 29.5355 15.5674 29.32 15.4758 29.1142C15.3896 28.9213 15.2849 28.7175 15.1235 28.5759C15.0257 28.4904 14.9081 28.4405 14.7774 28.4411C14.694 28.4418 14.6188 28.4706 14.5394 28.4918C14.4416 28.5178 14.3643 28.5089 14.2836 28.4466C14.0196 28.2435 13.9389 27.8796 13.744 27.6225C13.5983 27.4309 13.2522 27.104 12.9978 27.3133C12.863 27.4241 12.8254 27.6382 12.8329 27.803C12.8418 28.0089 12.9321 28.1977 13.0388 28.37C13.153 28.5533 13.3001 28.7175 13.4047 28.9056C13.467 29.017 13.4765 29.1237 13.4663 29.2489C13.4567 29.3672 13.4465 29.4814 13.4868 29.5957C13.6079 29.9383 13.9861 29.8905 14.2802 29.8993C14.4861 29.9055 14.7063 29.9363 14.9019 30.0019C15.1276 30.0779 15.2747 30.2249 15.3554 30.4479C15.4135 30.6093 15.445 30.7933 15.5551 30.9301C15.6071 30.9944 15.6755 31.0422 15.7507 31.0758C15.8656 31.1264 16.2151 31.1483 16.2172 31.1168C16.2261 31.0101 16.2767 30.8972 16.3081 30.796C16.367 30.6066 16.4367 30.4212 16.514 30.2372Z" fill="#3CB27F"/>
<path d="M18.1362 30.1729C18.1061 29.9773 18.1116 29.7612 18.0186 29.5813C18.0117 29.5683 17.9946 29.5649 17.9823 29.5717C17.916 29.6087 17.9132 29.716 17.9078 29.7817C17.8989 29.8911 17.9057 30.0006 17.892 30.1093C17.8688 30.3008 17.8243 30.4978 17.7552 30.6777C17.6773 30.8815 17.5357 30.9971 17.3298 31.0607C17.1978 31.1017 17.0679 31.1373 16.9571 31.2249C16.8579 31.3035 16.7895 31.4116 16.7389 31.5258C16.6014 31.8343 16.5357 32.1783 16.4721 32.508C16.429 32.7296 16.3942 32.9525 16.3401 33.1721C16.2861 33.3916 16.2286 33.6098 16.1979 33.8342C16.1924 33.8458 16.1869 33.8567 16.1821 33.8684C16.1678 33.9019 16.2204 33.9196 16.2382 33.8923C16.4509 33.5654 16.7095 33.2713 17.0631 33.0914C17.2224 33.01 17.4345 32.9929 17.5678 32.865C17.6691 32.7679 17.6827 32.6194 17.6677 32.4868C17.6479 32.313 17.5644 32.1701 17.4776 32.0217C17.4297 31.9403 17.3736 31.8534 17.3927 31.7542C17.4112 31.6612 17.4885 31.5921 17.5651 31.5443C17.7122 31.4533 17.8838 31.4123 18.0035 31.2809C18.115 31.1592 18.1772 31.0067 18.1896 30.8425C18.2073 30.6243 18.1697 30.3891 18.1362 30.1729Z" fill="#3CB27F"/>
<path d="M15.2382 31.3021C15.0508 31.0607 14.8244 30.8521 14.57 30.6832C14.4339 30.5929 14.1138 30.415 14.0488 30.6811C14.0112 30.8371 14.1637 30.9903 14.2643 31.0881C14.4154 31.2351 14.5898 31.3616 14.717 31.5313C14.559 31.5819 14.3942 31.5915 14.2574 31.7002C14.0953 31.8295 14.0221 32.0784 14.1836 32.2371C14.2622 32.3144 14.3662 32.3616 14.4633 32.4088C14.5905 32.4703 14.7198 32.5257 14.8497 32.5805C15.1308 32.6981 15.4154 32.8171 15.6547 33.0093C15.8989 33.2049 16.1287 33.5366 16.1479 33.856C16.1499 33.8868 16.1383 33.8588 16.1561 33.8451C16.1663 33.854 16.1992 33.8383 16.1992 33.8205C16.1944 33.3465 16.1089 32.8944 15.9153 32.4601C15.7361 32.0565 15.5091 31.651 15.2382 31.3021Z" fill="#3CB27F"/>
<path d="M14.592 26.8872C14.6953 27.102 14.8033 27.3119 14.9182 27.5212C15.029 27.723 15.1391 27.9227 15.2219 28.1382C15.3238 28.4028 15.4305 28.6634 15.5379 28.9261C15.6501 29.199 15.7499 29.4767 15.8299 29.7605C15.9866 30.3145 16.1028 30.8842 16.1603 31.4574C16.1897 31.7488 16.2027 32.0415 16.1945 32.3342C16.1883 32.5627 16.1623 32.7891 16.1411 33.0168C16.1186 33.2535 16.1028 33.4935 16.1227 33.7309C16.1391 33.9292 16.1705 34.1659 16.3251 34.3075C16.3552 34.3355 16.3983 34.3006 16.3805 34.265C16.1972 33.8896 16.2075 33.4799 16.2424 33.0729C16.2615 32.8479 16.2882 32.6242 16.2964 32.3985C16.306 32.1113 16.295 31.8233 16.2677 31.5374C16.2143 30.9752 16.1022 30.4198 15.9572 29.8747C15.8826 29.595 15.7903 29.3207 15.6843 29.0519C15.5776 28.7824 15.4544 28.5198 15.3512 28.249C15.1644 27.7586 14.8799 27.3242 14.6275 26.8674C14.6152 26.8421 14.581 26.8633 14.592 26.8872Z" fill="#1F6D4C"/>
<path d="M16.1664 30.8952C16.1958 30.5382 16.228 30.1941 16.3477 29.8542C16.4038 29.6955 16.4715 29.541 16.5262 29.3816C16.5706 29.2496 16.6377 29.069 16.6035 28.9288C16.5994 28.9131 16.5768 28.9138 16.5727 28.9288C16.5494 29.0088 16.5522 29.0964 16.5358 29.1785C16.5193 29.2585 16.4981 29.3364 16.4735 29.4144C16.4209 29.5793 16.3518 29.7372 16.2923 29.9C16.1767 30.214 16.1172 30.5614 16.1425 30.8952C16.1432 30.9109 16.1651 30.9109 16.1664 30.8952Z" fill="#1F6D4C"/>
<path d="M14.099 28.844C14.2405 29.186 14.6666 29.2058 14.9772 29.2824C15.1988 29.3371 15.3622 29.4849 15.4799 29.6771C15.6085 29.887 15.6953 30.1333 15.7671 30.3679C15.7678 30.3706 15.7719 30.3692 15.7712 30.3665C15.6844 29.9561 15.5599 29.4623 15.1372 29.2715C14.798 29.1183 14.3513 29.1956 14.1352 28.829C14.1236 28.8112 14.0908 28.8228 14.099 28.844Z" fill="#1F6D4C"/>
<path d="M15.9423 30.8412C15.9594 30.8637 15.9744 30.8877 15.9922 30.9102C16.0011 30.9212 16.0093 30.9314 16.0202 30.9403C16.0312 30.9492 16.0442 30.9608 16.0599 30.9602C16.0661 30.9602 16.0709 30.9526 16.0674 30.9472C16.0606 30.9355 16.0476 30.9287 16.038 30.9205C16.0278 30.9116 16.0175 30.9027 16.0079 30.8931C15.9881 30.8747 15.9703 30.8542 15.9505 30.835C15.9464 30.8316 15.9389 30.8364 15.9423 30.8412Z" fill="#43588E"/>
<path d="M15.0566 31.9273C15.3008 32.1277 15.5265 32.365 15.7057 32.6256C15.7912 32.7501 15.8705 32.8814 15.9423 33.0141C16.0203 33.1591 16.0723 33.3123 16.1331 33.4648C16.1379 33.4764 16.1591 33.4764 16.1571 33.4614C16.1229 33.1393 15.9191 32.8636 15.7563 32.5955C15.6715 32.4567 15.5661 32.3445 15.4526 32.2282C15.3356 32.1085 15.2159 31.995 15.0792 31.8986C15.0621 31.8869 15.0402 31.9136 15.0566 31.9273Z" fill="#1F6D4C"/>
<path d="M17.0019 31.5477C16.8843 31.6147 16.8802 31.8001 16.8781 31.9191C16.874 32.1475 16.9301 32.3616 16.8302 32.5791C16.7399 32.7754 16.5956 32.9395 16.4821 33.1215C16.3761 33.2925 16.2708 33.5106 16.2735 33.7158C16.2735 33.7275 16.292 33.7343 16.2974 33.722C16.3405 33.629 16.3556 33.523 16.3863 33.4251C16.4205 33.315 16.4691 33.2152 16.5313 33.1187C16.6408 32.9491 16.7748 32.7952 16.8637 32.6133C16.9574 32.4211 16.9438 32.231 16.9376 32.023C16.9335 31.8903 16.9205 31.677 17.0272 31.5785C17.0429 31.5634 17.0217 31.5374 17.0019 31.5477Z" fill="#1F6D4C"/>
<path d="M16.2134 33.737C15.7394 33.7302 14.8359 33.7254 14.8359 33.7254L15.0596 35.3847C15.1102 35.7581 15.4282 36.0365 15.8051 36.0365H16.1943H16.2319H16.6211C16.9979 36.0365 17.3167 35.7581 17.3666 35.3847L17.5902 33.7254C17.5909 33.7254 16.6881 33.7309 16.2134 33.737Z" fill="white"/>
<path d="M39.1347 30.688L36.4297 36.0461L28.543 36.1028L30.9765 30.612L39.1347 30.688Z" fill="#F6F7FA"/>
<path d="M23.3086 36.0693L23.31 35.6405H28.4157L30.7644 30.4896H38.9295L39.1347 30.688H31.1584L28.7173 36.0652C28.7173 36.0652 23.3086 36.055 23.3086 36.0693Z" fill="#D9DEE8"/>
<path d="M35.039 33.6447C34.95 33.9121 34.4665 34.1187 33.959 34.1057C33.4515 34.0927 33.1123 33.8663 33.2019 33.5989C33.2915 33.3315 33.7743 33.1249 34.2818 33.1379C34.7886 33.1502 35.1279 33.3773 35.039 33.6447Z" fill="#D9DEE8"/>
<path d="M28.718 36.0994C28.7132 36.0994 28.7084 36.0987 28.7036 36.0967C28.6865 36.0892 28.679 36.0686 28.6865 36.0515L31.1364 30.6544H39.1346C39.1538 30.6544 39.1688 30.6695 39.1688 30.6886C39.1688 30.7078 39.1538 30.7228 39.1346 30.7228H31.1802L28.7481 36.0803C28.7433 36.0919 28.731 36.0994 28.718 36.0994Z" fill="white"/>
<path d="M22.9522 36.4756H13.5703V38.5555H22.9522V36.4756Z" fill="#596B9B"/>
<path d="M39.7785 36.4756H22.8984V38.5555H39.7785V36.4756Z" fill="#7A89AF"/>
<path d="M22.9522 36.4756H22.8988H13.5703V36.8572H22.8988H22.9522H39.7789V36.4756H22.9522Z" fill="#BDC4D7"/>
<path d="M23.3622 36.0652H13.1172V36.5748H23.3622V36.0652Z" fill="#6F7FA9"/>
<path d="M40.1887 36.0652H23.3086V36.5748H40.1887V36.0652Z" fill="#9CA6C3"/>
<path d="M20.5855 25.1513H17.2737C17.0685 25.1513 16.9023 24.9851 16.9023 24.7799V23.1268C16.9023 22.9216 17.0685 22.7554 17.2737 22.7554H20.5855C20.7906 22.7554 20.9568 22.9216 20.9568 23.1268V24.7799C20.9562 24.9851 20.7906 25.1513 20.5855 25.1513Z" fill="white"/>
<path d="M21.9004 23.953L20.6562 23.4284V24.4783L21.9004 23.953Z" fill="white"/>
<path d="M18.1432 24.1821C18.2697 24.1821 18.3723 24.0796 18.3723 23.953C18.3723 23.8265 18.2697 23.7239 18.1432 23.7239C18.0166 23.7239 17.9141 23.8265 17.9141 23.953C17.9141 24.0796 18.0166 24.1821 18.1432 24.1821Z" fill="#223A7A"/>
<path d="M18.9283 24.1821C19.0549 24.1821 19.1575 24.0796 19.1575 23.953C19.1575 23.8265 19.0549 23.7239 18.9283 23.7239C18.8018 23.7239 18.6992 23.8265 18.6992 23.953C18.6992 24.0796 18.8018 24.1821 18.9283 24.1821Z" fill="#223A7A"/>
<path d="M19.7135 24.1821C19.84 24.1821 19.9426 24.0796 19.9426 23.953C19.9426 23.8265 19.84 23.7239 19.7135 23.7239C19.587 23.7239 19.4844 23.8265 19.4844 23.953C19.4844 24.0796 19.587 24.1821 19.7135 24.1821Z" fill="#223A7A"/>
<path d="M37.442 17.6688H29.7954C29.3043 17.6688 28.9062 18.0669 28.9062 18.558V22.185C28.9062 22.6761 29.3043 23.0741 29.7954 23.0741H30.4807C30.4999 23.4031 30.4527 23.8921 30.1784 24.5173C31.0621 24.1096 31.5703 23.4982 31.8363 23.0741H37.442C37.9331 23.0741 38.3312 22.6761 38.3312 22.185V18.558C38.3312 18.0669 37.9331 17.6688 37.442 17.6688Z" fill="#3CB27F"/>
<path d="M34.1805 19.3979H30.388C30.284 19.3979 30.1992 19.3131 30.1992 19.2091C30.1992 19.1051 30.284 19.0203 30.388 19.0203H34.1805C34.2845 19.0203 34.3693 19.1051 34.3693 19.2091C34.3693 19.3131 34.2845 19.3979 34.1805 19.3979Z" fill="white"/>
<path d="M36.9 20.497H30.3148C30.2512 20.497 30.1992 20.445 30.1992 20.3814C30.1992 20.3178 30.2512 20.2658 30.3148 20.2658H36.9C36.9636 20.2658 37.0155 20.3178 37.0155 20.3814C37.0155 20.445 36.9636 20.497 36.9 20.497Z" fill="#D2E6FF"/>
<path d="M36.9 21.1385H30.3148C30.2512 21.1385 30.1992 21.0866 30.1992 21.0229C30.1992 20.9593 30.2512 20.9074 30.3148 20.9074H36.9C36.9636 20.9074 37.0155 20.9593 37.0155 21.0229C37.0155 21.0866 36.9636 21.1385 36.9 21.1385Z" fill="#D2E6FF"/>
<path d="M35.463 21.8225H30.3148C30.2512 21.8225 30.1992 21.7705 30.1992 21.7069C30.1992 21.6433 30.2512 21.5913 30.3148 21.5913H35.463C35.5266 21.5913 35.5785 21.6433 35.5785 21.7069C35.5785 21.7705 35.5266 21.8225 35.463 21.8225Z" fill="#D2E6FF"/>
<path d="M36.8494 19.3979H35.0403C34.9364 19.3979 34.8516 19.3131 34.8516 19.2091C34.8516 19.1051 34.9364 19.0203 35.0403 19.0203H36.8494C36.9534 19.0203 37.0382 19.1051 37.0382 19.2091C37.0382 19.3131 36.9534 19.3979 36.8494 19.3979Z" fill="white"/>
<path d="M32.2884 27.7394H30.2344C30.1592 27.7394 30.0977 27.6779 30.0977 27.6026V26.1991C30.0977 26.1239 30.1592 26.0623 30.2344 26.0623H32.2884C32.3636 26.0623 32.4252 26.1239 32.4252 26.1991V27.6026C32.4252 27.6785 32.3643 27.7394 32.2884 27.7394Z" fill="white"/>
<path d="M31.2751 27.1519C31.2635 27.1519 31.2518 27.1478 31.2423 27.1403L30.124 26.2169C30.1021 26.1991 30.0994 26.1663 30.1171 26.1444C30.1356 26.1225 30.1678 26.1198 30.1896 26.1376L31.2744 27.0336L32.3311 26.1143C32.3523 26.0959 32.3851 26.0979 32.4036 26.1191C32.4221 26.1403 32.42 26.1731 32.3988 26.1916L31.3093 27.1396C31.2997 27.1478 31.2874 27.1519 31.2751 27.1519Z" fill="#6F7FA9"/>
<path d="M30.157 27.7011C30.144 27.7011 30.1316 27.6963 30.1214 27.6867C30.1009 27.6669 30.1002 27.6348 30.1193 27.6142L30.9011 26.7921C30.9203 26.7716 30.9531 26.7709 30.9736 26.7901C30.9941 26.8099 30.9948 26.8421 30.9757 26.8626L30.1939 27.6847C30.1843 27.6963 30.1706 27.7011 30.157 27.7011Z" fill="#6F7FA9"/>
<path d="M32.3653 27.671C32.3523 27.671 32.3393 27.6662 32.3291 27.656L31.55 26.8749C31.5302 26.8551 31.5302 26.8222 31.55 26.8024C31.5699 26.7826 31.6027 26.7826 31.6225 26.8024L32.4016 27.5835C32.4214 27.6033 32.4214 27.6361 32.4016 27.656C32.3913 27.6662 32.3783 27.671 32.3653 27.671Z" fill="#6F7FA9"/>
<path d="M32.5298 26.6971C32.9086 26.6971 33.2158 26.3899 33.2158 26.011C33.2158 25.6322 32.9086 25.325 32.5298 25.325C32.1509 25.325 31.8438 25.6322 31.8438 26.011C31.8438 26.3899 32.1509 26.6971 32.5298 26.6971Z" fill="#FF5F42"/>
<path d="M32.3405 26.0124L32.3377 26.009C32.3555 26.0158 32.3726 26.0254 32.3877 26.0391C32.4027 26.0528 32.4157 26.0692 32.4253 26.0883C32.4348 26.1075 32.4396 26.1294 32.4396 26.1533C32.4396 26.182 32.4321 26.208 32.4171 26.2313C32.402 26.2545 32.3815 26.2737 32.3555 26.2874C32.3295 26.301 32.3001 26.3086 32.268 26.3086C32.2358 26.3086 32.2064 26.3017 32.1811 26.2874C32.1558 26.273 32.1353 26.2545 32.1202 26.2313C32.1052 26.208 32.0977 26.182 32.0977 26.1533C32.0977 26.1294 32.1024 26.1075 32.1113 26.089C32.1209 26.0699 32.1332 26.0541 32.1483 26.0405C32.1633 26.0268 32.1797 26.0165 32.1975 26.0097L32.1961 26.0131C32.1811 26.0063 32.1674 25.996 32.1544 25.983C32.1414 25.97 32.1312 25.9543 32.123 25.9365C32.1148 25.9187 32.1107 25.8996 32.1107 25.8784C32.1107 25.8496 32.1175 25.8236 32.1319 25.8004C32.1462 25.7771 32.1647 25.7593 32.1886 25.7457C32.2126 25.732 32.2392 25.7258 32.268 25.7258C32.2967 25.7258 32.3234 25.7327 32.3473 25.7457C32.3712 25.7593 32.3897 25.7771 32.4041 25.8004C32.4184 25.8236 32.4253 25.8496 32.4253 25.8784C32.4253 25.8989 32.4212 25.918 32.4136 25.9358C32.4054 25.9536 32.3952 25.9686 32.3822 25.9816C32.3692 25.9953 32.3555 26.0056 32.3405 26.0124ZM32.2686 26.2757C32.3097 26.2757 32.3425 26.2641 32.3678 26.2415C32.3931 26.2183 32.4054 26.1896 32.4054 26.154C32.4054 26.1301 32.3993 26.1082 32.3863 26.0897C32.374 26.0705 32.3569 26.0562 32.3364 26.0452C32.3158 26.0343 32.2926 26.0295 32.268 26.0295C32.244 26.0295 32.2215 26.035 32.2009 26.0452C32.1804 26.0562 32.1633 26.0705 32.151 26.0897C32.1387 26.1088 32.1319 26.1301 32.1319 26.154C32.1319 26.1896 32.1442 26.219 32.1695 26.2415C32.1948 26.2641 32.2276 26.2757 32.2686 26.2757ZM32.1455 25.8784C32.1455 25.9023 32.151 25.9235 32.1626 25.9413C32.1743 25.9591 32.1893 25.9734 32.2085 25.9837C32.2276 25.9939 32.2474 25.9987 32.2686 25.9987C32.2898 25.9987 32.3097 25.9939 32.3288 25.9837C32.3473 25.9734 32.3623 25.9597 32.374 25.9413C32.3856 25.9235 32.3911 25.9023 32.3911 25.8784C32.3911 25.8428 32.3794 25.8141 32.3569 25.7915C32.3343 25.7696 32.3049 25.758 32.2686 25.758C32.2317 25.758 32.2023 25.7689 32.1797 25.7915C32.1565 25.8141 32.1455 25.8428 32.1455 25.8784Z" fill="white"/>
<path d="M32.6798 26.2997C32.6565 26.2997 32.6333 26.2956 32.6107 26.288C32.5881 26.2805 32.5676 26.2689 32.5491 26.2538C32.5471 26.2525 32.545 26.2504 32.5443 26.2484C32.543 26.2463 32.543 26.2443 32.543 26.2415C32.543 26.2374 32.5443 26.2333 32.5478 26.2292C32.5512 26.2251 32.5546 26.2224 32.5594 26.2224C32.5635 26.2224 32.5676 26.2238 32.571 26.2272C32.5867 26.2402 32.6045 26.2504 32.623 26.2566C32.6421 26.2634 32.6606 26.2662 32.6798 26.2662C32.714 26.2662 32.7441 26.2593 32.77 26.2463C32.796 26.2326 32.8159 26.2142 32.8295 26.1896C32.8432 26.1649 32.8507 26.1362 32.8507 26.1041C32.8507 26.074 32.8446 26.0473 32.8316 26.0247C32.8186 26.0022 32.8001 25.9844 32.7755 25.9714C32.7509 25.9584 32.7222 25.9522 32.688 25.9522C32.6674 25.9522 32.6483 25.9556 32.6305 25.9618C32.6127 25.968 32.5984 25.9741 32.5861 25.9809C32.5737 25.9871 32.5649 25.9905 32.5587 25.9905C32.556 25.9905 32.5532 25.9898 32.5512 25.9878C32.5484 25.9864 32.5471 25.9837 32.5457 25.9809C32.5443 25.9782 32.5443 25.9748 32.545 25.9707L32.5833 25.745C32.584 25.7422 32.5854 25.7395 32.5888 25.7361C32.5915 25.7327 32.5963 25.7313 32.6018 25.7313H32.8521C32.8562 25.7313 32.8603 25.7327 32.8637 25.7361C32.8672 25.7395 32.8685 25.7436 32.8685 25.7484C32.8685 25.7532 32.8672 25.7573 32.8637 25.7607C32.8603 25.7641 32.8569 25.7655 32.8521 25.7655H32.6086L32.6162 25.758L32.5785 25.9625L32.5621 25.9584C32.571 25.9529 32.582 25.9474 32.5963 25.9413C32.6107 25.9351 32.6264 25.9303 32.6442 25.9262C32.662 25.9221 32.6811 25.9201 32.701 25.9201C32.7358 25.9201 32.7673 25.9276 32.7947 25.9433C32.822 25.9584 32.8439 25.9796 32.8596 26.0069C32.8761 26.0343 32.8836 26.0658 32.8836 26.102C32.8836 26.1417 32.8754 26.1759 32.8583 26.2053C32.8412 26.2347 32.8179 26.258 32.7878 26.2744C32.757 26.2915 32.7215 26.2997 32.6798 26.2997Z" fill="white"/>
<path d="M39.4236 25.758H35.4142C35.2631 25.758 35.1406 25.6356 35.1406 25.4844V24.8572C35.1406 24.7061 35.2631 24.5836 35.4142 24.5836H39.4236C39.5747 24.5836 39.6972 24.7061 39.6972 24.8572V25.4844C39.6972 25.6356 39.5747 25.758 39.4236 25.758Z" fill="#193C3F"/>
<path d="M35.7019 25.4789C35.6841 25.4789 35.6698 25.4728 35.6588 25.4598C35.6479 25.4468 35.6431 25.4311 35.6445 25.4119L35.6616 25.2601C35.6629 25.256 35.6622 25.2539 35.6595 25.2525C35.6568 25.2512 35.654 25.2519 35.6499 25.2546L35.5248 25.3449C35.509 25.3565 35.4933 25.3606 35.4769 25.3572C35.4605 25.3538 35.4468 25.3442 35.4365 25.3271C35.4249 25.3066 35.4228 25.2888 35.4297 25.2731C35.4365 25.2573 35.4488 25.2471 35.4653 25.2402L35.6055 25.1766C35.6096 25.1753 35.6109 25.1732 35.6109 25.1711C35.6109 25.1684 35.6089 25.1664 35.6055 25.1657L35.4653 25.1021C35.4475 25.0945 35.4358 25.0822 35.4304 25.0658C35.4256 25.0494 35.427 25.0323 35.4358 25.0159C35.4461 24.9995 35.4598 24.9892 35.4762 24.9858C35.4926 24.9824 35.509 24.9858 35.5241 24.9961L35.6492 25.0884C35.6533 25.0911 35.6561 25.0918 35.6588 25.0904C35.6616 25.0891 35.6622 25.0863 35.6609 25.0829L35.6438 24.9311C35.6424 24.9119 35.6479 24.8955 35.6595 24.8832C35.6711 24.8702 35.6862 24.8641 35.706 24.8641C35.7238 24.8641 35.7388 24.8702 35.7505 24.8832C35.7621 24.8962 35.7662 24.9119 35.7641 24.9311L35.747 25.0829C35.7457 25.087 35.7464 25.0891 35.7491 25.0904C35.7518 25.0918 35.7546 25.0911 35.7587 25.0884L35.8838 24.9981C35.8989 24.9865 35.9153 24.9824 35.9331 24.9858C35.9502 24.9892 35.9639 24.9988 35.9728 25.0159C35.9844 25.0364 35.9864 25.0542 35.9796 25.0699C35.9728 25.085 35.9604 25.0959 35.944 25.1028L35.8038 25.1664C35.7997 25.1677 35.7983 25.1698 35.7983 25.1718C35.7983 25.1746 35.8004 25.1766 35.8038 25.1773L35.944 25.2409C35.9618 25.2484 35.9741 25.2607 35.9796 25.2772C35.9851 25.2936 35.983 25.3107 35.9728 25.3271C35.9639 25.3435 35.9509 25.3538 35.9331 25.3572C35.916 25.3606 35.8996 25.3572 35.8838 25.3469L35.7587 25.2546C35.7546 25.2519 35.7518 25.2512 35.7491 25.2525C35.7464 25.2539 35.7457 25.2566 35.747 25.2601L35.7641 25.4119C35.7669 25.4311 35.7621 25.4475 35.7498 25.4598C35.7368 25.4728 35.7211 25.4789 35.7019 25.4789Z" fill="white"/>
<path d="M36.5339 25.4789C36.5162 25.4789 36.5018 25.4728 36.4908 25.4598C36.4799 25.4468 36.4751 25.4311 36.4765 25.4119L36.4936 25.2601C36.495 25.256 36.4943 25.2539 36.4915 25.2525C36.4888 25.2512 36.4861 25.2519 36.482 25.2546L36.3568 25.3449C36.3411 25.3565 36.3253 25.3606 36.3089 25.3572C36.2925 25.3538 36.2788 25.3442 36.2686 25.3271C36.2569 25.3066 36.2549 25.2888 36.2617 25.2731C36.2686 25.2573 36.2809 25.2471 36.2973 25.2402L36.4375 25.1766C36.4416 25.1753 36.443 25.1732 36.443 25.1711C36.443 25.1684 36.4409 25.1664 36.4375 25.1657L36.2973 25.1021C36.2795 25.0945 36.2679 25.0822 36.2624 25.0658C36.2576 25.0494 36.259 25.0323 36.2679 25.0159C36.2781 24.9995 36.2918 24.9892 36.3082 24.9858C36.3246 24.9824 36.3411 24.9858 36.3561 24.9961L36.4813 25.0884C36.4854 25.0911 36.4881 25.0918 36.4908 25.0904C36.4936 25.0891 36.4943 25.0863 36.4929 25.0829L36.4758 24.9311C36.4744 24.9119 36.4799 24.8955 36.4915 24.8832C36.5032 24.8702 36.5182 24.8641 36.538 24.8641C36.5558 24.8641 36.5709 24.8702 36.5825 24.8832C36.5941 24.8962 36.5982 24.9119 36.5962 24.9311L36.5791 25.0829C36.5777 25.087 36.5784 25.0891 36.5811 25.0904C36.5839 25.0918 36.5866 25.0911 36.5907 25.0884L36.7159 24.9981C36.7309 24.9865 36.7473 24.9824 36.7651 24.9858C36.7822 24.9892 36.7952 24.9988 36.8048 25.0159C36.8164 25.0364 36.8185 25.0542 36.8116 25.0699C36.8048 25.085 36.7925 25.0959 36.7761 25.1028L36.6358 25.1664C36.6317 25.1677 36.6304 25.1698 36.6304 25.1718C36.6304 25.1746 36.6324 25.1766 36.6358 25.1773L36.7761 25.2409C36.7938 25.2484 36.8062 25.2607 36.8116 25.2772C36.8171 25.2936 36.815 25.3107 36.8048 25.3271C36.7959 25.3435 36.7829 25.3538 36.7651 25.3572C36.748 25.3606 36.7316 25.3572 36.7159 25.3469L36.5907 25.2546C36.5866 25.2519 36.5839 25.2512 36.5811 25.2525C36.5784 25.2539 36.5777 25.2566 36.5791 25.2601L36.5962 25.4119C36.5989 25.4311 36.5941 25.4475 36.5818 25.4598C36.5688 25.4728 36.5531 25.4789 36.5339 25.4789Z" fill="white"/>
<path d="M37.3621 25.4789C37.3443 25.4789 37.3299 25.4728 37.319 25.4598C37.308 25.4468 37.3032 25.4311 37.3046 25.4119L37.3217 25.2601C37.3231 25.256 37.3224 25.2539 37.3197 25.2525C37.3169 25.2512 37.3142 25.2519 37.3101 25.2546L37.1849 25.3449C37.1692 25.3565 37.1535 25.3606 37.137 25.3572C37.1206 25.3538 37.1069 25.3442 37.0967 25.3271C37.0851 25.3066 37.083 25.2888 37.0898 25.2731C37.0967 25.2573 37.109 25.2471 37.1254 25.2402L37.2656 25.1766C37.2697 25.1753 37.2711 25.1732 37.2711 25.1711C37.2711 25.1684 37.269 25.1664 37.2656 25.1657L37.1254 25.1021C37.1076 25.0945 37.096 25.0822 37.0905 25.0658C37.0857 25.0494 37.0871 25.0323 37.096 25.0159C37.1063 24.9995 37.1199 24.9892 37.1364 24.9858C37.1528 24.9824 37.1692 24.9858 37.1842 24.9961L37.3094 25.0884C37.3135 25.0911 37.3162 25.0918 37.319 25.0904C37.3217 25.0891 37.3224 25.0863 37.321 25.0829L37.3039 24.9311C37.3026 24.9119 37.308 24.8955 37.3197 24.8832C37.3313 24.8702 37.3463 24.8641 37.3662 24.8641C37.3839 24.8641 37.399 24.8702 37.4106 24.8832C37.4222 24.8962 37.4264 24.9119 37.4243 24.9311L37.4072 25.0829C37.4058 25.087 37.4065 25.0891 37.4093 25.0904C37.412 25.0918 37.4147 25.0911 37.4188 25.0884L37.544 24.9981C37.559 24.9865 37.5755 24.9824 37.5932 24.9858C37.6103 24.9892 37.624 24.9988 37.6329 25.0159C37.6445 25.0364 37.6466 25.0542 37.6397 25.0699C37.6329 25.085 37.6206 25.0959 37.6042 25.1028L37.464 25.1664C37.4599 25.1677 37.4585 25.1698 37.4585 25.1718C37.4585 25.1746 37.4606 25.1766 37.464 25.1773L37.6042 25.2409C37.622 25.2484 37.6343 25.2607 37.6397 25.2772C37.6452 25.2936 37.6432 25.3107 37.6329 25.3271C37.624 25.3435 37.611 25.3538 37.5932 25.3572C37.5761 25.3606 37.5597 25.3572 37.544 25.3469L37.4188 25.2546C37.4147 25.2519 37.412 25.2512 37.4093 25.2525C37.4065 25.2539 37.4058 25.2566 37.4072 25.2601L37.4243 25.4119C37.427 25.4311 37.4222 25.4475 37.4099 25.4598C37.3969 25.4728 37.3812 25.4789 37.3621 25.4789Z" fill="white"/>
<path d="M38.1941 25.4789C38.1763 25.4789 38.1619 25.4728 38.151 25.4598C38.1401 25.4468 38.1353 25.4311 38.1366 25.4119L38.1537 25.2601C38.1551 25.256 38.1544 25.2539 38.1517 25.2525C38.149 25.2512 38.1462 25.2519 38.1421 25.2546L38.0169 25.3449C38.0012 25.3565 37.9855 25.3606 37.9691 25.3572C37.9527 25.3538 37.939 25.3442 37.9287 25.3271C37.9171 25.3066 37.915 25.2888 37.9219 25.2731C37.9287 25.2573 37.941 25.2471 37.9574 25.2402L38.0977 25.1766C38.1018 25.1753 38.1031 25.1732 38.1031 25.1711C38.1031 25.1684 38.1011 25.1664 38.0977 25.1657L37.9574 25.1021C37.9397 25.0945 37.928 25.0822 37.9226 25.0658C37.9178 25.0494 37.9191 25.0323 37.928 25.0159C37.9383 24.9995 37.952 24.9892 37.9684 24.9858C37.9848 24.9824 38.0012 24.9858 38.0163 24.9961L38.1414 25.0884C38.1455 25.0911 38.1483 25.0918 38.151 25.0904C38.1537 25.0891 38.1544 25.0863 38.1531 25.0829L38.136 24.9311C38.1346 24.9119 38.1401 24.8955 38.1517 24.8832C38.1633 24.8702 38.1784 24.8641 38.1982 24.8641C38.216 24.8641 38.231 24.8702 38.2427 24.8832C38.2543 24.8962 38.2584 24.9119 38.2563 24.9311L38.2392 25.0829C38.2379 25.087 38.2385 25.0891 38.2413 25.0904C38.244 25.0918 38.2468 25.0911 38.2509 25.0884L38.376 24.9981C38.3911 24.9865 38.4075 24.9824 38.4253 24.9858C38.4424 24.9892 38.456 24.9988 38.4649 25.0159C38.4766 25.0364 38.4786 25.0542 38.4718 25.0699C38.4649 25.085 38.4526 25.0959 38.4362 25.1028L38.296 25.1664C38.2919 25.1677 38.2905 25.1698 38.2905 25.1718C38.2905 25.1746 38.2926 25.1766 38.296 25.1773L38.4362 25.2409C38.454 25.2484 38.4663 25.2607 38.4718 25.2772C38.4773 25.2936 38.4752 25.3107 38.4649 25.3271C38.456 25.3435 38.4431 25.3538 38.4253 25.3572C38.4082 25.3606 38.3918 25.3572 38.376 25.3469L38.2509 25.2546C38.2468 25.2519 38.244 25.2512 38.2413 25.2525C38.2385 25.2539 38.2379 25.2566 38.2392 25.2601L38.2563 25.4119C38.2591 25.4311 38.2543 25.4475 38.242 25.4598C38.229 25.4728 38.2132 25.4789 38.1941 25.4789Z" fill="white"/>
<path d="M39.0183 25.4789C39.0005 25.4789 38.9862 25.4728 38.9752 25.4598C38.9643 25.4468 38.9595 25.4311 38.9609 25.4119L38.978 25.2601C38.9793 25.256 38.9786 25.2539 38.9759 25.2525C38.9732 25.2512 38.9704 25.2519 38.9663 25.2546L38.8412 25.3449C38.8254 25.3565 38.8097 25.3606 38.7933 25.3572C38.7769 25.3538 38.7632 25.3442 38.7529 25.3271C38.7413 25.3066 38.7393 25.2888 38.7461 25.2731C38.7529 25.2573 38.7652 25.2471 38.7817 25.2402L38.9219 25.1766C38.926 25.1753 38.9273 25.1732 38.9273 25.1711C38.9273 25.1684 38.9253 25.1664 38.9219 25.1657L38.7817 25.1021C38.7639 25.0945 38.7523 25.0822 38.7468 25.0658C38.742 25.0494 38.7434 25.0323 38.7523 25.0159C38.7625 24.9995 38.7762 24.9892 38.7926 24.9858C38.809 24.9824 38.8254 24.9858 38.8405 24.9961L38.9656 25.0884C38.9697 25.0911 38.9725 25.0918 38.9752 25.0904C38.978 25.0891 38.9786 25.0863 38.9773 25.0829L38.9602 24.9311C38.9588 24.9119 38.9643 24.8955 38.9759 24.8832C38.9875 24.8702 39.0026 24.8641 39.0224 24.8641C39.0402 24.8641 39.0552 24.8702 39.0669 24.8832C39.0785 24.8962 39.0826 24.9119 39.0806 24.9311L39.0635 25.0829C39.0621 25.087 39.0628 25.0891 39.0655 25.0904C39.0682 25.0918 39.071 25.0911 39.0751 25.0884L39.2002 24.9981C39.2153 24.9865 39.2317 24.9824 39.2495 24.9858C39.2666 24.9892 39.2803 24.9988 39.2892 25.0159C39.3008 25.0364 39.3028 25.0542 39.296 25.0699C39.2892 25.085 39.2768 25.0959 39.2604 25.1028L39.1202 25.1664C39.1161 25.1677 39.1147 25.1698 39.1147 25.1718C39.1147 25.1746 39.1168 25.1766 39.1202 25.1773L39.2604 25.2409C39.2782 25.2484 39.2905 25.2607 39.296 25.2772C39.3015 25.2936 39.2994 25.3107 39.2892 25.3271C39.2803 25.3435 39.2673 25.3538 39.2495 25.3572C39.2324 25.3606 39.216 25.3572 39.2002 25.3469L39.0751 25.2546C39.071 25.2519 39.0682 25.2512 39.0655 25.2525C39.0628 25.2539 39.0621 25.2566 39.0635 25.2601L39.0806 25.4119C39.0833 25.4311 39.0785 25.4475 39.0662 25.4598C39.0532 25.4728 39.0375 25.4789 39.0183 25.4789Z" fill="#3CB27F"/>
<defs>
<filter id="filter0_d_418_3020" x="0" y="0" width="54" height="54" filterUnits="userSpaceOnUse" color-interpolation-filters="sRGB">
<feFlood flood-opacity="0" result="BackgroundImageFix"/>
<feColorMatrix in="SourceAlpha" type="matrix" values="0 0 0 0 0 0 0 0 0 0 0 0 0 0 0 0 0 0 127 0" result="hardAlpha"/>
<feOffset/>
<feGaussianBlur stdDeviation="4"/>
<feComposite in2="hardAlpha" operator="out"/>
<feColorMatrix type="matrix" values="0 0 0 0 0 0 0 0 0 0 0 0 0 0 0 0 0 0 0.12 0"/>
<feBlend mode="normal" in2="BackgroundImageFix" result="effect1_dropShadow_418_3020"/>
<feBlend mode="normal" in="SourceGraphic" in2="effect1_dropShadow_418_3020" result="shape"/>
</filter>
</defs>
</svg>
