<svg width="949" height="145" viewBox="0 0 949 145" fill="none" xmlns="http://www.w3.org/2000/svg">
<path opacity="0.06" d="M10.88 100.72L10.0587 101.291L10.0628 101.296L10.88 100.72ZM10.88 15.6L10.0628 15.0236L10.0587 15.0294L10.88 15.6ZM76.96 15.6L76.1387 16.1706L76.1428 16.1763L76.96 15.6ZM76.96 100.72L76.1428 100.144L76.1387 100.149L76.96 100.72ZM58.08 89.04L57.1931 88.578L57.1894 88.5852L58.08 89.04ZM58.08 27.44L57.1856 27.8872L57.1912 27.8985L57.1971 27.9096L58.08 27.44ZM29.76 27.44L28.8731 26.9781L28.8694 26.9852L29.76 27.44ZM29.76 89.04L28.8656 89.4872L28.8712 89.4985L28.8771 89.5096L29.76 89.04ZM44 114.92C29.3163 114.92 18.6169 109.955 11.6972 100.144L10.0628 101.296C17.4364 111.751 28.817 116.92 44 116.92V114.92ZM11.7013 100.149C4.8211 90.2462 1.32 76.2885 1.32 58.16H-0.68C-0.68 76.5115 2.8589 90.9271 10.0587 101.291L11.7013 100.149ZM1.32 58.16C1.32 40.0315 4.8211 26.0738 11.7013 16.1706L10.0587 15.0294C2.8589 25.3929 -0.68 39.8085 -0.68 58.16H1.32ZM11.6972 16.1763C18.6169 6.36483 29.3163 1.39999 44 1.39999V-0.600006C28.817 -0.600006 17.4364 4.56849 10.0628 15.0237L11.6972 16.1763ZM44 1.39999C58.6841 1.39999 69.3263 6.36471 76.1387 16.1706L77.7813 15.0294C70.5137 4.56861 59.1826 -0.600006 44 -0.600006V1.39999ZM76.1428 16.1763C83.1265 26.0786 86.68 40.0339 86.68 58.16H88.68C88.68 39.8061 85.0868 25.388 77.7772 15.0237L76.1428 16.1763ZM86.68 58.16C86.68 76.2861 83.1265 90.2414 76.1428 100.144L77.7772 101.296C85.0868 90.9319 88.68 76.5139 88.68 58.16H86.68ZM76.1387 100.149C69.3263 109.955 58.6841 114.92 44 114.92V116.92C59.1826 116.92 70.5137 111.751 77.7813 101.291L76.1387 100.149ZM44 97.56C51.1061 97.56 56.2 94.9206 58.9706 89.4948L57.1894 88.5852C54.84 93.1861 50.5472 95.56 44 95.56V97.56ZM58.9669 89.5019C61.7385 84.1806 63.08 76.9048 63.08 67.76H61.08C61.08 76.7486 59.7549 83.6594 57.1931 88.5781L58.9669 89.5019ZM63.08 67.76V48.4H61.08V67.76H63.08ZM63.08 48.4C63.08 39.3615 61.7384 32.1884 58.9629 26.9704L57.1971 27.9096C59.7549 32.7182 61.08 39.5185 61.08 48.4H63.08ZM58.9744 26.9928C57.6099 24.2638 55.6577 22.1869 53.1189 20.8021C50.5901 19.4228 47.5354 18.76 44 18.76V20.76C47.2913 20.76 49.9965 21.3772 52.1612 22.5579C54.3157 23.7331 55.9901 25.4962 57.1856 27.8872L58.9744 26.9928ZM44 18.76C36.8828 18.76 31.747 21.4602 28.8731 26.9781L30.6469 27.9019C33.1064 23.1798 37.4638 20.76 44 20.76V18.76ZM28.8694 26.9852C26.2072 32.1987 24.92 39.3657 24.92 48.4H26.92C26.92 39.5143 28.1928 32.708 30.6506 27.8948L28.8694 26.9852ZM24.92 48.4V67.92H26.92V48.4H24.92ZM24.92 67.92C24.92 76.9562 26.2078 84.1717 28.8656 89.4872L30.6544 88.5928C28.1922 83.6683 26.92 76.8038 26.92 67.92H24.92ZM28.8771 89.5096C31.7558 94.9215 36.8932 97.56 44 97.56V95.56C37.4534 95.56 33.0975 93.1852 30.6429 88.5704L28.8771 89.5096ZM109.217 100.88L108.4 101.456L108.407 101.466L109.217 100.88ZM109.217 15.6L108.404 15.018L108.403 15.0196L109.217 15.6ZM157.698 2.79999L157.354 3.73911L157.368 3.74409L157.381 3.74868L157.698 2.79999ZM169.217 9.2L168.563 9.95568L169.217 9.2ZM177.057 19.28L176.168 19.7368L176.173 19.7462L176.178 19.7555L177.057 19.28ZM182.018 32.56L182.253 33.5318L183.222 33.2966L182.99 32.3274L182.018 32.56ZM159.618 38L158.645 38.2334L158.879 39.2084L159.854 38.9717L159.618 38ZM157.378 30.64L156.443 30.996V30.996L157.378 30.64ZM154.018 24.88L153.237 25.5047L153.249 25.5201L153.262 25.5349L154.018 24.88ZM149.058 21.2L148.61 22.0944L148.639 22.109L148.669 22.1216L149.058 21.2ZM128.098 27.44L127.218 26.9637L127.215 26.9704L128.098 27.44ZM128.098 89.04L127.211 89.5019L127.216 89.5131L127.222 89.5241L128.098 89.04ZM154.018 91.44L153.217 90.84L153.211 90.8481L153.205 90.8564L154.018 91.44ZM159.618 78.32L159.854 77.3483L158.86 77.1071L158.641 78.1051L159.618 78.32ZM182.018 83.76L182.99 83.9926L183.222 83.0234L182.253 82.7882L182.018 83.76ZM177.057 97.04L176.178 96.5645L176.173 96.5738L176.168 96.5832L177.057 97.04ZM169.217 107.28L169.872 108.036L169.88 108.03L169.886 108.023L169.217 107.28ZM157.698 113.68L157.381 112.731L157.374 112.734L157.698 113.68ZM142.497 114.92C127.81 114.92 117.053 110.005 110.028 100.294L108.407 101.466C115.889 111.808 127.318 116.92 142.497 116.92V114.92ZM110.035 100.304C103.052 90.4022 99.4975 76.3942 99.4975 58.16H97.4975C97.4975 76.6191 101.09 91.0911 108.4 101.456L110.035 100.304ZM99.4975 58.16C99.4975 39.9248 103.052 25.9731 110.032 16.1804L108.403 15.0196C101.09 25.2803 97.4975 39.7019 97.4975 58.16H99.4975ZM110.031 16.182C117.058 6.36495 127.814 1.39999 142.497 1.39999V-0.600006C127.314 -0.600006 115.884 4.56837 108.404 15.018L110.031 16.182ZM142.497 1.39999C148.167 1.39999 153.113 2.18765 157.354 3.73911L158.041 1.86087C153.535 0.212334 148.348 -0.600006 142.497 -0.600006V1.39999ZM157.381 3.74868C161.751 5.2053 165.473 7.27765 168.563 9.95568L169.872 8.44431C166.562 5.57567 162.604 3.38135 158.014 1.85131L157.381 3.74868ZM168.563 9.95568C171.661 12.6413 174.197 15.8983 176.168 19.7368L177.947 18.8232C175.865 14.7683 173.174 11.3053 169.872 8.44431L168.563 9.95568ZM176.178 19.7555C178.265 23.6168 179.889 27.9602 181.045 32.7926L182.99 32.3274C181.799 27.3464 180.117 22.8366 177.937 18.8045L176.178 19.7555ZM181.782 31.5882L159.382 37.0282L159.854 38.9717L182.253 33.5318L181.782 31.5882ZM160.59 37.7666C159.941 35.0641 159.183 32.5692 158.312 30.284L156.443 30.996C157.279 33.1908 158.014 35.6025 158.645 38.2334L160.59 37.7666ZM158.312 30.284C157.422 27.949 156.246 25.9243 154.773 24.2251L153.262 25.5349C154.562 27.0356 155.626 28.851 156.443 30.996L158.312 30.284ZM154.798 24.2553C153.407 22.5157 151.614 21.1915 149.446 20.2784L148.669 22.1216C150.554 22.9151 152.068 24.0443 153.237 25.5047L154.798 24.2553ZM149.505 20.3056C147.411 19.2589 144.902 18.76 142.018 18.76V20.76C144.679 20.76 146.864 21.2211 148.61 22.0944L149.505 20.3056ZM142.018 18.76C138.633 18.76 135.672 19.4262 133.174 20.8044C130.67 22.1859 128.687 24.2527 127.218 26.9637L128.977 27.9163C130.282 25.5073 132.005 23.7341 134.141 22.5556C136.283 21.3738 138.895 20.76 142.018 20.76V18.76ZM127.215 26.9704C124.439 32.1884 123.098 39.3615 123.098 48.4H125.098C125.098 39.5185 126.423 32.7182 128.98 27.9096L127.215 26.9704ZM123.098 48.4V67.92H125.098V48.4H123.098ZM123.098 67.92C123.098 76.9604 124.44 84.1819 127.211 89.5019L128.984 88.5781C126.422 83.6581 125.098 76.7996 125.098 67.92H123.098ZM127.222 89.5241C130.199 94.9048 135.207 97.56 142.018 97.56V95.56C135.815 95.56 131.543 93.2018 128.973 88.5559L127.222 89.5241ZM142.018 97.56C147.773 97.56 152.131 95.7782 154.83 92.0236L153.205 90.8564C150.997 93.9285 147.355 95.56 142.018 95.56V97.56ZM154.818 92.04C157.484 88.4851 159.398 83.9701 160.594 78.5349L158.641 78.1051C157.49 83.3366 155.671 87.5682 153.217 90.84L154.818 92.04ZM159.382 79.2917L181.782 84.7318L182.253 82.7882L159.854 77.3483L159.382 79.2917ZM181.045 83.5274C179.889 88.3598 178.265 92.7032 176.178 96.5645L177.937 97.5155C180.117 93.4834 181.799 88.9736 182.99 83.9926L181.045 83.5274ZM176.168 96.5832C174.195 100.425 171.655 103.74 168.549 106.537L169.886 108.023C173.18 105.06 175.867 101.548 177.947 97.4968L176.168 96.5832ZM168.563 106.524C165.473 109.202 161.751 111.275 157.381 112.731L158.014 114.629C162.604 113.099 166.562 110.904 169.872 108.036L168.563 106.524ZM157.374 112.734C153.127 114.184 148.174 114.92 142.497 114.92V116.92C148.341 116.92 153.521 116.163 158.021 114.626L157.374 112.734ZM249.955 67.28H250.955V66.28H249.955V67.28ZM221.795 67.28V66.28H220.795V67.28H221.795ZM221.795 114V115H222.795V114H221.795ZM197.635 114H196.635V115H197.635V114ZM197.635 2.32V1.32H196.635V2.32H197.635ZM221.795 2.32H222.795V1.32H221.795V2.32ZM221.795 47.6H220.795V48.6H221.795V47.6ZM249.955 47.6V48.6H250.955V47.6H249.955ZM249.955 2.32V1.32H248.955V2.32H249.955ZM274.115 2.32H275.115V1.32H274.115V2.32ZM274.115 114V115H275.115V114H274.115ZM249.955 114H248.955V115H249.955V114ZM249.955 66.28H221.795V68.28H249.955V66.28ZM220.795 67.28V114H222.795V67.28H220.795ZM221.795 113H197.635V115H221.795V113ZM198.635 114V2.32H196.635V114H198.635ZM197.635 3.32H221.795V1.32H197.635V3.32ZM220.795 2.32V47.6H222.795V2.32H220.795ZM221.795 48.6H249.955V46.6H221.795V48.6ZM250.955 47.6V2.32H248.955V47.6H250.955ZM249.955 3.32H274.115V1.32H249.955V3.32ZM273.115 2.32V114H275.115V2.32H273.115ZM274.115 113H249.955V115H274.115V113ZM250.955 114V67.28H248.955V114H250.955ZM295.812 114H294.812V115H295.812V114ZM295.812 96.24V95.24H294.812V96.24H295.812ZM319.812 96.24V97.24H320.812V96.24H319.812ZM319.812 20.08H320.812V19.08H319.812V20.08ZM295.812 20.08H294.812V21.08H295.812V20.08ZM295.812 2.32V1.32H294.812V2.32H295.812ZM367.812 2.32H368.812V1.32H367.812V2.32ZM367.812 20.08V21.08H368.812V20.08H367.812ZM343.812 20.08V19.08H342.812V20.08H343.812ZM343.812 96.24H342.812V97.24H343.812V96.24ZM367.812 96.24H368.812V95.24H367.812V96.24ZM367.812 114V115H368.812V114H367.812ZM296.812 114V96.24H294.812V114H296.812ZM295.812 97.24H319.812V95.24H295.812V97.24ZM320.812 96.24V20.08H318.812V96.24H320.812ZM319.812 19.08H295.812V21.08H319.812V19.08ZM296.812 20.08V2.32H294.812V20.08H296.812ZM295.812 3.32H367.812V1.32H295.812V3.32ZM366.812 2.32V20.08H368.812V2.32H366.812ZM367.812 19.08H343.812V21.08H367.812V19.08ZM342.812 20.08V96.24H344.812V20.08H342.812ZM343.812 97.24H367.812V95.24H343.812V97.24ZM366.812 96.24V114H368.812V96.24H366.812ZM367.812 113H295.812V115H367.812V113ZM463.91 144.56V145.56H464.91V144.56H463.91ZM422.79 138.32L423.544 137.663L422.79 138.32ZM417.35 114.96H418.35V114.137L417.543 113.979L417.35 114.96ZM392.07 97.04L391.191 97.5175L391.198 97.5289L392.07 97.04ZM394.63 15.6L393.813 15.0236L393.809 15.0294L394.63 15.6ZM460.71 15.6L459.889 16.1706L459.893 16.1763L460.71 15.6ZM463.27 97.04L462.395 96.5552L462.394 96.5585L463.27 97.04ZM438.15 114.96L437.957 113.979L437.15 114.137V114.96H438.15ZM438.15 127.44H437.15V128.44H438.15V127.44ZM463.91 127.44H464.91V126.44H463.91V127.44ZM441.83 89.04L440.943 88.578L440.939 88.5852L441.83 89.04ZM441.83 27.44L440.936 27.8872L440.941 27.8985L440.947 27.9096L441.83 27.44ZM413.51 27.44L412.623 26.9781L412.619 26.9852L413.51 27.44ZM413.51 89.04L412.616 89.4872L412.621 89.4985L412.627 89.5096L413.51 89.04ZM463.91 143.56H441.19V145.56H463.91V143.56ZM441.19 143.56C432.677 143.56 426.895 141.507 423.544 137.663L422.036 138.977C425.938 143.453 432.423 145.56 441.19 145.56V143.56ZM423.544 137.663C420.116 133.731 418.35 128.387 418.35 121.52H416.35C416.35 128.733 418.211 134.589 422.036 138.977L423.544 137.663ZM418.35 121.52V114.96H416.35V121.52H418.35ZM417.543 113.979C406.402 111.792 398.232 105.989 392.942 96.5511L391.198 97.5289C396.788 107.504 405.471 113.648 417.157 115.941L417.543 113.979ZM392.949 96.5625C387.722 86.9462 385.07 74.1688 385.07 58.16H383.07C383.07 74.3645 385.751 87.5071 391.191 97.5175L392.949 96.5625ZM385.07 58.16C385.07 40.0315 388.571 26.0738 395.451 16.1706L393.809 15.0294C386.609 25.3929 383.07 39.8085 383.07 58.16H385.07ZM395.447 16.1763C402.367 6.36483 413.066 1.39999 427.75 1.39999V-0.600006C412.567 -0.600006 401.186 4.56849 393.813 15.0237L395.447 16.1763ZM427.75 1.39999C442.434 1.39999 453.076 6.36471 459.889 16.1706L461.531 15.0294C454.264 4.56861 442.933 -0.600006 427.75 -0.600006V1.39999ZM459.893 16.1763C466.876 26.0786 470.43 40.0339 470.43 58.16H472.43C472.43 39.8061 468.837 25.388 461.527 15.0237L459.893 16.1763ZM470.43 58.16C470.43 74.1663 467.725 86.9409 462.395 96.5552L464.145 97.5248C469.695 87.5125 472.43 74.367 472.43 58.16H470.43ZM462.394 96.5585C457.211 105.991 449.097 111.792 437.957 113.979L438.343 115.941C450.03 113.648 458.662 107.502 464.146 97.5215L462.394 96.5585ZM437.15 114.96V127.44H439.15V114.96H437.15ZM438.15 128.44H463.91V126.44H438.15V128.44ZM462.91 127.44V144.56H464.91V127.44H462.91ZM427.75 97.56C434.856 97.56 439.95 94.9206 442.721 89.4948L440.939 88.5852C438.59 93.1861 434.297 95.56 427.75 95.56V97.56ZM442.717 89.5019C445.488 84.1806 446.83 76.9048 446.83 67.76H444.83C444.83 76.7486 443.505 83.6594 440.943 88.5781L442.717 89.5019ZM446.83 67.76V48.4H444.83V67.76H446.83ZM446.83 48.4C446.83 39.3615 445.488 32.1884 442.713 26.9704L440.947 27.9096C443.505 32.7182 444.83 39.5185 444.83 48.4H446.83ZM442.724 26.9928C441.36 24.2638 439.408 22.1869 436.869 20.8021C434.34 19.4228 431.285 18.76 427.75 18.76V20.76C431.041 20.76 433.747 21.3772 435.911 22.5579C438.066 23.7331 439.74 25.4962 440.936 27.8872L442.724 26.9928ZM427.75 18.76C420.633 18.76 415.497 21.4602 412.623 26.9781L414.397 27.9019C416.856 23.1798 421.214 20.76 427.75 20.76V18.76ZM412.619 26.9852C409.957 32.1987 408.67 39.3657 408.67 48.4H410.67C410.67 39.5143 411.943 32.708 414.401 27.8948L412.619 26.9852ZM408.67 48.4V67.92H410.67V48.4H408.67ZM408.67 67.92C408.67 76.9562 409.958 84.1717 412.616 89.4872L414.404 88.5928C411.942 83.6683 410.67 76.8038 410.67 67.92H408.67ZM412.627 89.5096C415.506 94.9215 420.643 97.56 427.75 97.56V95.56C421.203 95.56 416.848 93.1852 414.393 88.5704L412.627 89.5096ZM581.865 2.32V1.32H580.865V2.32H581.865ZM651.305 16.72L652.103 16.1172L651.305 16.72ZM651.305 99.6L650.507 98.9972L651.305 99.6ZM581.865 114H580.865V115H581.865V114ZM631.945 88.24L631.134 87.6552L631.945 88.24ZM631.945 28.08L631.134 28.6648L631.945 28.08ZM605.545 21.2V20.2H604.545V21.2H605.545ZM605.545 95.12H604.545V96.12H605.545V95.12ZM581.865 3.32H617.865V1.32H581.865V3.32ZM617.865 3.32C632.678 3.32 643.49 8.03495 650.507 17.3228L652.103 16.1172C644.614 6.20504 633.132 1.32 617.865 1.32V3.32ZM650.507 17.3228C657.578 26.6818 661.185 40.2477 661.185 58.16H663.185C663.185 40.0189 659.538 25.9582 652.103 16.1172L650.507 17.3228ZM661.185 58.16C661.185 76.0723 657.578 89.6382 650.507 98.9972L652.103 100.203C659.538 90.3618 663.185 76.3011 663.185 58.16H661.185ZM650.507 98.9972C643.49 108.285 632.678 113 617.865 113V115C633.132 115 644.614 110.115 652.103 100.203L650.507 98.9972ZM617.865 113H581.865V115H617.865V113ZM582.865 114V2.32H580.865V114H582.865ZM616.265 96.12C623.639 96.12 629.212 93.7403 632.756 88.8248L631.134 87.6552C628.064 91.913 623.185 94.12 616.265 94.12V96.12ZM632.756 88.8248C636.236 83.9977 637.905 77.0893 637.905 68.24H635.905C635.905 76.884 634.267 83.309 631.134 87.6552L632.756 88.8248ZM637.905 68.24V47.92H635.905V68.24H637.905ZM637.905 47.92C637.905 39.1742 636.235 32.3206 632.756 27.4952L631.134 28.6648C634.268 33.0127 635.905 39.3858 635.905 47.92H637.905ZM632.756 27.4952C629.212 22.5797 623.639 20.2 616.265 20.2V22.2C623.185 22.2 628.064 24.407 631.134 28.6648L632.756 27.4952ZM616.265 20.2H605.545V22.2H616.265V20.2ZM604.545 21.2V95.12H606.545V21.2H604.545ZM605.545 96.12H616.265V94.12H605.545V96.12ZM737.162 114L736.195 114.253L736.391 115H737.162V114ZM730.122 87.12L731.09 86.8666L730.894 86.12H730.122V87.12ZM699.562 87.12V86.12H698.786L698.594 86.872L699.562 87.12ZM692.682 114V115H693.459L693.651 114.248L692.682 114ZM668.362 114L667.397 113.739L667.056 115H668.362V114ZM698.602 2.32V1.32H697.837L697.637 2.05864L698.602 2.32ZM732.523 2.32L733.488 2.05864L733.288 1.32H732.523V2.32ZM762.763 114V115H764.069L763.728 113.739L762.763 114ZM715.562 25.52L716.531 25.2706L716.338 24.52H715.562V25.52ZM714.283 25.52V24.52H713.507L713.314 25.2706L714.283 25.52ZM703.403 67.76L702.434 67.5106L702.112 68.76H703.403V67.76ZM726.443 67.76V68.76H727.733L727.411 67.5106L726.443 67.76ZM738.13 113.747L731.09 86.8666L729.155 87.3734L736.195 114.253L738.13 113.747ZM730.122 86.12H699.562V88.12H730.122V86.12ZM698.594 86.872L691.714 113.752L693.651 114.248L700.531 87.368L698.594 86.872ZM692.682 113H668.362V115H692.682V113ZM669.328 114.261L699.568 2.58136L697.637 2.05864L667.397 113.739L669.328 114.261ZM698.602 3.32H732.523V1.32H698.602V3.32ZM731.557 2.58136L761.797 114.261L763.728 113.739L733.488 2.05864L731.557 2.58136ZM762.763 113H737.162V115H762.763V113ZM715.562 24.52H714.283V26.52H715.562V24.52ZM713.314 25.2706L702.434 67.5106L704.371 68.0094L715.251 25.7694L713.314 25.2706ZM703.403 68.76H726.443V66.76H703.403V68.76ZM727.411 67.5106L716.531 25.2706L714.594 25.7694L725.474 68.0094L727.411 67.5106ZM799.34 114V115H800.34V114H799.34ZM775.66 114H774.66V115H775.66V114ZM775.66 2.32V1.32H774.66V2.32H775.66ZM833.42 4.87999L833.049 5.80847L833.059 5.81251L833.069 5.81632L833.42 4.87999ZM844.14 11.92L843.408 12.6014L843.414 12.6081L843.421 12.6146L844.14 11.92ZM847.98 58.16L847.124 57.6431L847.98 58.16ZM833.42 69.36L833.143 68.3991L831.996 68.7295L832.522 69.8008L833.42 69.36ZM855.34 114V115H856.945L856.238 113.559L855.34 114ZM829.1 114L828.189 114.412L828.454 115H829.1V114ZM810.38 72.56L811.291 72.1483L811.026 71.56H810.38V72.56ZM799.34 72.56V71.56H798.34V72.56H799.34ZM824.78 50.8L824.09 50.0759L824.082 50.0843L824.073 50.0929L824.78 50.8ZM824.78 24.88L824.073 25.5871L824.082 25.5957L824.09 25.6041L824.78 24.88ZM799.34 21.68V20.68H798.34V21.68H799.34ZM799.34 54H798.34V55H799.34V54ZM799.34 113H775.66V115H799.34V113ZM776.66 114V2.32H774.66V114H776.66ZM775.66 3.32H818.86V1.32H775.66V3.32ZM818.86 3.32C824.196 3.32 828.92 4.15688 833.049 5.80847L833.791 3.95152C829.387 2.18978 824.404 1.32 818.86 1.32V3.32ZM833.069 5.81632C837.202 7.3663 840.642 9.63008 843.408 12.6014L844.872 11.2386C841.878 8.02324 838.171 5.59368 833.771 3.94366L833.069 5.81632ZM843.421 12.6146C846.298 15.5945 848.464 19.1982 849.914 23.4431L851.806 22.7969C850.269 18.2951 847.956 14.4321 844.859 11.2254L843.421 12.6146ZM849.914 23.4431C851.366 27.6959 852.1 32.4909 852.1 37.84H854.1C854.1 32.3091 853.341 27.2908 851.806 22.7969L849.914 23.4431ZM852.1 37.84C852.1 45.5869 850.426 52.1738 847.124 57.6431L848.836 58.6769C852.36 52.8395 854.1 45.8797 854.1 37.84H852.1ZM847.124 57.6431C843.84 63.0828 839.192 66.6562 833.143 68.3991L833.697 70.3209C840.235 68.4372 845.294 64.5439 848.836 58.6769L847.124 57.6431ZM832.522 69.8008L854.442 114.441L856.238 113.559L834.318 68.9192L832.522 69.8008ZM855.34 113H829.1V115H855.34V113ZM830.011 113.588L811.291 72.1483L809.469 72.9717L828.189 114.412L830.011 113.588ZM810.38 71.56H799.34V73.56H810.38V71.56ZM798.34 72.56V114H800.34V72.56H798.34ZM813.1 55C818.811 55 823.058 53.9362 825.487 51.5071L824.073 50.0929C822.235 51.9305 818.696 53 813.1 53V55ZM825.47 51.5241C827.998 49.1163 829.14 45.2642 829.14 40.24H827.14C827.14 45.0291 826.042 48.2171 824.09 50.0759L825.47 51.5241ZM829.14 40.24V35.44H827.14V40.24H829.14ZM829.14 35.44C829.14 30.4158 827.998 26.5637 825.47 24.1559L824.09 25.6041C826.042 27.4629 827.14 30.6509 827.14 35.44H829.14ZM825.487 24.1729C823.058 21.7438 818.811 20.68 813.1 20.68V22.68C818.696 22.68 822.235 23.7495 824.073 25.5871L825.487 24.1729ZM813.1 20.68H799.34V22.68H813.1V20.68ZM798.34 21.68V54H800.34V21.68H798.34ZM799.34 55H813.1V53H799.34V55ZM881.198 111.28L881.605 110.367L881.198 111.28ZM864.398 98.64L863.656 97.9685L863.085 98.5996L863.617 99.2647L864.398 98.64ZM878.318 83.28L879.059 82.6091L878.318 81.7902L877.577 82.6085L878.318 83.28ZM891.597 93.2L891.191 94.1138L891.199 94.1171L891.597 93.2ZM919.597 92.56L920.248 93.3193L919.597 92.56ZM920.557 72.56L919.887 73.3015L919.895 73.3093L919.904 73.3168L920.557 72.56ZM909.037 68.24L908.875 69.2268L908.883 69.2279L909.037 68.24ZM897.357 66.32L897.19 67.3058L897.195 67.3068L897.357 66.32ZM875.597 55.28L874.808 55.894L874.814 55.9011L875.597 55.28ZM879.438 9.35999L880.078 10.1282L880.084 10.1225L879.438 9.35999ZM931.598 4.39999L931.982 3.47691L931.598 4.39999ZM947.117 15.28L947.863 15.9468L948.448 15.2929L947.875 14.6278L947.117 15.28ZM933.518 30.48L932.775 31.1503L933.521 31.9758L934.263 31.1468L933.518 30.48ZM922.958 22.8L922.529 23.7037L922.539 23.7084L922.549 23.7128L922.958 22.8ZM896.557 41.84L895.924 42.614L895.933 42.6208L895.941 42.6275L896.557 41.84ZM908.398 46.16L908.573 45.1755L908.571 45.1752L908.398 46.16ZM920.078 48.24L919.902 49.2245L919.904 49.2248L920.078 48.24ZM941.038 58.48L941.767 57.7956L941.038 58.48ZM945.677 94.16L946.601 94.543L946.604 94.5352L945.677 94.16ZM937.518 105.68L938.179 106.43L938.185 106.424L938.191 106.419L937.518 105.68ZM924.078 113.2L923.756 112.253L923.75 112.255L924.078 113.2ZM905.677 114.92C896.399 114.92 888.384 113.391 881.605 110.367L880.79 112.193C887.878 115.356 896.183 116.92 905.677 116.92V114.92ZM881.605 110.367C874.801 107.331 869.335 103.211 865.178 98.0153L863.617 99.2647C867.994 104.736 873.728 109.042 880.79 112.193L881.605 110.367ZM865.138 99.3115L879.058 83.9515L877.577 82.6085L863.656 97.9685L865.138 99.3115ZM877.576 83.9509C881.709 88.5189 886.246 91.9159 891.191 94.1138L892.004 92.2862C887.349 90.2174 883.033 87.0011 879.059 82.6091L877.576 83.9509ZM891.199 94.1171C896.223 96.3014 901.318 97.4 906.477 97.4V95.4C901.61 95.4 896.786 94.3653 891.996 92.2829L891.199 94.1171ZM906.477 97.4C912.368 97.4 917.012 96.0929 920.248 93.3193L918.947 91.8007C916.209 94.1471 912.107 95.4 906.477 95.4V97.4ZM920.248 93.3193C923.505 90.5279 925.078 86.5417 925.078 81.52H923.078C923.078 86.0983 921.663 89.4721 918.947 91.8007L920.248 93.3193ZM925.078 81.52C925.078 77.368 923.835 74.0692 921.211 71.8032L919.904 73.3168C921.973 75.1041 923.078 77.7787 923.078 81.52H925.078ZM921.228 71.8185C918.768 69.5921 914.688 68.1142 909.192 67.2521L908.883 69.2279C914.267 70.0725 917.867 71.4746 919.887 73.3015L921.228 71.8185ZM909.2 67.2532L897.52 65.3332L897.195 67.3068L908.875 69.2268L909.2 67.2532ZM897.525 65.3342C887.643 63.652 880.655 60.0522 876.381 54.6589L874.814 55.9011C879.5 61.8145 887.019 65.5747 897.19 67.3058L897.525 65.3342ZM876.387 54.6661C872.06 49.1035 869.878 42.3404 869.878 34.32H867.878C867.878 42.7263 870.175 49.9365 874.808 55.8939L876.387 54.6661ZM869.878 34.32C869.878 23.7856 873.307 15.7707 880.078 10.1282L878.797 8.59177C871.488 14.6826 867.878 23.3077 867.878 34.32H869.878ZM880.084 10.1225C886.886 4.35146 896.493 1.39999 909.037 1.39999V-0.600006C896.196 -0.600006 886.069 2.42187 878.791 8.59748L880.084 10.1225ZM909.037 1.39999C917.577 1.39999 924.961 2.71801 931.213 5.32307L931.982 3.47691C925.434 0.748638 917.778 -0.600006 909.037 -0.600006V1.39999ZM931.213 5.32307C937.49 7.93857 942.528 11.4799 946.359 15.9322L947.875 14.6278C943.813 9.90678 938.505 6.19476 931.982 3.47691L931.213 5.32307ZM946.372 14.6132L932.772 29.8132L934.263 31.1468L947.863 15.9468L946.372 14.6132ZM934.26 29.8097C931.18 26.4002 927.547 23.7575 923.366 21.8872L922.549 23.7128C926.475 25.4692 929.882 27.9464 932.775 31.1503L934.26 29.8097ZM923.386 21.8963C919.181 19.9045 914.445 18.92 909.198 18.92V20.92C914.19 20.92 918.628 21.8555 922.529 23.7037L923.386 21.8963ZM909.198 18.92C903.699 18.92 899.39 20.0456 896.443 22.4674C893.458 24.9201 892.037 28.5618 892.037 33.2H894.037C894.037 28.9849 895.31 25.9866 897.712 24.0126C900.152 22.0077 903.922 20.92 909.198 20.92V18.92ZM892.037 33.2C892.037 37.253 893.286 40.4551 895.924 42.614L897.191 41.066C895.136 39.3849 894.037 36.827 894.037 33.2H892.037ZM895.941 42.6275C898.588 44.6992 902.729 46.1752 908.224 47.1448L908.571 45.1752C903.186 44.2248 899.433 42.8208 897.174 41.0525L895.941 42.6275ZM908.222 47.1445L919.902 49.2245L920.253 47.2555L908.573 45.1755L908.222 47.1445ZM919.904 49.2248C928.818 50.798 935.587 54.135 940.308 59.1644L941.767 57.7956C936.675 52.3717 929.47 48.882 920.251 47.2552L919.904 49.2248ZM940.308 59.1644C945.002 64.1645 947.398 70.9382 947.398 79.6H949.398C949.398 70.5551 946.886 63.2488 941.767 57.7956L940.308 59.1644ZM947.398 79.6C947.398 84.7086 946.512 89.4334 944.751 93.7848L946.604 94.5352C948.47 89.9266 949.398 84.9447 949.398 79.6H947.398ZM944.754 93.777C942.999 98.0098 940.366 101.73 936.844 104.941L938.191 106.419C941.922 103.017 944.73 99.0569 946.601 94.543L944.754 93.777ZM936.856 104.93C933.343 108.03 928.984 110.476 923.756 112.253L924.399 114.147C929.838 112.298 934.438 109.73 938.179 106.43L936.856 104.93ZM923.75 112.255C918.653 114.024 912.635 114.92 905.677 114.92V116.92C912.8 116.92 919.049 116.003 924.405 114.145L923.75 112.255Z" fill="white"/>
</svg>
