<svg width="54" height="54" viewBox="0 0 54 54" fill="none" xmlns="http://www.w3.org/2000/svg">
<g filter="url(#filter0_d_418_3015)">
<path d="M8 27C8 16.5066 16.5066 8 27 8H46V46H27C16.5066 46 8 37.4934 8 27Z" fill="white"/>
</g>
<circle cx="27" cy="27" r="12" fill="#3CB27F"/>
<circle cx="27" cy="27" r="10" fill="#369B70"/>
<path d="M27.188 34.104C26.5672 34.104 26.0692 33.591 26.0875 32.9705L26.2984 25.8416C26.3127 25.3606 26.7067 24.978 27.188 24.978C27.6693 24.978 28.0633 25.3606 28.0776 25.8416L28.2885 32.9705C28.3068 33.591 27.8088 34.104 27.188 34.104ZM27.134 23.268C26.5077 23.268 26 22.7603 26 22.134C26 21.5077 26.5077 21 27.134 21L27.206 21C27.8323 21 28.34 21.5077 28.34 22.134C28.34 22.7603 27.8323 23.268 27.206 23.268H27.134Z" fill="white"/>
<defs>
<filter id="filter0_d_418_3015" x="0" y="0" width="54" height="54" filterUnits="userSpaceOnUse" color-interpolation-filters="sRGB">
<feFlood flood-opacity="0" result="BackgroundImageFix"/>
<feColorMatrix in="SourceAlpha" type="matrix" values="0 0 0 0 0 0 0 0 0 0 0 0 0 0 0 0 0 0 127 0" result="hardAlpha"/>
<feOffset/>
<feGaussianBlur stdDeviation="4"/>
<feComposite in2="hardAlpha" operator="out"/>
<feColorMatrix type="matrix" values="0 0 0 0 0 0 0 0 0 0 0 0 0 0 0 0 0 0 0.12 0"/>
<feBlend mode="normal" in2="BackgroundImageFix" result="effect1_dropShadow_418_3015"/>
<feBlend mode="normal" in="SourceGraphic" in2="effect1_dropShadow_418_3015" result="shape"/>
</filter>
</defs>
</svg>
