<svg width="115" height="71" viewBox="0 0 115 71" fill="none" xmlns="http://www.w3.org/2000/svg">
<path fill-rule="evenodd" clip-rule="evenodd" d="M42.0749 9.04088V7.66866e-07L24.6886 0V17.0386L7.99771 17.0386V34.4249H0V43.4658H7.99771V70.9362H17.0386V43.4658H24.6886V53.5498H33.7295V26.0795H41.7272V17.0386H33.7295V9.04088H42.0749ZM17.0386 26.0795H24.6886V34.4249H17.0386V26.0795Z" fill="#3CB27F"/>
<path d="M84.1497 14.6045H81.3679V37.2067H84.1497V14.6045Z" fill="white"/>
<path d="M77.5429 21.2115H74.7611V34.4249L66.4157 34.4249V21.2116H63.6339L63.6339 37.2067L77.5429 37.2069V21.2115Z" fill="white"/>
<path d="M108.838 14.6045H111.62V37.2067H108.838V14.6045Z" fill="white"/>
<path d="M61.1998 14.952V17.7338L54.9407 17.7338V21.9065L61.1998 21.9065V24.6883L54.9407 24.6883V37.2065H52.1589V24.6883H49.0294L49.0294 21.9065H52.1589V14.952H61.1998Z" fill="white"/>
<path d="M98.7542 17.7338V14.952L89.7134 14.952L89.7134 21.9065H86.5838V24.6883H89.7134V37.2065H92.4952V24.6883L98.7542 24.6883V21.9065L92.4952 21.9065V17.7338L98.7542 17.7338Z" fill="white"/>
<path d="M104.666 16.8645C104.666 17.9208 103.809 18.777 102.753 18.777C101.697 18.777 100.841 17.9208 100.841 16.8645C100.841 15.8083 101.697 14.952 102.753 14.952C103.809 14.952 104.666 15.8083 104.666 16.8645Z" fill="white"/>
<path d="M101.188 20.8635H103.97V37.2067H101.188V20.8635Z" fill="white"/>
<path d="M98.8303 40.684C99.4064 40.684 99.8735 40.217 99.8735 39.6408C99.8735 39.0647 99.4064 38.5977 98.8303 38.5977C98.2541 38.5977 97.7871 39.0647 97.7871 39.6408C97.7871 40.217 98.2541 40.684 98.8303 40.684Z" fill="white"/>
<path d="M99.5257 48.6817V41.7272H98.1348V48.6817H99.5257Z" fill="white"/>
<path fill-rule="evenodd" clip-rule="evenodd" d="M65.4418 42.7491V38.6508H66.6885V48.6817H65.4418V47.4494C64.8304 48.3951 63.9276 48.868 62.7335 48.868C61.7208 48.868 60.8658 48.505 60.1684 47.779C59.4615 47.0433 59.108 46.1501 59.108 45.0993C59.108 44.058 59.4615 43.1695 60.1684 42.4339C60.8754 41.6983 61.7304 41.3305 62.7335 41.3305C63.9276 41.3305 64.8304 41.8034 65.4418 42.7491ZM62.8911 47.6643C63.6172 47.6643 64.2238 47.4207 64.711 46.9335C65.1982 46.4271 65.4418 45.8157 65.4418 45.0993C65.4418 44.3732 65.1982 43.7666 64.711 43.2794C64.2238 42.7826 63.6172 42.5342 62.8911 42.5342C62.1746 42.5342 61.5728 42.7826 61.0855 43.2794C60.5983 43.7666 60.3547 44.3732 60.3547 45.0993C60.3547 45.8157 60.5983 46.4271 61.0855 46.9335C61.5728 47.4207 62.1746 47.6643 62.8911 47.6643Z" fill="white"/>
<path fill-rule="evenodd" clip-rule="evenodd" d="M58.0472 45.6724H52.0429C52.1671 46.3029 52.4585 46.7997 52.9171 47.1628C53.3756 47.5162 53.9488 47.693 54.6366 47.693C55.5824 47.693 56.2703 47.3443 56.7002 46.6469L57.7606 47.2487C57.0536 48.3283 56.0028 48.868 54.608 48.868C53.4807 48.868 52.554 48.5146 51.828 47.8076C51.121 47.0815 50.7676 46.1788 50.7676 45.0993C50.7676 44.0102 51.1163 43.1122 51.8137 42.4052C52.511 41.6887 53.4138 41.3305 54.522 41.3305C55.5729 41.3305 56.4279 41.7031 57.0871 42.4482C57.7558 43.1743 58.0902 44.0627 58.0902 45.1136C58.0902 45.2951 58.0758 45.4814 58.0472 45.6724ZM54.522 42.5055C53.8628 42.5055 53.3087 42.6918 52.8597 43.0644C52.4203 43.437 52.148 43.9433 52.0429 44.5834H56.8291C56.724 43.9242 56.4613 43.4131 56.041 43.0501C55.6206 42.687 55.1143 42.5055 54.522 42.5055Z" fill="white"/>
<path d="M79.1505 48.868C78.0709 48.868 77.1729 48.5098 76.4564 47.7933C75.7399 47.0672 75.3817 46.1692 75.3817 45.0992C75.3817 44.0293 75.7399 43.1361 76.4564 42.4195C77.1729 41.6935 78.0709 41.3305 79.1505 41.3305C79.8574 41.3305 80.4927 41.5024 81.0563 41.8463C81.62 42.1807 82.0403 42.6345 82.3174 43.2077L81.2713 43.8096C81.0898 43.4274 80.8079 43.1217 80.4258 42.8924C80.0532 42.6631 79.6281 42.5485 79.1505 42.5485C78.434 42.5485 77.8321 42.7921 77.3449 43.2794C76.8672 43.7761 76.6284 44.3828 76.6284 45.0992C76.6284 45.8062 76.8672 46.408 77.3449 46.9048C77.8321 47.392 78.434 47.6357 79.1505 47.6357C79.6281 47.6357 80.058 47.5258 80.4401 47.3061C80.8223 47.0768 81.1136 46.771 81.3143 46.3889L82.3747 47.0051C82.0594 47.5783 81.6152 48.0321 81.042 48.3665C80.4688 48.7008 79.8383 48.868 79.1505 48.868Z" fill="white"/>
<path fill-rule="evenodd" clip-rule="evenodd" d="M89.4402 42.7491V41.5168H90.6869V48.6817H89.4402V47.4494C88.8288 48.3951 87.926 48.868 86.7319 48.868C85.7192 48.868 84.8642 48.505 84.1668 47.7789C83.4599 47.0433 83.1064 46.1501 83.1064 45.0992C83.1064 44.0579 83.4599 43.1695 84.1668 42.4339C84.8738 41.6983 85.7288 41.3305 86.7319 41.3305C87.926 41.3305 88.8288 41.8034 89.4402 42.7491ZM86.8895 47.6643C87.6155 47.6643 88.2222 47.4207 88.7094 46.9335C89.1966 46.4271 89.4402 45.8157 89.4402 45.0992C89.4402 44.3732 89.1966 43.7666 88.7094 43.2794C88.2222 42.7826 87.6155 42.5342 86.8895 42.5342C86.173 42.5342 85.5711 42.7826 85.0839 43.2794C84.5967 43.7666 84.3531 44.3732 84.3531 45.0992C84.3531 45.8157 84.5967 46.4271 85.0839 46.9335C85.5711 47.4207 86.173 47.6643 86.8895 47.6643Z" fill="white"/>
<path fill-rule="evenodd" clip-rule="evenodd" d="M104.187 48.868C105.247 48.868 106.14 48.505 106.866 47.7789C107.602 47.0433 107.97 46.1501 107.97 45.0992C107.97 44.0484 107.602 43.1552 106.866 42.4195C106.14 41.6935 105.247 41.3305 104.187 41.3305C103.126 41.3305 102.233 41.6935 101.507 42.4195C100.781 43.1456 100.418 44.0388 100.418 45.0992C100.418 46.1596 100.781 47.0529 101.507 47.7789C102.233 48.505 103.126 48.868 104.187 48.868ZM105.992 46.9191C105.505 47.4064 104.903 47.65 104.187 47.65C103.48 47.65 102.883 47.4064 102.396 46.9191C101.908 46.4319 101.665 45.8253 101.665 45.0992C101.665 44.3732 101.908 43.7666 102.396 43.2794C102.883 42.7921 103.48 42.5485 104.187 42.5485C104.903 42.5485 105.505 42.7921 105.992 43.2794C106.48 43.7666 106.723 44.3732 106.723 45.0992C106.723 45.8253 106.48 46.4319 105.992 46.9191Z" fill="white"/>
<path d="M69.4852 41.7272H68.3362V48.6817H74.0812V41.7272H72.9322V47.5327H69.4852V41.7272Z" fill="white"/>
<path d="M93.0928 48.6817H97.0916V47.4647H94.3098V42.7704H97.0916V41.5533H94.3098V40.3363H93.0928V41.5533H91.8757V42.7704H93.0928V48.6817Z" fill="white"/>
<path d="M108.914 41.7272V49.0294H110.131V42.9442H113.783V49.0294H115V41.7272H108.914Z" fill="white"/>
</svg>
