<svg width="24" height="25" viewBox="0 0 24 25" fill="none" xmlns="http://www.w3.org/2000/svg">
<rect y="0.589264" width="24" height="24" rx="5" fill="#F7FFFB"/>
<path fill-rule="evenodd" clip-rule="evenodd" d="M19.75 12.5893C19.75 12.1751 19.4142 11.8393 19 11.8393H5C4.58579 11.8393 4.25 12.1751 4.25 12.5893C4.25 13.0035 4.58579 13.3393 5 13.3393H19C19.4142 13.3393 19.75 13.0035 19.75 12.5893Z" fill="#193C3F"/>
<path fill-rule="evenodd" clip-rule="evenodd" d="M19.75 7.58926C19.75 7.17505 19.4142 6.83926 19 6.83926H5C4.58579 6.83926 4.25 7.17505 4.25 7.58926C4.25 8.00347 4.58579 8.33926 5 8.33926H19C19.4142 8.33926 19.75 8.00347 19.75 7.58926Z" fill="#193C3F"/>
<path fill-rule="evenodd" clip-rule="evenodd" d="M19.75 17.5893C19.75 17.1751 19.4142 16.8393 19 16.8393H5C4.58579 16.8393 4.25 17.1751 4.25 17.5893C4.25 18.0035 4.58579 18.3393 5 18.3393H19C19.4142 18.3393 19.75 18.0035 19.75 17.5893Z" fill="#193C3F"/>
</svg>
