<svg width="129" height="116" viewBox="0 0 129 116" fill="none" xmlns="http://www.w3.org/2000/svg">
<path fill-rule="evenodd" clip-rule="evenodd" d="M86.8145 6.18725e-05C86.6954 0.00151488 86.575 0.0299147 86.4687 0.0922052C86.2566 0.21669 86.1229 0.445311 86.1229 0.691155V18.314C86.1229 18.4871 86.0423 18.6419 85.8924 18.7287C85.7422 18.8158 85.5589 18.8158 85.4083 18.7287L82.5268 17.0701C82.0975 16.8227 81.5731 16.8229 81.1437 17.0701L69.6406 23.7046C69.2106 23.9525 68.9491 24.4294 68.9491 24.9255V38.1945C68.9491 38.6901 69.2109 39.144 69.6406 39.3924L81.1437 46.0269C81.5737 46.2748 82.0967 46.2748 82.5268 46.0269L94.0299 39.3924C94.4595 39.144 94.7214 38.6901 94.7214 38.1945V5.11416C94.7214 4.61095 94.4466 4.1387 94.0068 3.89322L87.1603 0.0691738C87.0528 0.009243 86.9336 -0.00122184 86.8145 0.000106215V6.18725e-05ZM12.817 16.5632C12.5977 16.5721 12.3916 16.6104 12.1946 16.7245L0.691565 23.359C0.262943 23.6066 0 24.0576 0 24.5569L0.0230028 42.364C0.0230028 42.6117 0.15087 42.8417 0.368788 42.9631C0.582378 43.0908 0.847484 43.0908 1.06035 42.9631L7.8838 39.0468C8.31603 38.7902 8.59842 38.3438 8.59842 37.8489V29.5328C8.59842 29.0367 8.85953 28.5815 9.28998 28.3349L12.1946 26.6533C12.4113 26.528 12.6441 26.469 12.8861 26.469C13.1232 26.469 13.3669 26.5279 13.5777 26.6533L16.4823 28.3349C16.9127 28.5815 17.1738 29.0367 17.1738 29.5328V37.8489C17.1738 38.3438 17.459 38.7931 17.8884 39.0468L24.7119 42.9631C24.9262 43.0908 25.1909 43.0908 25.4035 42.9631C25.6153 42.8417 25.7492 42.6117 25.7492 42.364L25.7722 24.5569C25.7722 24.0576 25.5122 23.6066 25.0807 23.359L13.5777 16.7245C13.3831 16.6104 13.1761 16.5722 12.9553 16.5632H12.8169H12.817ZM116.183 16.7245C115.943 16.7242 115.707 16.785 115.491 16.9088L103.988 23.5433C103.559 23.7913 103.297 24.2452 103.297 24.7412V38.0102C103.297 38.5091 103.578 38.9615 104.011 39.2081L115.422 45.7044C115.844 45.9448 116.358 45.9628 116.782 45.7272L123.698 41.8801C123.917 41.7584 124.066 41.5313 124.067 41.2811C124.068 41.0309 123.938 40.8067 123.721 40.6822L112.149 34.0477C111.932 33.9242 111.78 33.674 111.78 33.4257V29.2791C111.78 29.0312 111.934 28.804 112.149 28.6802L115.745 26.6069C115.959 26.4832 116.222 26.4832 116.437 26.6069L120.033 28.6802C120.248 28.804 120.379 29.0312 120.379 29.2791V32.5504C120.379 32.7986 120.509 33.0255 120.724 33.1492C120.94 33.2734 121.201 33.2739 121.416 33.1492L128.308 29.141C128.736 28.8926 129 28.4376 129 27.9431V24.741C129 24.2464 128.737 23.7914 128.308 23.5431L116.875 16.9086C116.659 16.7839 116.423 16.7246 116.183 16.7243V16.7245ZM81.7891 26.6302C81.8491 26.6302 81.9197 26.6449 81.9736 26.6759L85.9155 28.9565C86.0224 29.0185 86.0999 29.1325 86.0999 29.256V33.8172C86.0999 33.941 86.0232 34.0551 85.9155 34.1167L81.9736 36.3973C81.8662 36.4585 81.7351 36.4585 81.6278 36.3973L77.6858 34.1167C77.5785 34.0548 77.5014 33.941 77.5014 33.8172V29.256C77.5014 29.1325 77.5789 29.0188 77.6858 28.9565L81.6278 26.6763C81.6816 26.6453 81.7292 26.6306 81.7891 26.6306V26.6302Z" fill="#404137"/>
<path fill-rule="evenodd" clip-rule="evenodd" d="M47.3723 16.6553C47.1326 16.6553 46.8954 16.7157 46.6807 16.8396L35.1777 23.4511C34.7476 23.6987 34.4861 24.1764 34.4861 24.672V37.9409C34.4861 38.4371 34.7479 38.8906 35.1777 39.1388L46.6807 45.7733C47.1108 46.0215 47.6338 46.0215 48.0638 45.7733L59.5669 39.1388C59.9962 38.8906 60.2584 38.4371 60.2584 37.9409V24.672C60.2584 24.1756 59.9969 23.6987 59.5669 23.4511L48.0638 16.8396C47.8492 16.7157 47.6119 16.6553 47.3723 16.6553ZM116.16 28.4962C116.114 28.4962 116.063 28.4962 116.022 28.5191L113.809 29.8091C113.726 29.8563 113.67 29.9441 113.67 30.0395V32.5735C113.67 32.6689 113.726 32.7563 113.809 32.8038L116.022 34.0708C116.105 34.1187 116.193 34.1187 116.275 34.0708L118.488 32.8038C118.57 32.7567 118.627 32.6689 118.627 32.5735V30.0395C118.627 29.9441 118.57 29.8566 118.488 29.8091L116.275 28.5191C116.234 28.4947 116.206 28.4962 116.16 28.4962Z" fill="#83CD29"/>
<path d="M54.484 58.3064C55.1479 57.9272 55.8982 57.7661 56.6701 57.7661C57.4419 57.7661 58.1977 57.9272 58.8562 58.3064L79.8696 70.553C81.2295 71.3465 82.0557 72.8366 82.0557 74.4251V98.8733C82.0557 100.461 81.2295 101.947 79.8696 102.745L58.8562 114.947C58.1852 115.339 57.4482 115.532 56.6701 115.532C55.9027 115.532 55.155 115.339 54.484 114.947L47.4349 110.76C46.3891 110.169 46.912 109.98 47.2564 109.859C48.6538 109.37 48.9339 109.271 50.4241 108.418C50.5793 108.331 50.7988 108.323 50.9594 108.418L56.3578 111.66C56.5541 111.768 56.8022 111.768 56.9824 111.66L77.9958 99.4586C78.192 99.3461 78.3081 99.1069 78.3081 98.8733V74.4251C78.3081 74.1859 78.1511 73.9609 77.9512 73.8398L56.9824 61.6382C56.7879 61.5244 56.5541 61.5244 56.3578 61.6382L35.389 73.8398C35.1856 73.9573 35.0321 74.193 35.0321 74.4251V98.8733C35.0321 99.1069 35.1874 99.3027 35.389 99.4136L41.0997 102.79C44.2191 104.364 46.1411 102.491 46.1411 100.629V76.4962C46.1411 76.155 46.4284 75.9108 46.7657 75.9108H49.398C49.7299 75.9108 50.0225 76.155 50.0225 76.4962V100.629C50.0225 104.831 47.7686 107.248 43.8211 107.248L43.7666 107.248C42.5777 107.248 41.5843 107.248 38.9582 105.942L33.4706 102.745C32.1108 101.953 31.2845 100.461 31.2845 98.8733V74.4251C31.2845 72.8366 32.1108 71.3431 33.4706 70.553L54.484 58.3064Z" fill="#83CD29"/>
<path d="M87.8556 59.0271V58.3968H92.0939V59.0271H90.3094V63.6645H89.5955V59.0271H87.8556Z" fill="#83CD29"/>
<path d="M92.7185 63.6645V58.3968L93.7448 58.3963L95.217 62.8538L96.7339 58.3963H97.7155V63.6641H97.0462V60.5575C97.0462 60.4486 97.0434 60.2636 97.0462 60.0172C97.0532 59.764 97.0908 59.4903 97.0908 59.2067L95.5738 63.6641H94.86L93.3878 59.2067V59.3422C93.3878 59.4724 93.3792 59.7054 93.3878 59.9727C93.3934 60.235 93.3878 60.4311 93.3878 60.5579V63.6645H92.7185Z" fill="#83CD29"/>
<path d="M52.744 82.0795C52.744 77.8057 56.3078 75.2358 62.2915 75.2358C69.0158 75.2358 72.3547 77.6122 72.7759 82.6649C72.792 82.8392 72.7116 82.9853 72.5974 83.115C72.4814 83.2365 72.319 83.3402 72.1513 83.3402H69.4298C69.1478 83.3402 68.9069 83.1207 68.8498 82.845C68.1967 79.9111 66.603 78.9728 62.2915 78.9728C57.4642 78.9728 56.9378 80.673 56.9378 81.9445C56.9378 83.4849 57.5588 83.9107 64.0761 84.781C70.5255 85.6415 73.6236 86.8695 73.6236 91.4446C73.6236 96.0595 69.7885 98.6935 63.1392 98.6935C53.954 98.6935 52.0302 94.473 52.0302 90.9042C52.0302 90.5651 52.3193 90.2739 52.6548 90.2739H55.3763C55.6797 90.2739 55.9081 90.5153 55.9563 90.8142C56.3649 93.6023 57.5856 95.0014 63.1392 95.0014C67.5596 95.0014 69.4298 93.992 69.4298 91.6247C69.4298 90.2598 68.8944 89.2418 62.0238 88.563C56.2811 87.9896 52.744 86.7158 52.744 82.0795Z" fill="#83CD29"/>
</svg>
