<svg width="54" height="54" viewBox="0 0 54 54" fill="none" xmlns="http://www.w3.org/2000/svg">
<g filter="url(#filter0_d_418_3573)">
<path d="M8 27C8 16.5066 16.5066 8 27 8H46V46H27C16.5066 46 8 37.4934 8 27Z" fill="white"/>
</g>
<path fill-rule="evenodd" clip-rule="evenodd" d="M32.4103 16C32.3878 16.0003 32.365 16.0057 32.3449 16.0174C32.3048 16.041 32.2796 16.0842 32.2796 16.1306V19.4618C32.2796 19.4946 32.2643 19.5238 32.236 19.5402C32.2076 19.5567 32.1729 19.5567 32.1445 19.5402L31.5998 19.2267C31.5186 19.1799 31.4195 19.18 31.3383 19.2267L29.164 20.4808C29.0827 20.5277 29.0332 20.6178 29.0332 20.7116V23.2198C29.0332 23.3135 29.0827 23.3993 29.164 23.4462L31.3383 24.7003C31.4196 24.7472 31.5185 24.7472 31.5998 24.7003L33.7742 23.4462C33.8554 23.3993 33.9049 23.3135 33.9049 23.2198V16.9667C33.9049 16.8716 33.853 16.7823 33.7698 16.7359L32.4756 16.0131C32.4553 16.0017 32.4328 15.9998 32.4103 16V16ZM18.4228 19.1309C18.3813 19.1326 18.3423 19.1398 18.3051 19.1614L16.1307 20.4155C16.0497 20.4623 16 20.5475 16 20.6419L16.0043 24.0079C16.0043 24.0548 16.0285 24.0982 16.0697 24.1212C16.1101 24.1453 16.1602 24.1453 16.2004 24.1212L17.4903 23.3809C17.572 23.3324 17.6253 23.248 17.6253 23.1545V21.5825C17.6253 21.4887 17.6747 21.4027 17.7561 21.3561L18.3051 21.0382C18.3461 21.0145 18.3901 21.0033 18.4358 21.0033C18.4806 21.0033 18.5267 21.0145 18.5665 21.0382L19.1156 21.3561C19.197 21.4027 19.2463 21.4887 19.2463 21.5825V23.1545C19.2463 23.248 19.3002 23.3329 19.3814 23.3809L20.6712 24.1212C20.7117 24.1453 20.7618 24.1453 20.8019 24.1212C20.842 24.0982 20.8673 24.0548 20.8673 24.0079L20.8716 20.6419C20.8716 20.5475 20.8225 20.4623 20.7409 20.4155L18.5665 19.1614C18.5298 19.1398 18.4906 19.1326 18.4489 19.1309H18.4227H18.4228ZM37.9617 19.1614C37.9163 19.1613 37.8718 19.1728 37.831 19.1962L35.6566 20.4503C35.5754 20.4972 35.5259 20.583 35.5259 20.6768V23.1849C35.5259 23.2793 35.579 23.3648 35.661 23.4114L37.8179 24.6394C37.8976 24.6848 37.9948 24.6882 38.075 24.6437L39.3823 23.9165C39.4237 23.8935 39.4518 23.8505 39.452 23.8032C39.4523 23.756 39.4276 23.7136 39.3866 23.69L37.1992 22.4359C37.1582 22.4126 37.1294 22.3653 37.1294 22.3184V21.5345C37.1294 21.4877 37.1585 21.4447 37.1992 21.4213L37.8789 21.0294C37.9194 21.006 37.969 21.006 38.0097 21.0294L38.6894 21.4213C38.73 21.4447 38.7548 21.4877 38.7548 21.5345V22.1529C38.7548 22.1998 38.7795 22.2427 38.8201 22.2661C38.8609 22.2896 38.9103 22.2897 38.9509 22.2661L40.2538 21.5084C40.3346 21.4615 40.3845 21.3755 40.3845 21.282V20.6767C40.3845 20.5832 40.3348 20.4972 40.2538 20.4503L38.0924 19.1962C38.0517 19.1726 38.0071 19.1614 37.9617 19.1613V19.1614ZM31.4604 21.0338C31.4717 21.0338 31.485 21.0366 31.4952 21.0425L32.2403 21.4736C32.2606 21.4853 32.2752 21.5068 32.2752 21.5302V22.3924C32.2752 22.4158 32.2607 22.4373 32.2403 22.449L31.4952 22.8801C31.4749 22.8916 31.4501 22.8916 31.4298 22.8801L30.6847 22.449C30.6644 22.4373 30.6499 22.4158 30.6499 22.3924V21.5302C30.6499 21.5068 30.6645 21.4853 30.6847 21.4736L31.4298 21.0425C31.44 21.0367 31.449 21.0339 31.4604 21.0339V21.0338Z" fill="#404137"/>
<path fill-rule="evenodd" clip-rule="evenodd" d="M24.9515 19.1483C24.9061 19.1483 24.8613 19.1597 24.8207 19.1831L22.6464 20.4329C22.5651 20.4797 22.5156 20.57 22.5156 20.6637V23.1719C22.5156 23.2657 22.5651 23.3514 22.6464 23.3983L24.8207 24.6524C24.902 24.6993 25.0009 24.6993 25.0822 24.6524L27.2566 23.3983C27.3377 23.3514 27.3873 23.2657 27.3873 23.1719V20.6637C27.3873 20.5698 27.3379 20.4797 27.2566 20.4329L25.0822 19.1831C25.0416 19.1597 24.9968 19.1483 24.9515 19.1483ZM37.9542 21.3866C37.9455 21.3866 37.9359 21.3866 37.928 21.3909L37.5097 21.6347C37.494 21.6436 37.4836 21.6602 37.4836 21.6783V22.1573C37.4836 22.1753 37.494 22.1918 37.5097 22.2008L37.928 22.4403C37.9437 22.4494 37.9605 22.4494 37.976 22.4403L38.3943 22.2008C38.4098 22.1919 38.4204 22.1753 38.4204 22.1573V21.6783C38.4204 21.6602 38.4098 21.6437 38.3943 21.6347L37.976 21.3909C37.9682 21.3863 37.9629 21.3866 37.9542 21.3866Z" fill="#83CD29"/>
<path d="M26.5329 27.1029C26.6428 27.0307 26.7671 27 26.8949 27C27.0227 27 27.1478 27.0307 27.2569 27.1029L30.7364 29.4349C30.9616 29.586 31.0984 29.8698 31.0984 30.1723V34.8278C31.0984 35.1301 30.9616 35.4131 30.7364 35.5651L27.2569 37.8886C27.1458 37.9632 27.0237 38 26.8949 38C26.7678 38 26.644 37.9632 26.5329 37.8886L25.3657 37.0912C25.1925 36.9787 25.2791 36.9428 25.3361 36.9197C25.5675 36.8266 25.6139 36.8077 25.8606 36.6454C25.8864 36.6287 25.9227 36.6273 25.9493 36.6454L26.8432 37.2627C26.8757 37.2833 26.9168 37.2833 26.9466 37.2627L30.4261 34.9392C30.4586 34.9178 30.4778 34.8722 30.4778 34.8278V30.1723C30.4778 30.1267 30.4518 30.0839 30.4187 30.0608L26.9466 27.7373C26.9144 27.7157 26.8757 27.7157 26.8432 27.7373L23.3711 30.0608C23.3374 30.0832 23.312 30.1281 23.312 30.1723V34.8278C23.312 34.8722 23.3377 34.9095 23.3711 34.9307L24.3167 35.5737C24.8332 35.8733 25.1514 35.5167 25.1514 35.1621V30.5666C25.1514 30.5017 25.199 30.4552 25.2549 30.4552H25.6907C25.7457 30.4552 25.7942 30.5017 25.7942 30.5666V35.1621C25.7942 35.9622 25.4209 36.4224 24.7673 36.4224L24.7583 36.4224C24.5614 36.4225 24.3969 36.4225 23.9621 36.1738L23.0534 35.5651C22.8282 35.4142 22.6914 35.1301 22.6914 34.8278V30.1723C22.6914 29.8698 22.8282 29.5854 23.0534 29.4349L26.5329 27.1029Z" fill="#83CD29"/>
<path d="M32.0588 27.2401V27.1201H32.7606V27.2401H32.4651V28.1232H32.3469V27.2401H32.0588Z" fill="#83CD29"/>
<path d="M32.864 28.1232V27.1201L33.0339 27.12L33.2777 27.9688L33.5289 27.12H33.6914V28.1231H33.5806V27.5315C33.5806 27.5108 33.5801 27.4756 33.5806 27.4287C33.5817 27.3805 33.588 27.3283 33.588 27.2743L33.3368 28.1231H33.2186L32.9748 27.2743V27.3001C32.9748 27.3249 32.9734 27.3693 32.9748 27.4202C32.9757 27.4701 32.9748 27.5075 32.9748 27.5316V28.1232H32.864Z" fill="#83CD29"/>
<path d="M26.2448 31.6298C26.2448 30.816 26.8349 30.3266 27.8257 30.3266C28.9392 30.3266 29.492 30.7792 29.5618 31.7413C29.5644 31.7745 29.5511 31.8023 29.5322 31.827C29.513 31.8501 29.4861 31.8699 29.4584 31.8699H29.0077C28.961 31.8699 28.9211 31.8281 28.9117 31.7756C28.8035 31.2169 28.5396 31.0382 27.8257 31.0382C27.0264 31.0382 26.9392 31.362 26.9392 31.6041C26.9392 31.8974 27.042 31.9785 28.1212 32.1443C29.1892 32.3081 29.7021 32.542 29.7021 33.4132C29.7021 34.292 29.0671 34.7935 27.9661 34.7935C26.4451 34.7935 26.1266 33.9899 26.1266 33.3103C26.1266 33.2457 26.1745 33.1902 26.23 33.1902H26.6807C26.7309 33.1902 26.7687 33.2362 26.7767 33.2931C26.8444 33.824 27.0465 34.0905 27.9661 34.0905C28.698 34.0905 29.0077 33.8982 29.0077 33.4475C29.0077 33.1876 28.9191 32.9937 27.7814 32.8644C26.8305 32.7553 26.2448 32.5127 26.2448 31.6298Z" fill="#83CD29"/>
<defs>
<filter id="filter0_d_418_3573" x="0" y="0" width="54" height="54" filterUnits="userSpaceOnUse" color-interpolation-filters="sRGB">
<feFlood flood-opacity="0" result="BackgroundImageFix"/>
<feColorMatrix in="SourceAlpha" type="matrix" values="0 0 0 0 0 0 0 0 0 0 0 0 0 0 0 0 0 0 127 0" result="hardAlpha"/>
<feOffset/>
<feGaussianBlur stdDeviation="4"/>
<feComposite in2="hardAlpha" operator="out"/>
<feColorMatrix type="matrix" values="0 0 0 0 0 0 0 0 0 0 0 0 0 0 0 0 0 0 0.12 0"/>
<feBlend mode="normal" in2="BackgroundImageFix" result="effect1_dropShadow_418_3573"/>
<feBlend mode="normal" in="SourceGraphic" in2="effect1_dropShadow_418_3573" result="shape"/>
</filter>
</defs>
</svg>
