<svg width="54" height="54" viewBox="0 0 54 54" fill="none" xmlns="http://www.w3.org/2000/svg">
<g filter="url(#filter0_d_418_3000)">
<rect x="8" y="8" width="38" height="38" rx="4" fill="white"/>
</g>
<path d="M40.4433 29.7962C40.2876 29.2234 40.045 28.6108 39.7269 27.9753C39.7276 27.9739 39.7282 27.9726 39.7289 27.9705C39.8522 27.7172 39.9587 27.4435 40.0207 27.1436C40.0827 26.8451 40.0962 26.5149 40.0254 26.1887C39.9917 26.0256 39.9338 25.8672 39.8623 25.717C39.8462 25.6779 39.8239 25.6435 39.8037 25.6078L39.741 25.5006L39.7255 25.4744L39.7107 25.4521L39.6804 25.4083L39.6197 25.32C39.4546 25.0889 39.2787 24.8665 39.0887 24.6603C38.3319 23.83 37.4396 23.1466 36.4941 22.5287C35.7616 22.0522 34.9906 21.6216 34.1907 21.2287C30.3594 17.9784 25.5012 15.8057 21.5884 17.5167C20.6092 17.9447 19.7904 18.6179 19.1118 19.4623C18.3799 19.7683 17.6945 20.1659 17.0934 20.6552C16.6728 20.9955 16.2941 21.3891 15.9801 21.819C15.6674 22.2503 15.418 22.7167 15.2307 23.1945C15.0426 23.673 14.9159 24.1622 14.8371 24.6468C14.7576 25.132 14.7259 25.6125 14.7266 26.0816C14.7279 26.5513 14.7616 27.0095 14.8182 27.4543C14.8742 27.8998 14.955 28.3318 15.0521 28.7496C15.1491 29.1674 15.2596 29.5724 15.383 29.9626C15.507 30.3528 15.6418 30.7296 15.7826 31.0935C16.0266 31.7142 16.2914 32.2951 16.567 32.8376C16.9249 35.3257 17.6723 37.1796 18.5787 37.458C18.8799 37.5503 19.3867 37.5981 20.0478 37.6028C20.5324 38.0645 21.4004 38.7067 22.8446 38.487C23.0609 38.4648 23.3197 38.423 23.6142 38.3522C23.941 38.2741 24.311 38.1615 24.7194 38.0166C25.1278 37.8724 25.5739 37.6931 26.0558 37.4849C26.5356 37.2787 27.0498 37.0428 27.597 36.7813C29.7603 36.3837 32.0166 35.8466 34.0269 35.1815C38.0252 33.8606 41.0518 32.0349 40.4433 29.7962ZM16.3662 30.6709C16.2638 30.3731 16.1654 30.0678 16.0744 29.7544C15.9666 29.377 15.8702 28.9888 15.788 28.5899C15.7051 28.1909 15.6384 27.7818 15.5953 27.3633C15.5514 26.9455 15.5285 26.5189 15.5359 26.0876C15.5508 25.227 15.6876 24.3408 16.0272 23.5146C16.1964 23.1022 16.4161 22.7059 16.6877 22.342C16.9613 21.9781 17.2861 21.6492 17.6561 21.3574C17.799 21.2442 17.9472 21.1363 18.1002 21.0339C16.6789 23.7774 16.2193 27.4752 16.3662 30.6709ZM24.5806 37.6642C24.5469 37.679 24.5139 37.6925 24.4809 37.7066C24.0138 37.9 22.013 38.6501 20.8417 37.8219C20.7575 37.7538 20.6705 37.679 20.5809 37.5988C21.7791 37.5718 23.3547 37.4323 25.0968 37.1877C25.3374 37.154 25.5807 37.1183 25.8273 37.0806C25.3765 37.3036 24.96 37.4997 24.5806 37.6642ZM39.1399 26.9138C38.5832 25.9933 37.8905 25.0457 37.0952 24.1178C37.1539 24.1629 37.2132 24.2074 37.2705 24.2525C37.4726 24.4163 37.6735 24.5814 37.8608 24.7553C38.0509 24.9271 38.2301 25.1057 38.3999 25.2884C38.5711 25.4703 38.7241 25.6617 38.8663 25.8551L38.9182 25.9286L38.9438 25.965L38.9566 25.9832C38.9606 25.9892 38.9627 25.9939 38.966 25.9993L39.0024 26.0613C39.0146 26.0822 39.0294 26.1018 39.0375 26.124C39.0779 26.2089 39.1123 26.2952 39.1311 26.3862C39.1682 26.5519 39.1696 26.7299 39.1399 26.9138Z" fill="#E1F5ED"/>
<path d="M19.4607 16.9412C19.7182 17.3867 19.3158 18.1003 18.5631 18.535C17.8103 18.9697 16.9915 18.9609 16.7341 18.5155C16.4766 18.07 16.879 17.3563 17.6317 16.9217C18.3845 16.487 19.2033 16.4958 19.4607 16.9412Z" fill="#D2F5FC"/>
<path d="M26.1715 15.9849C26.1284 16.2767 25.693 16.4533 25.2004 16.3805C24.7071 16.3071 24.3432 16.0112 24.3863 15.7194C24.4294 15.4276 24.8648 15.251 25.3574 15.3238C25.8507 15.3973 26.2153 15.6931 26.1715 15.9849Z" fill="#D2F5FC"/>
<path d="M30.1161 37.8347C30.2367 38.2249 29.7993 38.706 29.1396 38.9096C28.4798 39.1131 27.8477 38.9615 27.727 38.5713C27.6064 38.1811 28.0438 37.6999 28.7035 37.4964C29.3633 37.2935 29.9954 37.4445 30.1161 37.8347Z" fill="#D2F5FC"/>
<path d="M32.4262 36.8602C32.4984 37.0934 32.2369 37.3804 31.8433 37.5018C31.4497 37.6231 31.0717 37.5328 31.0002 37.2996C30.9281 37.0664 31.1896 36.7793 31.5832 36.658C31.9767 36.5367 32.3541 36.627 32.4262 36.8602Z" fill="#D2F5FC"/>
<path d="M38.3762 16.8044H37.8593C37.8222 16.6872 37.7757 16.5746 37.7191 16.4668L38.085 16.1009C38.176 16.0099 38.176 15.8623 38.085 15.772L37.521 15.2079C37.43 15.1169 37.2831 15.1169 37.1921 15.2079L36.8262 15.5739C36.719 15.5179 36.6058 15.4707 36.4885 15.4337V14.9168C36.4885 14.7881 36.3848 14.6843 36.256 14.6843H35.4581C35.3294 14.6843 35.2256 14.7881 35.2256 14.9168V15.4337C35.1084 15.4707 34.9951 15.5179 34.888 15.5739L34.522 15.2079C34.4311 15.1169 34.2841 15.1169 34.1932 15.2079L33.6291 15.772C33.5381 15.863 33.5381 16.0099 33.6291 16.1009L33.995 16.4668C33.9391 16.5739 33.8919 16.6865 33.8549 16.8044H33.338C33.2093 16.8044 33.1055 16.9089 33.1055 17.0369V17.8348C33.1055 17.9636 33.2093 18.0673 33.338 18.0673H33.8549C33.8919 18.1846 33.9391 18.2978 33.995 18.405L33.6291 18.7709C33.5381 18.8619 33.5381 19.0088 33.6291 19.0998L34.1932 19.6639C34.2841 19.7548 34.4311 19.7548 34.522 19.6639L34.888 19.2979C34.9951 19.3539 35.1084 19.401 35.2256 19.4381V19.955C35.2256 20.0837 35.3294 20.1875 35.4581 20.1875H36.256C36.3848 20.1875 36.4885 20.0837 36.4885 19.955V19.4381C36.6058 19.401 36.719 19.3539 36.8262 19.2979L37.1921 19.6639C37.2831 19.7548 37.43 19.7548 37.521 19.6639L38.085 19.0998C38.176 19.0088 38.176 18.8612 38.085 18.7709L37.7191 18.405C37.775 18.2978 37.8222 18.1846 37.8593 18.0673H38.3762C38.5049 18.0673 38.6087 17.9636 38.6087 17.8348V17.0369C38.6087 16.9082 38.5049 16.8044 38.3762 16.8044ZM35.8571 18.4757C35.2829 18.4757 34.8172 18.0101 34.8172 17.4359C34.8172 16.8617 35.2829 16.396 35.8571 16.396C36.4313 16.396 36.8969 16.8617 36.8969 17.4359C36.8976 18.0101 36.4319 18.4757 35.8571 18.4757Z" fill="#348B65"/>
<path d="M35.8508 19.2548C34.8474 19.2548 34.0312 18.4387 34.0312 17.4352C34.0312 16.4318 34.8474 15.6156 35.8508 15.6156C36.8543 15.6156 37.6704 16.4318 37.6704 17.4352C37.6704 18.4387 36.8543 19.2548 35.8508 19.2548ZM35.8508 15.7949C34.9464 15.7949 34.2098 16.5308 34.2098 17.4359C34.2098 18.3403 34.9458 19.0769 35.8508 19.0769C36.7559 19.0769 37.4918 18.341 37.4918 17.4359C37.4918 16.5308 36.7559 15.7949 35.8508 15.7949Z" fill="white"/>
<path d="M32.0883 17.0753H31.7257C31.7001 16.9931 31.6671 16.9142 31.628 16.8388L31.8841 16.5827C31.9474 16.5187 31.9474 16.4155 31.8841 16.3522L31.4885 15.9573C31.4251 15.8933 31.322 15.8933 31.258 15.9573L31.0019 16.2134C30.9264 16.1743 30.8476 16.1413 30.7654 16.115V15.7524C30.7654 15.6621 30.6926 15.5893 30.6023 15.5893H30.0436C29.9533 15.5893 29.8805 15.6621 29.8805 15.7524V16.115C29.7983 16.1406 29.7195 16.1736 29.644 16.2134L29.3879 15.9573C29.3245 15.8933 29.2214 15.8933 29.1574 15.9573L28.7618 16.3522C28.6985 16.4155 28.6985 16.5187 28.7618 16.5827L29.0179 16.8388C28.9788 16.9142 28.9458 16.9931 28.9202 17.0753H28.5576C28.4673 17.0753 28.3945 17.1481 28.3945 17.2384V17.7971C28.3945 17.8874 28.4673 17.9602 28.5576 17.9602H28.9202C28.9458 18.0424 28.9788 18.1212 29.0179 18.1967L28.7618 18.4528C28.6985 18.5161 28.6985 18.6193 28.7618 18.6833L29.1574 19.0782C29.2208 19.1415 29.3239 19.1415 29.3879 19.0782L29.644 18.8221C29.7195 18.8612 29.7983 18.8942 29.8805 18.9198V19.2817C29.8805 19.372 29.9533 19.4448 30.0436 19.4448H30.6023C30.6926 19.4448 30.7654 19.372 30.7654 19.2817V18.9198C30.8476 18.8942 30.9264 18.8612 31.0019 18.8221L31.258 19.0782C31.3214 19.1415 31.4245 19.1415 31.4885 19.0782L31.8841 18.6833C31.9474 18.6193 31.9474 18.5161 31.8841 18.4528L31.628 18.1967C31.6671 18.1212 31.7001 18.0424 31.7257 17.9602H32.0883C32.1786 17.9602 32.2514 17.8874 32.2514 17.7971V17.2384C32.2514 17.1488 32.1786 17.0753 32.0883 17.0753ZM30.324 18.2466C29.9216 18.2466 29.5955 17.9204 29.5955 17.5181C29.5955 17.1157 29.9216 16.7896 30.324 16.7896C30.7263 16.7896 31.0525 17.1157 31.0525 17.5181C31.0525 17.9204 30.7263 18.2466 30.324 18.2466Z" fill="#0052FF"/>
<path d="M30.3252 18.7925C29.6223 18.7925 29.0508 18.221 29.0508 17.5181C29.0508 16.8152 29.6223 16.2437 30.3252 16.2437C31.0281 16.2437 31.5995 16.8152 31.5995 17.5181C31.5995 18.221 31.0281 18.7925 30.3252 18.7925ZM30.3252 16.3684C29.6917 16.3684 29.1761 16.8839 29.1761 17.5174C29.1761 18.1509 29.6917 18.6664 30.3252 18.6664C30.9586 18.6664 31.4742 18.1509 31.4742 17.5174C31.4742 16.8839 30.9586 16.3684 30.3252 16.3684Z" fill="white"/>
<path d="M38.1792 35.4901H37.6724C37.636 35.3749 37.5902 35.265 37.5356 35.1599L37.8941 34.8014C37.9831 34.7124 37.9831 34.5682 37.8941 34.4793L37.3415 33.9266C37.2525 33.8377 37.1083 33.8377 37.0194 33.9266L36.6608 34.2852C36.5557 34.2299 36.4452 34.1841 36.33 34.1477V33.6409C36.33 33.5149 36.2282 33.4131 36.1022 33.4131H35.3204C35.1944 33.4131 35.0926 33.5149 35.0926 33.6409V34.1477C34.9774 34.1841 34.8669 34.2299 34.7617 34.2852L34.4032 33.9266C34.3143 33.8377 34.17 33.8377 34.0811 33.9266L33.5285 34.4793C33.4395 34.5682 33.4395 34.7124 33.5285 34.8014L33.887 35.1599C33.8317 35.265 33.7859 35.3756 33.7502 35.4901H33.2434C33.1174 35.4901 33.0156 35.5926 33.0156 35.7179V36.4997C33.0156 36.6257 33.1174 36.7274 33.2434 36.7274H33.7502C33.7866 36.8427 33.8324 36.9532 33.887 37.0583L33.5285 37.4169C33.4395 37.5058 33.4395 37.65 33.5285 37.739L34.0811 38.2916C34.17 38.3806 34.3143 38.3806 34.4032 38.2916L34.7617 37.9331C34.8669 37.9877 34.9774 38.0342 35.0926 38.0699V38.5767C35.0926 38.7027 35.1944 38.8045 35.3204 38.8045H36.1022C36.2282 38.8045 36.33 38.7027 36.33 38.5767V38.0699C36.4452 38.0335 36.5557 37.9877 36.6608 37.9331L37.0194 38.2916C37.1083 38.3806 37.2525 38.3806 37.3415 38.2916L37.8941 37.739C37.9831 37.65 37.9831 37.5058 37.8941 37.4169L37.5356 37.0583C37.5902 36.9532 37.6367 36.8427 37.6724 36.7274H38.1792C38.3052 36.7274 38.407 36.6257 38.407 36.4997V35.7179C38.407 35.5926 38.3052 35.4901 38.1792 35.4901ZM35.7106 37.1278C35.1479 37.1278 34.6917 36.6715 34.6917 36.1088C34.6917 35.5461 35.1479 35.0898 35.7106 35.0898C36.2733 35.0898 36.7296 35.5461 36.7296 36.1088C36.7296 36.6715 36.2733 37.1278 35.7106 37.1278Z" fill="#348B65"/>
<path d="M35.7161 37.8913C34.7329 37.8913 33.9336 37.0914 33.9336 36.1088C33.9336 35.1255 34.7335 34.3263 35.7161 34.3263C36.6987 34.3263 37.4986 35.1262 37.4986 36.1088C37.4986 37.092 36.6994 37.8913 35.7161 37.8913ZM35.7161 34.5015C34.8299 34.5015 34.1088 35.2226 34.1088 36.1088C34.1088 36.995 34.8299 37.7161 35.7161 37.7161C36.6023 37.7161 37.3234 36.995 37.3234 36.1088C37.3241 35.2226 36.603 34.5015 35.7161 34.5015Z" fill="white"/>
<path d="M19.2124 18.934H18.7959C18.7663 18.8396 18.7285 18.7487 18.6834 18.6624L18.9779 18.3679C19.0507 18.2944 19.0507 18.1758 18.9779 18.103L18.5237 17.6488C18.4509 17.5754 18.3323 17.5754 18.2588 17.6488L17.9643 17.9433C17.8781 17.8982 17.7871 17.8604 17.6927 17.8301V17.4136C17.6927 17.3098 17.6092 17.2263 17.5054 17.2263H16.8631C16.7593 17.2263 16.6758 17.3098 16.6758 17.4136V17.8301C16.5814 17.8598 16.4905 17.8975 16.4042 17.9433L16.1097 17.6488C16.0369 17.5754 15.9183 17.5754 15.8448 17.6488L15.3906 18.103C15.3178 18.1758 15.3178 18.2944 15.3906 18.3679L15.6851 18.6624C15.64 18.7487 15.6022 18.8396 15.5726 18.934H15.1561C15.0523 18.934 14.9688 19.0182 14.9688 19.1213V19.7636C14.9688 19.8674 15.0523 19.9509 15.1561 19.9509H15.5726C15.6022 20.0453 15.64 20.1362 15.6851 20.2225L15.3906 20.517C15.3178 20.5898 15.3178 20.7084 15.3906 20.7819L15.8448 21.2361C15.9176 21.3089 16.0362 21.3089 16.1097 21.2361L16.4042 20.9416C16.4905 20.9867 16.5814 21.0245 16.6758 21.0541V21.4706C16.6758 21.5744 16.7593 21.658 16.8631 21.658H17.5054C17.6092 21.658 17.6927 21.5744 17.6927 21.4706V21.0541C17.7871 21.0245 17.8781 20.9867 17.9643 20.9416L18.2588 21.2361C18.3316 21.3089 18.4502 21.3089 18.5237 21.2361L18.9779 20.7819C19.0507 20.7084 19.0507 20.5898 18.9779 20.517L18.6834 20.2225C18.7285 20.1362 18.7663 20.0453 18.7959 19.9509H19.2124C19.3162 19.9509 19.3998 19.8674 19.3998 19.7636V19.1213C19.3998 19.0182 19.3162 18.934 19.2124 18.934ZM17.1839 20.2798C16.7216 20.2798 16.3462 19.9051 16.3462 19.4421C16.3462 18.9798 16.7209 18.6044 17.1839 18.6044C17.6462 18.6044 18.0216 18.9791 18.0216 19.4421C18.0216 19.9051 17.6462 20.2798 17.1839 20.2798Z" fill="#008489"/>
<path d="M17.1878 20.9079C16.3797 20.9079 15.7227 20.2508 15.7227 19.4428C15.7227 18.6348 16.3797 17.9777 17.1878 17.9777C17.9958 17.9777 18.6528 18.6348 18.6528 19.4428C18.6528 20.2501 17.9958 20.9079 17.1878 20.9079ZM17.1878 18.1212C16.4592 18.1212 15.8662 18.7136 15.8662 19.4428C15.8662 20.1713 16.4586 20.7637 17.1878 20.7637C17.9163 20.7637 18.5093 20.1713 18.5093 19.4428C18.5086 18.7136 17.9163 18.1212 17.1878 18.1212Z" fill="white"/>
<path d="M21.9374 19.8229C21.4313 19.8229 21.0195 19.4111 21.0195 18.905V18.4824H21.3214V18.905C21.3214 19.2446 21.5978 19.5209 21.9374 19.5209C22.2771 19.5209 22.5534 19.2446 22.5534 18.905V17.5706C22.5534 17.0645 22.9651 16.6528 23.4712 16.6528H23.8082C24.3143 16.6528 24.7261 17.0645 24.7261 17.5706V20.9712H24.4242V17.5706C24.4242 17.231 24.1479 16.9547 23.8082 16.9547H23.4712C23.1316 16.9547 22.8553 17.231 22.8553 17.5706V18.9057C22.856 19.4111 22.4435 19.8229 21.9374 19.8229Z" fill="white"/>
<path d="M22.6389 15.4714C22.6389 14.6243 21.9225 13.9443 21.0626 14.0036C20.3422 14.0535 19.7565 14.6337 19.6999 15.3535C19.673 15.6985 19.7653 16.02 19.9392 16.2828C20.2357 16.7303 20.3934 17.2546 20.3934 17.791H21.9394C21.9394 17.2586 22.0896 16.7336 22.3875 16.2922C22.5466 16.0577 22.6389 15.7753 22.6389 15.4714Z" fill="#3CB27F"/>
<path d="M21.3261 15.4869V15.8656H21.2729H21.0606H21.0073V15.4869H20.4844V16.0024H20.8712V17.9804H21.0073V16.0024H21.0606H21.2729H21.3261V17.9804H21.4622V16.0024H21.8491V15.4869H21.3261ZM20.8712 15.8663H20.6212V15.6237H20.8712V15.8663ZM21.7129 15.8663H21.4629V15.6237H21.7129V15.8663Z" fill="white"/>
<path d="M21.5325 18.5263H20.8047V18.8747H21.5325V18.5263Z" fill="#004D47"/>
<path d="M21.6197 18.686H20.716C20.5387 18.686 20.3945 18.5424 20.3945 18.3645V17.791H21.9405V18.3645C21.9412 18.5418 21.7976 18.686 21.6197 18.686Z" fill="#008489"/>
<path d="M36.0644 23.0692L33.9921 23.4492L34.447 23.983L33.0689 25.1556L31.4663 23.3664L28.7383 25.6691L29.1925 26.2069L31.3982 24.3456L33.0022 26.1368L34.9033 24.5194L35.3575 25.0532L36.0644 23.0692Z" fill="#3CB27F"/>
<path d="M34.98 21.17L33.3296 21.4726L33.6915 21.8979L32.5943 22.8319L31.3179 21.4066L29.1445 23.2403L29.5064 23.6689L31.2633 22.1863L32.5411 23.613L34.0554 22.3251L34.4173 22.7504L34.98 21.17Z" fill="#0052FF"/>
<path d="M39.3775 24.2613C39.294 24.2613 39.2266 24.3287 39.2266 24.4122V24.5632C39.2266 24.6468 39.294 24.7142 39.3775 24.7142C39.4611 24.7142 39.5285 24.6468 39.5285 24.5632V24.4122C39.5285 24.3287 39.4611 24.2613 39.3775 24.2613Z" fill="white"/>
<path d="M39.3775 27.9692C39.294 27.9692 39.2266 28.0366 39.2266 28.1201V28.4436C39.2266 28.5272 39.294 28.5946 39.3775 28.5946C39.4611 28.5946 39.5285 28.5272 39.5285 28.4436V28.1201C39.5285 28.0372 39.4611 27.9692 39.3775 27.9692Z" fill="white"/>
<path d="M39.3775 25.382C39.294 25.382 39.2266 25.4494 39.2266 25.533V25.8565C39.2266 25.94 39.294 26.0074 39.3775 26.0074C39.4611 26.0074 39.5285 25.94 39.5285 25.8565V25.533C39.5285 25.4501 39.4611 25.382 39.3775 25.382Z" fill="white"/>
<path d="M39.3775 26.6759C39.294 26.6759 39.2266 26.7433 39.2266 26.8269V27.1504C39.2266 27.2339 39.294 27.3013 39.3775 27.3013C39.4611 27.3013 39.5285 27.2339 39.5285 27.1504V26.8269C39.5285 26.7433 39.4611 26.6759 39.3775 26.6759Z" fill="white"/>
<path d="M39.3761 29.2631C39.2926 29.2631 39.2252 29.3305 39.2252 29.4141C39.1416 29.4141 39.0742 29.4815 39.0742 29.565C39.0742 29.6486 39.1416 29.716 39.2252 29.716H39.5271V29.4141C39.5271 29.3305 39.4597 29.2631 39.3761 29.2631Z" fill="white"/>
<path d="M35.2004 29.4141H34.9322C34.8486 29.4141 34.7812 29.4815 34.7812 29.565C34.7812 29.6486 34.8486 29.716 34.9322 29.716H35.2004C35.284 29.716 35.3514 29.6486 35.3514 29.565C35.3514 29.4815 35.284 29.4141 35.2004 29.4141Z" fill="white"/>
<path d="M36.2707 29.4141H36.0025C35.919 29.4141 35.8516 29.4815 35.8516 29.565C35.8516 29.6486 35.919 29.716 36.0025 29.716H36.2707C36.3543 29.716 36.4217 29.6486 36.4217 29.565C36.421 29.4815 36.3536 29.4141 36.2707 29.4141Z" fill="white"/>
<path d="M37.345 29.4141H37.0767C36.9932 29.4141 36.9258 29.4815 36.9258 29.565C36.9258 29.6486 36.9932 29.716 37.0767 29.716H37.345C37.4285 29.716 37.4959 29.6486 37.4959 29.565C37.4959 29.4815 37.4285 29.4141 37.345 29.4141Z" fill="white"/>
<path d="M38.4192 29.4141H38.151C38.0674 29.4141 38 29.4815 38 29.565C38 29.6486 38.0674 29.716 38.151 29.716H38.4192C38.5027 29.716 38.5701 29.6486 38.5701 29.565C38.5701 29.4815 38.5027 29.4141 38.4192 29.4141Z" fill="white"/>
<path d="M34.1261 29.4141H33.9752C33.8916 29.4141 33.8242 29.4815 33.8242 29.565C33.8242 29.6486 33.8916 29.716 33.9752 29.716H34.1261C34.2097 29.716 34.2771 29.6486 34.2771 29.565C34.2771 29.4815 34.209 29.4141 34.1261 29.4141Z" fill="white"/>
<path d="M19.1563 25.1886L12.5352 27.1859L13.9596 31.9081L20.5808 29.9109L19.1563 25.1886Z" fill="#348B65"/>
<path d="M18.9816 26.1349L13.1992 27.8792L14.2732 31.4394L20.0555 29.6952L18.9816 26.1349Z" fill="white"/>
<path d="M17.6774 26.1732C17.703 26.2568 17.6551 26.3457 17.5716 26.3707C17.488 26.3963 17.399 26.3484 17.3741 26.2649C17.3485 26.1813 17.3963 26.0923 17.4799 26.0674C17.5635 26.0418 17.6518 26.089 17.6774 26.1732Z" fill="white"/>
<path d="M18.2789 25.9906C18.3045 26.0741 18.2567 26.1631 18.1731 26.188C18.0896 26.2136 18.0006 26.1658 17.9757 26.0822C17.9501 25.9987 17.9979 25.9097 18.0815 25.8848C18.165 25.8598 18.254 25.907 18.2789 25.9906Z" fill="white"/>
<path d="M18.8844 25.8086C18.91 25.8922 18.8622 25.9811 18.7786 26.0061C18.695 26.0317 18.6061 25.9838 18.5811 25.9003C18.5555 25.8167 18.6034 25.7278 18.6869 25.7028C18.7705 25.6772 18.8588 25.7251 18.8844 25.8086Z" fill="white"/>
<path d="M15.2843 29.3634L14.6094 29.567L14.9828 30.8045L15.6577 30.6009L15.2843 29.3634Z" fill="#3CB27F"/>
<path d="M16.2765 28.4709L15.6016 28.6746L16.1391 30.456L16.814 30.2523L16.2765 28.4709Z" fill="#3CB27F"/>
<path d="M17.5968 28.6744L16.9219 28.878L17.2924 30.1064L17.9673 29.9029L17.5968 28.6744Z" fill="#3CB27F"/>
<path d="M18.2843 26.7686L17.6094 26.9722L18.4498 29.7582L19.1247 29.5546L18.2843 26.7686Z" fill="#3CB27F"/>
<path d="M13.9347 28.1013C13.9556 28.17 13.9165 28.2428 13.8477 28.2637C13.779 28.2846 13.7062 28.2455 13.6853 28.1768C13.6644 28.108 13.7035 28.0352 13.7723 28.0144C13.8417 27.9935 13.9144 28.0326 13.9347 28.1013Z" fill="#EBEBEB"/>
<path d="M15.477 27.583L14.082 28.0038L14.1114 28.1012L15.5064 27.6804L15.477 27.583Z" fill="#EBEBEB"/>
<path d="M14.0401 28.4564C14.061 28.5252 14.0219 28.598 13.9532 28.6189C13.8845 28.6397 13.8117 28.6007 13.7908 28.5319C13.7699 28.4632 13.809 28.3904 13.8777 28.3695C13.9471 28.3486 14.0199 28.3877 14.0401 28.4564Z" fill="#EBEBEB"/>
<path d="M15.5824 27.9381L14.1875 28.3589L14.2169 28.4563L15.6118 28.0355L15.5824 27.9381Z" fill="#EBEBEB"/>
<path d="M21.9803 23.1325C21.9803 23.1298 21.9824 23.1271 21.9824 23.1237V21.5353C21.9824 21.5326 21.981 21.5306 21.981 21.5279C21.9803 21.5225 21.9797 21.5178 21.9783 21.5131C21.977 21.5077 21.975 21.503 21.9723 21.4989C21.9709 21.4969 21.9709 21.4942 21.9696 21.4922C21.9682 21.4902 21.9662 21.4895 21.9648 21.4875C21.9615 21.4834 21.9574 21.4794 21.9534 21.476C21.95 21.4733 21.946 21.4706 21.9419 21.4686C21.9372 21.4659 21.9325 21.4645 21.9278 21.4632C21.9231 21.4618 21.9183 21.4605 21.9136 21.4605C21.9109 21.4605 21.9089 21.4592 21.9062 21.4592H19.5799C19.5772 21.4592 19.5751 21.4605 19.5731 21.4605C19.5677 21.4612 19.563 21.4618 19.5583 21.4632C19.5536 21.4645 19.5489 21.4666 19.5448 21.4686C19.5408 21.4706 19.5367 21.4733 19.5334 21.4767C19.5293 21.48 19.5253 21.4834 19.5219 21.4875C19.5205 21.4895 19.5185 21.4902 19.5172 21.4922C19.5158 21.4942 19.5158 21.4969 19.5145 21.4989C19.5118 21.5036 19.5098 21.5083 19.5084 21.5131C19.5071 21.5178 19.5057 21.5232 19.5057 21.5279C19.5057 21.5306 19.5044 21.5326 19.5044 21.5353V22.096H18.8392C18.8385 22.096 18.8379 22.0967 18.8365 22.0967C18.8305 22.0967 18.8251 22.0987 18.8197 22.1C18.8156 22.1014 18.8116 22.1014 18.8075 22.1034C18.8035 22.1054 18.8001 22.1081 18.7961 22.1108C18.7914 22.1142 18.7867 22.1169 18.7826 22.1209C18.7819 22.1216 18.7813 22.1216 18.7806 22.1223C18.7779 22.125 18.7772 22.1284 18.7752 22.1317C18.7718 22.1364 18.7691 22.1412 18.7671 22.1459C18.7651 22.1513 18.7644 22.1567 18.7637 22.162C18.7631 22.1654 18.7617 22.1688 18.7617 22.1728V23.7619C18.7617 23.8044 18.7961 23.8388 18.8385 23.8388H21.1649C21.2074 23.8388 21.2417 23.8044 21.2417 23.7619V23.4533C21.2424 23.4479 21.2424 23.4432 21.2417 23.4378V23.2006H21.9069C21.9183 23.2006 21.9291 23.1979 21.9386 23.1931C21.9413 23.1918 21.9433 23.1898 21.946 23.1884C21.9527 23.1844 21.9595 23.179 21.9648 23.1729C21.9662 23.1716 21.9675 23.1716 21.9682 23.1702C21.9702 23.1675 21.9702 23.1648 21.9723 23.1621C21.975 23.1574 21.9777 23.1527 21.979 23.148C21.979 23.1426 21.9797 23.1379 21.9803 23.1325ZM21.2397 22.53V22.1722C21.2397 22.1681 21.2384 22.1654 21.2377 22.1614C21.237 22.156 21.2363 22.1506 21.2343 22.1452C21.2323 22.1398 21.2289 22.1358 21.2262 22.131C21.2242 22.1284 21.2235 22.1243 21.2208 22.1216C21.2202 22.1209 21.2195 22.1209 21.2188 22.1203C21.2148 22.1162 21.2101 22.1129 21.2053 22.1102C21.2047 22.1095 21.2033 22.1088 21.2026 22.1081L21.828 21.6809V22.9701L21.2397 22.53ZM18.9134 22.3413L19.6149 22.9512L18.9134 23.3158V22.3413ZM19.8002 22.9081C19.8002 22.9074 19.8002 22.9081 19.8002 22.9081L19.0421 22.2497H19.5765C19.5772 22.2497 19.5772 22.2497 19.5778 22.2497C19.5785 22.2497 19.5785 22.2497 19.5792 22.2497H20.5092C20.5099 22.2497 20.5105 22.2497 20.5112 22.2497C20.5119 22.2497 20.5126 22.2497 20.5139 22.2497H20.956L20.1992 22.9074L19.9997 23.0806L19.8002 22.9081ZM20.9479 22.0953H20.5361L19.8279 21.6121H21.6562L20.9479 22.0953ZM21.0861 22.3413V23.3151L20.3845 22.9512L21.0861 22.3413ZM19.6553 21.6809L20.2625 22.0953H19.6553V21.6809ZM18.9134 23.6844V23.489L19.7402 23.059L19.9492 23.2403C19.9633 23.2531 19.9815 23.2592 19.9997 23.2592C20.0179 23.2592 20.0354 23.2531 20.0502 23.2403L20.2592 23.059L21.0861 23.4876V23.6838H18.9134V23.6844ZM21.2397 22.7221L21.673 23.0462H21.2397V22.7221Z" fill="white"/>
<path d="M27.5834 26.9886C27.5834 26.9886 28.1919 30.0368 30.5459 30.927C30.5459 30.927 30.9381 30.6103 31.2097 30.6703C31.4813 30.7309 31.9793 31.3192 31.9793 31.3192H30.4401C30.4401 31.3192 27.9203 31.078 26.6224 28.6182L26.5469 27.6976L27.5834 26.9886Z" fill="#FFC7CA"/>
<path d="M26.2529 24.3934C26.2529 24.3934 27.7821 26.3397 27.9633 26.8532C27.9633 26.8532 26.9976 27.6531 26.6957 27.9247C26.6957 27.9247 25.5507 25.6812 25.7448 25.0579C25.9261 24.477 26.2529 24.3934 26.2529 24.3934Z" fill="#348B65"/>
<path d="M23.9391 23.89C23.9391 23.89 21.6255 24.2121 21.2232 25.7412C20.8208 27.2703 23.9546 31.8779 23.9546 31.8779H27.5809C27.5809 31.8779 26.6954 24.6751 26.2533 24.3934C25.8099 24.1117 25.2269 23.6285 23.9391 23.89Z" fill="#3CB27F"/>
<path d="M25.1868 23.0051L25.0998 24.419C24.773 24.6205 23.5977 24.2316 23.5977 24.2316L23.758 22.6789L25.1868 23.0051Z" fill="#FFC7CA"/>
<path d="M26.4848 21.013C26.4848 21.013 26.4423 23.9634 24.8249 23.5786C22.9238 23.1257 23.7986 20.4098 23.7986 20.4098L26.4848 21.013Z" fill="#FFC7CA"/>
<path d="M23.7983 21.8379C23.7983 21.8379 23.6675 21.5461 23.4559 21.6667C23.245 21.7873 23.1944 22.6142 23.7578 22.6789L23.7983 21.8379Z" fill="#FFC7CA"/>
<path d="M23.4546 21.6667C23.4546 21.6667 23.7666 21.6162 23.8717 21.9033L24.0375 20.8317C24.0375 20.8317 25.0976 21.1336 25.6765 20.8317C25.6765 20.8317 26.1159 21.4113 26.4502 21.4686C26.7837 21.5259 27.2784 20.1524 26.4502 19.8808C26.4502 19.8808 24.6043 17.6171 23.5516 19.8808C23.5516 19.8808 22.8609 19.926 22.7706 20.7562C22.6803 21.5865 23.311 22.158 23.311 22.158C23.311 22.158 23.2942 21.7476 23.4546 21.6667Z" fill="#2B2C84"/>
<path d="M23.7891 29.4936C23.7891 29.4936 25.8411 31.5908 27.8636 31.5908C29.8853 31.5908 29.9763 31.5908 29.9763 31.5908H31.8774C31.8774 31.5908 30.942 30.3683 30.4892 30.5422C30.0363 30.7161 29.7344 30.9722 29.7344 30.9722C29.7344 30.9722 26.8473 30.4249 25.0466 28.2839C25.0466 28.2846 24.1732 28.2866 23.7891 29.4936Z" fill="#FFC7CA"/>
<path d="M21.2266 25.7412C21.2266 25.7412 21.267 28.598 23.7214 29.8858C23.7214 29.8858 24.6972 28.4335 25.0443 28.2846C25.0443 28.2846 23.838 25.5438 23.0374 25.0168C22.6297 24.7485 21.79 24.8355 21.2266 25.7412Z" fill="#348B65"/>
<path d="M27.7395 31.5908C27.7395 31.5908 27.639 31.6966 27.6492 31.8772H34.1572C34.1572 31.8772 34.0871 31.6056 33.9961 31.5908H27.7395Z" fill="#2B2C84"/>
<path d="M31.8672 31.8779L33.5628 26.6261H36.1378L34.4274 31.8779H31.8672Z" fill="#0052FF"/>
<path d="M34.8105 29.0603C34.7599 29.2665 34.6144 29.4087 34.485 29.377C34.3556 29.3453 34.2909 29.1526 34.3414 28.9457C34.392 28.7395 34.5375 28.5973 34.6669 28.629C34.7963 28.6606 34.8603 28.854 34.8105 29.0603Z" fill="white"/>
<path d="M37.1864 32.5417H18.0781C18.0781 32.1751 18.3753 31.8779 18.7419 31.8779H36.5219C36.8892 31.8779 37.1864 32.1751 37.1864 32.5417Z" fill="#009AFF"/>
<path d="M23.7414 31.8779H20.6751C20.3583 31.8779 20.1016 31.6211 20.1016 31.3044C20.1016 30.9877 20.3583 30.7309 20.6751 30.7309H23.7414V31.8779Z" fill="#FF9A00"/>
<path d="M23.7405 31.5571H20.6277C20.4882 31.5571 20.375 31.4439 20.375 31.3044C20.375 31.1649 20.4882 31.0517 20.6277 31.0517H23.7405V31.5571Z" fill="white"/>
<path d="M23.7414 30.7309H20.6751C20.3583 30.7309 20.1016 30.4742 20.1016 30.1574C20.1016 29.8407 20.3583 29.5839 20.6751 29.5839H23.7414V30.7309Z" fill="#008489"/>
<path d="M23.7405 30.4101H20.6277C20.4882 30.4101 20.375 30.2969 20.375 30.1574C20.375 30.0179 20.4882 29.9047 20.6277 29.9047H23.7405V30.4101Z" fill="white"/>
<path d="M20.3964 25.3679L20.4295 25.4737L20.4625 25.3679C20.5049 25.2317 20.5939 25.1179 20.7105 25.0484C20.5939 24.9797 20.5049 24.8658 20.4625 24.729L20.4295 24.6232L20.3964 24.729C20.354 24.8651 20.265 24.979 20.1484 25.0484C20.2657 25.1179 20.354 25.2317 20.3964 25.3679Z" fill="#348B65"/>
<path d="M27.2542 23.9756L27.3169 24.1757L27.3796 23.9756C27.4604 23.7181 27.6276 23.5025 27.8486 23.3717C27.6276 23.241 27.4604 23.026 27.3796 22.7679L27.3169 22.5677L27.2542 22.7679C27.1733 23.0253 27.0062 23.241 26.7852 23.3717C27.0062 23.5025 27.1733 23.7181 27.2542 23.9756Z" fill="#348B65"/>
<path d="M31.6722 28.2489L31.7348 28.449L31.7975 28.2489C31.8784 27.9914 32.0455 27.7758 32.2666 27.645C32.0455 27.5143 31.8784 27.2993 31.7975 27.0412L31.7348 26.8411L31.6722 27.0412C31.5913 27.2987 31.4242 27.5143 31.2031 27.645C31.4242 27.7758 31.5913 27.9908 31.6722 28.2489Z" fill="#348B65"/>
<path d="M30.6354 29.5495L30.6765 29.6809L30.7176 29.5495C30.7702 29.3811 30.8801 29.2395 31.025 29.1539C30.8801 29.0684 30.7702 28.9275 30.7176 28.7584L30.6765 28.6269L30.6354 28.7584C30.5829 28.9268 30.473 29.0684 30.3281 29.1539C30.473 29.2395 30.5829 29.3804 30.6354 29.5495Z" fill="#348B65"/>
<path d="M28.0495 21.4652L28.0906 21.5966L28.1317 21.4652C28.1843 21.2967 28.2941 21.1552 28.439 21.0696C28.2941 20.984 28.1843 20.8432 28.1317 20.674L28.0906 20.5433L28.0495 20.674C27.9969 20.8425 27.8871 20.984 27.7422 21.0696C27.8871 21.1552 27.9969 21.2961 28.0495 21.4652Z" fill="#348B65"/>
<path d="M17.6162 24.6704L17.6742 24.855L17.7322 24.6704C17.8063 24.4325 17.9613 24.2337 18.1648 24.1137C17.9606 23.9931 17.8063 23.7943 17.7322 23.5571L17.6742 23.3724L17.6162 23.5571C17.5421 23.795 17.3871 23.9938 17.1836 24.1137C17.3878 24.2337 17.5421 24.4325 17.6162 24.6704Z" fill="#348B65"/>
<path d="M41.5097 20.635H37.043V26.1092H41.5097V20.635Z" fill="#348B65"/>
<path d="M42.0145 21.2294V21.6256H41.5117V20.6356C41.7975 20.6821 42.0145 20.9301 42.0145 21.2294Z" fill="#3CB27F"/>
<path d="M38.2538 22.2187H37.5469V22.9256H38.2538V22.2187Z" fill="#80CAAA"/>
<path d="M41.0007 22.2187H38.6016V22.3952H41.0007V22.2187Z" fill="#3CB27F"/>
<path d="M41.0007 22.7497H38.6016V22.9263H41.0007V22.7497Z" fill="#3CB27F"/>
<path d="M38.2538 23.8185H37.5469V24.5262H38.2538V23.8185Z" fill="#80CAAA"/>
<path d="M41.0046 23.8185H38.6055V23.9951H41.0046V23.8185Z" fill="#3CB27F"/>
<path d="M41.0046 24.3496H38.6055V24.5261H41.0046V24.3496Z" fill="#3CB27F"/>
<path d="M37.9664 22.7187L37.6719 22.4646L37.7905 22.3278L37.9414 22.4586L38.2487 22.0711L38.3909 22.1836L37.9664 22.7187Z" fill="white"/>
<path d="M37.9664 24.2782L37.6719 24.0241L37.7905 23.8873L37.9414 24.0174L38.2487 23.6305L38.3909 23.7431L37.9664 24.2782Z" fill="white"/>
<defs>
<filter id="filter0_d_418_3000" x="0" y="0" width="54" height="54" filterUnits="userSpaceOnUse" color-interpolation-filters="sRGB">
<feFlood flood-opacity="0" result="BackgroundImageFix"/>
<feColorMatrix in="SourceAlpha" type="matrix" values="0 0 0 0 0 0 0 0 0 0 0 0 0 0 0 0 0 0 127 0" result="hardAlpha"/>
<feOffset/>
<feGaussianBlur stdDeviation="4"/>
<feComposite in2="hardAlpha" operator="out"/>
<feColorMatrix type="matrix" values="0 0 0 0 0 0 0 0 0 0 0 0 0 0 0 0 0 0 0.12 0"/>
<feBlend mode="normal" in2="BackgroundImageFix" result="effect1_dropShadow_418_3000"/>
<feBlend mode="normal" in="SourceGraphic" in2="effect1_dropShadow_418_3000" result="shape"/>
</filter>
</defs>
</svg>
