<svg width="23" height="23" viewBox="0 0 23 23" fill="none" xmlns="http://www.w3.org/2000/svg">
<path d="M1.93642 9.14737C4.49162 14.7125 9.03829 19.1372 14.691 21.5359L15.5971 21.9396C17.6703 22.8633 20.1072 22.1616 21.3716 20.2769L22.5558 18.512C22.9408 17.9381 22.8236 17.1652 22.2858 16.7313L18.2699 13.4916C17.6802 13.0157 16.8128 13.1267 16.3615 13.7355L15.1192 15.4119C11.9315 13.8393 9.34335 11.2513 7.77095 8.06357L9.44722 6.82128C10.0562 6.37005 10.167 5.50269 9.69109 4.91285L6.45133 0.896933C6.01753 0.359227 5.24486 0.241933 4.67103 0.626693L2.89391 1.81829C0.99746 3.08989 0.29962 5.54703 1.24459 7.62563L1.93538 9.14512L1.93642 9.14737Z" fill="#3CB27F"/>
</svg>
