<svg width="427" height="360" viewBox="0 0 427 360" fill="none" xmlns="http://www.w3.org/2000/svg">
<path d="M335.071 182.989C385.601 182.989 426.565 142.025 426.565 91.4944C426.565 40.9634 385.601 0 335.071 0C284.54 0 243.576 40.9634 243.576 91.4944C243.576 142.025 284.54 182.989 335.071 182.989Z" fill="#E5F1FF"/>
<path d="M137.143 322.187C158.027 301.303 158.027 267.444 137.143 246.56C116.26 225.677 82.4006 225.677 61.5169 246.56C40.6332 267.444 40.6332 301.303 61.5169 322.187C82.4006 343.07 116.26 343.07 137.143 322.187Z" fill="#E5F1FF"/>
<path d="M98.6163 30.5017C71.6115 30.5017 49.7241 52.3891 49.7241 79.3939C49.7241 106.399 71.6115 128.286 98.6163 128.286C125.621 128.286 147.509 106.399 147.509 79.3939C147.509 52.3891 125.621 30.5017 98.6163 30.5017ZM98.6163 110.642C81.3559 110.642 67.3577 96.6437 67.3577 79.3832C67.3577 62.1228 81.3559 48.1246 98.6163 48.1246C115.877 48.1246 129.875 62.1228 129.875 79.3832C129.875 96.6437 115.877 110.642 98.6163 110.642Z" fill="#A9CCEA"/>
<path d="M283.321 343.067C283.321 346.169 280.805 348.674 277.714 348.674H135.856C132.753 348.674 130.248 346.158 130.248 343.067C130.248 339.964 132.764 337.459 135.856 337.459H186.209L193.16 324.633H205.186H208.395H220.42L227.372 337.459H277.724C280.805 337.459 283.321 339.964 283.321 343.067Z" fill="#0F3157"/>
<path d="M217.233 313.013H193.991V319.825H217.233V313.013Z" fill="#FF4D6B"/>
<path d="M217.233 301.797H193.991V308.61H217.233V301.797Z" fill="#FF4D6B"/>
<path d="M390.658 278.737C386.617 280.293 382.225 281.136 377.64 281.136C357.565 281.136 341.296 264.867 341.296 244.792C341.296 224.717 357.565 208.448 377.64 208.448C397.715 208.448 413.984 224.717 413.984 244.792C413.984 250.176 412.812 255.272 410.722 259.867" stroke="#FF4D6B" stroke-width="1.1276" stroke-miterlimit="10" stroke-linecap="round" stroke-linejoin="round"/>
<path d="M288.034 74.1592H282.234C281.03 68.9992 279.004 64.1697 276.285 59.7986L280.39 55.6941C282.16 53.9243 282.16 51.0564 280.39 49.2867L271.275 40.1714C269.505 38.4016 266.637 38.4016 264.867 40.1714L260.763 44.2759C256.392 41.5573 251.551 39.5317 246.402 38.327V32.5273C246.402 30.0219 244.376 27.9963 241.871 27.9963H228.982C226.476 27.9963 224.451 30.0219 224.451 32.5273V38.327C219.291 39.5317 214.461 41.5573 210.09 44.2759L205.985 40.1714C204.216 38.4016 201.348 38.4016 199.578 40.1714L190.463 49.2867C188.693 51.0564 188.693 53.9243 190.463 55.6941L194.567 59.7986C191.849 64.1697 189.823 69.0099 188.618 74.1592H182.819C180.313 74.1592 178.288 76.1849 178.288 78.6902V91.5796C178.288 94.085 180.313 96.1106 182.819 96.1106H188.618C189.823 101.271 191.849 106.1 194.567 110.471L190.463 114.576C188.693 116.346 188.693 119.213 190.463 120.983L199.578 130.099C201.348 131.868 204.216 131.868 205.985 130.099L210.09 125.994C214.461 128.713 219.301 130.738 224.451 131.943V137.743C224.451 140.248 226.476 142.274 228.982 142.274H241.871C244.376 142.274 246.402 140.248 246.402 137.743V131.943C251.562 130.738 256.392 128.713 260.763 125.994L264.867 130.099C266.637 131.868 269.505 131.868 271.275 130.099L280.39 120.983C282.16 119.213 282.16 116.346 280.39 114.576L276.285 110.471C279.004 106.1 281.03 101.26 282.234 96.1106H288.034C290.539 96.1106 292.565 94.085 292.565 91.5796V78.6902C292.565 76.1849 290.539 74.1592 288.034 74.1592ZM235.432 108.126C222.734 108.126 212.435 97.8271 212.435 85.1296C212.435 72.4321 222.734 62.1334 235.432 62.1334C248.129 62.1334 258.428 72.4321 258.428 85.1296C258.428 97.8377 248.129 108.126 235.432 108.126Z" fill="#3CB27F"/>
<path d="M47.1014 298.727C40.3529 298.727 34.873 293.257 34.873 286.498V95.1725C34.873 88.4239 40.3422 82.9441 47.1014 82.9441H366.457C373.206 82.9441 378.686 88.4133 378.686 95.1725V286.498C378.686 293.247 373.217 298.727 366.457 298.727H47.1014V298.727Z" fill="#0F3775"/>
<path d="M95.4074 109.64H59.9482V117.454H95.4074V109.64Z" fill="#284D89"/>
<path d="M138.084 109.64H102.625V117.454H138.084V109.64Z" fill="#284D89"/>
<path d="M246.273 109.64H210.814V117.454H246.273V109.64Z" fill="#284D89"/>
<path d="M354.474 109.64H319.015V117.454H354.474V109.64Z" fill="#284D89"/>
<path d="M206.305 109.64H142.892V117.454H206.305V109.64Z" fill="#FF4D6B"/>
<path d="M313.908 109.64H250.496V117.454H313.908V109.64Z" fill="#2889DB"/>
<path d="M66.3659 103.435H60.1504V107.241H66.3659V103.435Z" fill="#2889DB"/>
<path d="M124.97 123.872H60.1504V127.678H124.97V123.872Z" fill="white"/>
<path d="M79.3832 130.578H60.1504V134.384H79.3832V130.578Z" fill="white"/>
<path d="M128.766 271.338H68.6581C64.1804 271.338 60.5449 267.703 60.5449 263.225V154.427C60.5449 149.95 64.1804 146.314 68.6581 146.314H128.766C133.244 146.314 136.879 149.95 136.879 154.427V263.225C136.89 267.703 133.254 271.338 128.766 271.338Z" fill="#284D89"/>
<path d="M95.7054 164.641H70.1611V168.543H95.7054V164.641Z" fill="white"/>
<path d="M95.7054 173.362H70.1611V177.264H95.7054V173.362Z" fill="white"/>
<path d="M95.7054 182.072H70.1611V185.974H95.7054V182.072Z" fill="white"/>
<path d="M85.7904 218.437H70.1611V222.339H85.7904V218.437Z" fill="white"/>
<path d="M85.7904 227.158H70.1611V231.06H85.7904V227.158Z" fill="white"/>
<path d="M112.646 227.158H97.0166V231.06H112.646V227.158Z" fill="white"/>
<path d="M79.9801 208.522H70.1611V212.424H79.9801V208.522Z" fill="white"/>
<path d="M117.454 208.522H112.241V212.424H117.454V208.522Z" fill="white"/>
<path d="M110.237 208.522H83.3921V212.424H110.237V208.522Z" fill="#FF4D6B"/>
<path d="M73.9139 193.799H70.1611V197.701H73.9139V193.799Z" fill="#2889DB"/>
<path d="M73.9139 200.708H70.1611V204.61H73.9139V200.708Z" fill="#FF4D6B"/>
<path d="M91.0045 231.87H89.5972L92.9555 226.859H94.3627L91.0045 231.87Z" fill="white"/>
<path d="M128.169 238.576H70.1611V241.881H128.169V238.576Z" fill="#282E5C"/>
<path d="M128.169 246.092H70.1611V249.397H128.169V246.092Z" fill="#282E5C"/>
<path d="M407.172 198H247.681C243.694 198 240.463 194.769 240.463 190.782V147.508C240.463 143.521 243.694 140.291 247.681 140.291H407.172C411.16 140.291 414.39 143.521 414.39 147.508V190.782C414.39 194.78 411.16 198 407.172 198Z" fill="#3CB27F"/>
<path d="M292.17 177.562C292.17 177.562 300.987 155.92 326.233 161.133C351.479 166.347 364.304 194.791 396.757 171.549" stroke="white" stroke-width="1.1276" stroke-miterlimit="10"/>
<path d="M373.91 178.767H370.306V182.37H373.91V178.767Z" fill="#3CB27F" stroke="white" stroke-width="1.1276" stroke-miterlimit="10"/>
<path d="M296.573 160.131H342.256" stroke="white" stroke-width="0.5638" stroke-miterlimit="10"/>
<path d="M349.271 181.571H394.955" stroke="white" stroke-width="0.5638" stroke-miterlimit="10"/>
<path d="M319.409 158.329H315.805V161.933H319.409V158.329Z" fill="#3CB27F" stroke="white" stroke-width="1.1276" stroke-miterlimit="10"/>
<path d="M270.922 212.829H236.455C233.576 212.829 231.241 210.495 231.241 207.616V155.92C231.241 153.041 233.576 150.707 236.455 150.707H270.922C273.801 150.707 276.135 153.041 276.135 155.92V207.627C276.135 210.495 273.801 212.829 270.922 212.829Z" fill="#284D89"/>
<path d="M263.811 159.534H238.267V163.052H263.811V159.534Z" fill="white"/>
<path d="M263.811 167.391H238.267V170.91H263.811V167.391Z" fill="white"/>
<path d="M247.883 175.249H238.267V178.767H247.883V175.249Z" fill="white"/>
<path d="M254.899 183.372H238.267V186.891H254.899V183.372Z" fill="#3CB27F"/>
<path d="M249.483 191.23H238.267V194.748H249.483V191.23Z" fill="#3CB27F"/>
<path d="M249.483 199.087H238.267V202.605H249.483V199.087Z" fill="white"/>
<path d="M386.34 132.487H404.368" stroke="#284D89" stroke-width="2.2552" stroke-miterlimit="10" stroke-linecap="round" stroke-linejoin="round"/>
<path d="M345.817 234.237L339.591 239.109L330.657 240.73C330.657 240.73 322.267 240.186 321.457 240.186C320.646 240.186 314.964 235.591 314.964 235.591L304.409 231.806L297.106 234.514L288.45 232.617L275.464 231.806L263.012 236.678L252.735 238.299L243.534 241.273L233.257 242.084L222.158 233.427L211.881 231.529L201.326 237.478L192.936 240.186L183.415 239.919L171.411 247.222H164.257L152.167 251.466" stroke="#FF5C66" stroke-width="1.0152" stroke-miterlimit="10"/>
<path d="M152.349 251.647H346.094" stroke="#F7F7F7" stroke-width="0.2538" stroke-miterlimit="10"/>
<path d="M152.434 249.205H150.451V254.078H152.434V249.205Z" fill="#F7F7F7"/>
<path d="M346.905 249.205H344.922V254.078H346.905V249.205Z" fill="#F7F7F7"/>
<path d="M345.913 251.647V235.314" stroke="#F7F7F7" stroke-width="0.2538" stroke-miterlimit="10"/>
<path d="M346.99 234.504C346.99 235.346 346.308 236.039 345.455 236.039C344.602 236.039 343.919 235.356 343.919 234.504C343.919 233.661 344.602 232.968 345.455 232.968C346.308 232.968 346.99 233.661 346.99 234.504Z" fill="#F7F7F7"/>
<path d="M153.329 262.41V256.503H154.01V258.684H154.067C154.117 258.607 154.187 258.509 154.275 258.39C154.365 258.269 154.494 258.161 154.662 258.067C154.831 257.971 155.06 257.922 155.348 257.922C155.721 257.922 156.05 258.016 156.334 258.202C156.619 258.389 156.841 258.653 157.001 258.995C157.16 259.338 157.24 259.741 157.24 260.207C157.24 260.676 157.16 261.083 157.001 261.427C156.841 261.769 156.62 262.034 156.337 262.223C156.055 262.409 155.729 262.503 155.36 262.503C155.075 262.503 154.847 262.456 154.676 262.361C154.505 262.265 154.373 262.157 154.281 262.035C154.189 261.912 154.117 261.81 154.067 261.73H153.987V262.41H153.329ZM153.998 260.195C153.998 260.53 154.047 260.825 154.145 261.081C154.243 261.335 154.387 261.534 154.575 261.678C154.763 261.82 154.994 261.891 155.267 261.891C155.552 261.891 155.789 261.816 155.98 261.666C156.172 261.514 156.316 261.31 156.412 261.055C156.51 260.797 156.559 260.511 156.559 260.195C156.559 259.884 156.511 259.603 156.415 259.353C156.321 259.101 156.178 258.902 155.985 258.756C155.795 258.608 155.556 258.534 155.267 258.534C154.99 258.534 154.758 258.604 154.569 258.744C154.381 258.883 154.239 259.077 154.142 259.327C154.046 259.575 153.998 259.865 153.998 260.195ZM160.139 262.503C159.712 262.503 159.344 262.408 159.034 262.22C158.726 262.03 158.489 261.764 158.322 261.424C158.156 261.082 158.074 260.684 158.074 260.23C158.074 259.776 158.156 259.376 158.322 259.03C158.489 258.682 158.722 258.411 159.02 258.217C159.32 258.021 159.67 257.922 160.07 257.922C160.3 257.922 160.528 257.961 160.753 258.038C160.978 258.115 161.183 258.24 161.367 258.413C161.552 258.584 161.699 258.811 161.809 259.093C161.918 259.376 161.973 259.724 161.973 260.138V260.426H158.558V259.838H161.281C161.281 259.588 161.231 259.365 161.131 259.168C161.033 258.972 160.892 258.818 160.71 258.704C160.529 258.591 160.316 258.534 160.07 258.534C159.798 258.534 159.564 258.601 159.366 258.736C159.17 258.869 159.019 259.042 158.913 259.255C158.807 259.468 158.754 259.697 158.754 259.941V260.334C158.754 260.668 158.812 260.952 158.927 261.185C159.045 261.415 159.207 261.591 159.415 261.712C159.622 261.832 159.864 261.891 160.139 261.891C160.318 261.891 160.479 261.866 160.623 261.816C160.769 261.764 160.895 261.687 161.001 261.585C161.107 261.482 161.189 261.353 161.246 261.199L161.904 261.384C161.835 261.607 161.718 261.803 161.555 261.972C161.391 262.139 161.19 262.27 160.949 262.364C160.709 262.456 160.439 262.503 160.139 262.503ZM164.935 257.98V258.557H162.639V257.98H164.935ZM163.309 256.919H163.989V261.141C163.989 261.334 164.017 261.478 164.073 261.574C164.131 261.668 164.204 261.732 164.292 261.764C164.382 261.795 164.478 261.81 164.578 261.81C164.653 261.81 164.714 261.807 164.762 261.799C164.81 261.789 164.849 261.782 164.878 261.776L165.016 262.387C164.97 262.405 164.905 262.422 164.823 262.439C164.74 262.458 164.635 262.468 164.508 262.468C164.316 262.468 164.128 262.427 163.943 262.344C163.76 262.261 163.608 262.135 163.487 261.966C163.368 261.797 163.309 261.584 163.309 261.326V256.919ZM167.263 262.514C166.982 262.514 166.727 262.461 166.498 262.356C166.27 262.248 166.088 262.093 165.953 261.891C165.819 261.687 165.751 261.441 165.751 261.153C165.751 260.899 165.801 260.693 165.901 260.536C166.001 260.376 166.135 260.251 166.302 260.161C166.47 260.07 166.654 260.003 166.856 259.959C167.06 259.913 167.265 259.876 167.47 259.849C167.74 259.815 167.958 259.789 168.125 259.771C168.294 259.752 168.417 259.72 168.494 259.676C168.573 259.632 168.613 259.555 168.613 259.445V259.422C168.613 259.138 168.535 258.917 168.379 258.759C168.225 258.601 167.992 258.522 167.678 258.522C167.353 258.522 167.098 258.594 166.914 258.736C166.729 258.878 166.599 259.03 166.524 259.192L165.878 258.961C165.994 258.692 166.148 258.482 166.34 258.332C166.534 258.18 166.746 258.074 166.974 258.015C167.205 257.953 167.432 257.922 167.655 257.922C167.797 257.922 167.961 257.94 168.145 257.974C168.332 258.007 168.512 258.075 168.685 258.179C168.86 258.283 169.005 258.44 169.12 258.649C169.236 258.859 169.293 259.14 169.293 259.491V262.41H168.613V261.81H168.578C168.532 261.907 168.455 262.009 168.347 262.119C168.24 262.229 168.096 262.322 167.918 262.399C167.739 262.476 167.52 262.514 167.263 262.514ZM167.367 261.903C167.636 261.903 167.863 261.85 168.047 261.744C168.234 261.638 168.374 261.502 168.468 261.335C168.565 261.167 168.613 260.991 168.613 260.807V260.184C168.584 260.218 168.52 260.25 168.422 260.279C168.326 260.306 168.215 260.33 168.088 260.351C167.963 260.37 167.841 260.388 167.721 260.403C167.604 260.416 167.509 260.428 167.436 260.438C167.259 260.461 167.094 260.498 166.94 260.55C166.788 260.6 166.665 260.676 166.571 260.778C166.478 260.878 166.432 261.014 166.432 261.187C166.432 261.424 166.52 261.603 166.695 261.724C166.871 261.843 167.096 261.903 167.367 261.903ZM174.747 257.98V258.557H172.451V257.98H174.747ZM173.12 256.919H173.801V261.141C173.801 261.334 173.829 261.478 173.884 261.574C173.942 261.668 174.015 261.732 174.103 261.764C174.194 261.795 174.289 261.81 174.389 261.81C174.464 261.81 174.526 261.807 174.574 261.799C174.622 261.789 174.66 261.782 174.689 261.776L174.827 262.387C174.781 262.405 174.717 262.422 174.634 262.439C174.551 262.458 174.447 262.468 174.32 262.468C174.128 262.468 173.939 262.427 173.754 262.344C173.572 262.261 173.42 262.135 173.299 261.966C173.18 261.797 173.12 261.584 173.12 261.326V256.919ZM177.58 262.503C177.154 262.503 176.785 262.408 176.476 262.22C176.168 262.03 175.931 261.764 175.763 261.424C175.598 261.082 175.515 260.684 175.515 260.23C175.515 259.776 175.598 259.376 175.763 259.03C175.931 258.682 176.163 258.411 176.461 258.217C176.761 258.021 177.111 257.922 177.511 257.922C177.742 257.922 177.97 257.961 178.195 258.038C178.42 258.115 178.625 258.24 178.809 258.413C178.994 258.584 179.141 258.811 179.25 259.093C179.36 259.376 179.415 259.724 179.415 260.138V260.426H176V259.838H178.723C178.723 259.588 178.673 259.365 178.573 259.168C178.475 258.972 178.334 258.818 178.151 258.704C177.971 258.591 177.757 258.534 177.511 258.534C177.24 258.534 177.005 258.601 176.807 258.736C176.611 258.869 176.46 259.042 176.355 259.255C176.249 259.468 176.196 259.697 176.196 259.941V260.334C176.196 260.668 176.254 260.952 176.369 261.185C176.486 261.415 176.649 261.591 176.856 261.712C177.064 261.832 177.305 261.891 177.58 261.891C177.759 261.891 177.921 261.866 178.065 261.816C178.211 261.764 178.337 261.687 178.443 261.585C178.549 261.482 178.63 261.353 178.688 261.199L179.346 261.384C179.276 261.607 179.16 261.803 178.997 261.972C178.833 262.139 178.631 262.27 178.391 262.364C178.151 262.456 177.88 262.503 177.58 262.503ZM183.588 258.972L182.977 259.145C182.938 259.043 182.882 258.944 182.807 258.848C182.734 258.75 182.634 258.669 182.507 258.606C182.38 258.543 182.217 258.511 182.019 258.511C181.748 258.511 181.522 258.573 181.341 258.698C181.163 258.821 181.073 258.978 181.073 259.168C181.073 259.338 181.135 259.471 181.258 259.569C181.381 259.667 181.573 259.749 181.835 259.815L182.492 259.976C182.888 260.072 183.184 260.219 183.378 260.417C183.572 260.613 183.669 260.866 183.669 261.176C183.669 261.43 183.596 261.657 183.45 261.857C183.306 262.057 183.104 262.214 182.844 262.33C182.585 262.445 182.283 262.503 181.938 262.503C181.487 262.503 181.113 262.405 180.817 262.208C180.52 262.012 180.333 261.726 180.254 261.349L180.9 261.187C180.962 261.426 181.078 261.605 181.249 261.724C181.422 261.843 181.648 261.903 181.927 261.903C182.244 261.903 182.496 261.835 182.683 261.701C182.871 261.564 182.965 261.401 182.965 261.21C182.965 261.057 182.911 260.928 182.804 260.824C182.696 260.718 182.531 260.639 182.308 260.588L181.569 260.414C181.164 260.318 180.866 260.169 180.675 259.967C180.487 259.764 180.393 259.509 180.393 259.203C180.393 258.953 180.463 258.732 180.603 258.54C180.745 258.347 180.939 258.196 181.183 258.087C181.429 257.977 181.708 257.922 182.019 257.922C182.458 257.922 182.802 258.019 183.052 258.211C183.304 258.403 183.483 258.657 183.588 258.972ZM186.62 257.98V258.557H184.324V257.98H186.62ZM184.994 256.919H185.674V261.141C185.674 261.334 185.702 261.478 185.758 261.574C185.816 261.668 185.889 261.732 185.977 261.764C186.068 261.795 186.163 261.81 186.263 261.81C186.338 261.81 186.399 261.807 186.447 261.799C186.495 261.789 186.534 261.782 186.563 261.776L186.701 262.387C186.655 262.405 186.591 262.422 186.508 262.439C186.425 262.458 186.32 262.468 186.193 262.468C186.001 262.468 185.813 262.427 185.628 262.344C185.445 262.261 185.294 262.135 185.172 261.966C185.053 261.797 184.994 261.584 184.994 261.326V256.919Z" fill="#F7F7F7"/>
<path d="M317.586 258.683H197.083V260.847H317.586V258.683Z" fill="#28385E"/>
<path d="M271.05 258.683H197.083V260.847H271.05V258.683Z" fill="#FF4D6B"/>
<path d="M256.338 262.83H197.083V264.995H256.338V262.83Z" fill="#28385E"/>
<path d="M159.513 269.28H166.826L167.764 267.244H153.02V270.634H158.159L159.513 269.28Z" fill="#FF4D6B"/>
<path d="M174.652 267.223H173.842V268.033H174.652V267.223Z" fill="#F7F7F7"/>
<path d="M179.694 267.223H178.884V268.033H179.694V267.223Z" fill="#F7F7F7"/>
<path d="M184.738 267.223H183.928V268.033H184.738V267.223Z" fill="#F7F7F7"/>
<path d="M338.893 228.517C338.555 228.517 338.25 228.45 337.979 228.315C337.708 228.18 337.491 227.996 337.327 227.761C337.164 227.527 337.074 227.259 337.059 226.959H337.751C337.778 227.227 337.899 227.448 338.115 227.623C338.332 227.796 338.592 227.882 338.893 227.882C339.136 227.882 339.351 227.826 339.539 227.712C339.73 227.599 339.879 227.443 339.987 227.245C340.096 227.045 340.151 226.819 340.151 226.567C340.151 226.309 340.094 226.08 339.981 225.878C339.869 225.674 339.715 225.513 339.519 225.396C339.323 225.279 339.099 225.219 338.847 225.217C338.667 225.215 338.481 225.243 338.291 225.301C338.1 225.357 337.944 225.429 337.82 225.517L337.151 225.437L337.509 222.529H340.578V223.164H338.109L337.901 224.906H337.936C338.057 224.81 338.209 224.73 338.392 224.666C338.574 224.603 338.765 224.571 338.963 224.571C339.324 224.571 339.646 224.658 339.929 224.831C340.213 225.002 340.436 225.237 340.598 225.535C340.761 225.833 340.843 226.173 340.843 226.556C340.843 226.932 340.759 227.269 340.589 227.565C340.422 227.859 340.191 228.092 339.897 228.263C339.603 228.432 339.268 228.517 338.893 228.517ZM343.916 228.517C343.481 228.517 343.111 228.399 342.805 228.162C342.499 227.924 342.266 227.579 342.104 227.127C341.943 226.673 341.862 226.125 341.862 225.483C341.862 224.844 341.943 224.299 342.104 223.847C342.268 223.394 342.502 223.047 342.808 222.809C343.116 222.569 343.485 222.448 343.916 222.448C344.346 222.448 344.715 222.569 345.02 222.809C345.328 223.047 345.562 223.394 345.724 223.847C345.887 224.299 345.969 224.844 345.969 225.483C345.969 226.125 345.888 226.673 345.727 227.127C345.565 227.579 345.332 227.924 345.026 228.162C344.72 228.399 344.35 228.517 343.916 228.517ZM343.916 227.882C344.346 227.882 344.681 227.675 344.919 227.259C345.158 226.844 345.277 226.252 345.277 225.483C345.277 224.971 345.222 224.536 345.113 224.176C345.005 223.817 344.849 223.543 344.645 223.354C344.443 223.166 344.2 223.071 343.916 223.071C343.489 223.071 343.155 223.282 342.915 223.703C342.674 224.122 342.554 224.715 342.554 225.483C342.554 225.994 342.608 226.429 342.716 226.786C342.823 227.144 342.978 227.416 343.18 227.603C343.384 227.789 343.629 227.882 343.916 227.882ZM348.992 228.517C348.557 228.517 348.187 228.399 347.881 228.162C347.576 227.924 347.342 227.579 347.181 227.127C347.019 226.673 346.938 226.125 346.938 225.483C346.938 224.844 347.019 224.299 347.181 223.847C347.344 223.394 347.579 223.047 347.884 222.809C348.192 222.569 348.561 222.448 348.992 222.448C349.423 222.448 349.791 222.569 350.096 222.809C350.404 223.047 350.639 223.394 350.8 223.847C350.964 224.299 351.045 224.844 351.045 225.483C351.045 226.125 350.965 226.673 350.803 227.127C350.642 227.579 350.408 227.924 350.102 228.162C349.797 228.399 349.426 228.517 348.992 228.517ZM348.992 227.882C349.423 227.882 349.757 227.675 349.996 227.259C350.234 226.844 350.353 226.252 350.353 225.483C350.353 224.971 350.298 224.536 350.189 224.176C350.081 223.817 349.925 223.543 349.722 223.354C349.52 223.166 349.276 223.071 348.992 223.071C348.565 223.071 348.231 223.282 347.991 223.703C347.751 224.122 347.63 224.715 347.63 225.483C347.63 225.994 347.684 226.429 347.792 226.786C347.9 227.144 348.054 227.416 348.256 227.603C348.46 227.789 348.705 227.882 348.992 227.882Z" fill="#F7F7F7"/>
<path d="M326.243 265.176H324.441L321.552 258.683H323.365L326.243 265.176Z" fill="#28385E"/>
<path d="M330.935 265.176H329.133L326.244 258.683H328.045L330.935 265.176Z" fill="#28385E"/>
<path d="M335.625 265.176H333.823L330.934 258.683H332.736L335.625 265.176Z" fill="#28385E"/>
<path d="M340.316 265.176H338.515L335.625 258.683H337.427L340.316 265.176Z" fill="#28385E"/>
<path d="M344.922 265.176H343.11L340.231 258.683H342.033L344.922 265.176Z" fill="#28385E"/>
<path d="M337.085 41.5786H307.756V46.8346H337.085V41.5786Z" fill="#A9CCEA"/>
<path d="M351.979 50.9818H307.756V56.2378H351.979V50.9818Z" fill="#A9CCEA"/>
<path d="M362.299 60.385H307.756V65.641H362.299V60.385Z" fill="#A9CCEA"/>
<path d="M328.61 69.7882H307.756V75.0441H328.61V69.7882Z" fill="#A9CCEA"/>
<path d="M29.3289 104.895H0V110.151H29.3289V104.895Z" fill="#2889DB"/>
<path d="M44.2226 114.299H0V119.555H44.2226V114.299Z" fill="#A9CCEA"/>
<path d="M54.5427 123.702H0V128.958H54.5427V123.702Z" fill="#A9CCEA"/>
<path d="M20.8533 133.094H0V138.35H20.8533V133.094Z" fill="#A9CCEA"/>
<path d="M198.192 289.366H73.168V305.592H198.192V289.366Z" stroke="#3CB27F" stroke-width="1.1276" stroke-miterlimit="10"/>
<path d="M139.491 161.538H133.479V198.405H139.491V161.538Z" stroke="#3CB27F" stroke-width="1.1276" stroke-miterlimit="10"/>
<path d="M380.913 265.235C392.207 263.414 399.886 252.782 398.065 241.488C396.243 230.194 385.611 222.515 374.317 224.336C363.023 226.157 355.344 236.789 357.165 248.083C358.987 259.377 369.619 267.056 380.913 265.235Z" fill="#FF4D6B"/>
<path d="M376.137 242.851L367.907 245.868L376.137 248.854V251.945L364.378 247.468V244.259L376.137 239.792V242.851Z" fill="#F9FBFC"/>
<path d="M378.824 239.792L390.583 244.259V247.468L378.824 251.945V248.854L387.054 245.868L378.824 242.851V239.792Z" fill="#F9FBFC"/>
<path d="M412.183 261.722C412.183 263.214 410.967 264.43 409.475 264.43C407.982 264.43 406.767 263.214 406.767 261.722C406.767 260.229 407.982 259.014 409.475 259.014C410.967 259.014 412.183 260.229 412.183 261.722Z" stroke="#FF4D6B" stroke-width="1.1276" stroke-miterlimit="10"/>
<path d="M164.534 65.7689H66.5581V75.9823H164.534V65.7689Z" stroke="#3CB27F" stroke-width="1.1276" stroke-miterlimit="10"/>
<path d="M131.473 69.0739H70.7686V72.0803H131.473V69.0739Z" fill="#3CB27F"/>
<path d="M221.635 145.504H149.907V149.107H221.635V145.504Z" fill="#284D89"/>
<path d="M182.413 145.504H149.907V149.107H182.413V145.504Z" fill="#2889DB"/>
<path d="M221.635 154.822H149.907V158.425H221.635V154.822Z" fill="#284D89"/>
<path d="M199.844 154.822H149.907V158.425H199.844V154.822Z" fill="#FF4D6B"/>
<path d="M221.635 164.14H149.907V167.743H221.635V164.14Z" fill="#284D89"/>
<path d="M164.534 164.14H149.907V167.743H164.534V164.14Z" fill="#1AE5FF"/>
<path d="M151.613 139.193H150.206V140.6H151.613V139.193Z" fill="#284D89"/>
<path d="M156.421 139.193H155.014V140.6H156.421V139.193Z" fill="#284D89"/>
<path d="M161.229 139.193H159.822V140.6H161.229V139.193Z" fill="#284D89"/>
<path d="M286.019 188.319H283.684V190.654H286.019V188.319Z" fill="white"/>
<path d="M294.035 188.319H291.701V190.654H294.035V188.319Z" fill="white"/>
<path d="M302.054 188.319H299.719V190.654H302.054V188.319Z" fill="white"/>
<path d="M321.808 95.4283H317.426V99.81H321.808V95.4283Z" fill="white"/>
<path d="M336.829 95.4283H332.448V99.81H336.829V95.4283Z" fill="white"/>
<path d="M351.863 95.4283H347.481V99.81H351.863V95.4283Z" fill="white"/>
<path d="M259.696 276.562H255.314V280.944H259.696V276.562Z" fill="white"/>
<path d="M274.717 276.562H270.335V280.944H274.717V276.562Z" fill="white"/>
<path d="M289.749 276.562H285.367V280.944H289.749V276.562Z" fill="white"/>
<path d="M73.764 155.195H71.4292V157.53H73.764V155.195Z" fill="white"/>
<path d="M81.7821 155.195H79.4473V157.53H81.7821V155.195Z" fill="white"/>
<path d="M89.7992 155.195H87.4644V157.53H89.7992V155.195Z" fill="white"/>
<path d="M399.155 152.316H360.284V156.122H399.155V152.316Z" fill="white"/>
<path d="M371.82 159.033H360.284V162.839H371.82V159.033Z" fill="#287DD1"/>
<path d="M46.7166 160.131H38.3049V151.719H30.4903V160.131H22.0786V167.946H30.4903V176.368H38.3049V167.946H46.7166V160.131Z" fill="#1AE5FF"/>
<path d="M24.2003 183.575H19.0723V178.447H14.3067V183.575H9.17871V188.341H14.3067V193.479H19.0723V188.341H24.2003V183.575Z" fill="#2889DB"/>
<path d="M164.652 179.097C157.381 179.097 151.496 184.993 151.496 192.253C151.496 199.524 157.392 205.409 164.652 205.409C171.923 205.409 177.808 199.514 177.808 192.253C177.808 184.993 171.912 179.097 164.652 179.097ZM164.652 199.119C160.867 199.119 157.797 196.049 157.797 192.264C157.797 188.479 160.867 185.409 164.652 185.409C168.437 185.409 171.507 188.479 171.507 192.264C171.507 196.049 168.437 199.119 164.652 199.119Z" fill="#284D89"/>
<path d="M155.685 190.963C156.911 190.963 157.977 190.238 158.532 189.151C159.662 186.933 161.975 185.409 164.64 185.409C167.306 185.409 169.619 186.933 170.749 189.151C171.304 190.238 172.381 190.963 173.596 190.963C175.899 190.963 177.477 188.554 176.464 186.486C174.321 182.115 169.832 179.108 164.64 179.108C159.448 179.108 154.96 182.115 152.817 186.486C151.815 188.543 153.382 190.963 155.685 190.963Z" fill="#3CB27F"/>
<path d="M186.752 192.253C186.752 199.524 192.648 205.409 199.908 205.409C207.179 205.409 213.064 199.514 213.064 192.253C213.064 184.982 207.168 179.097 199.908 179.097C192.648 179.097 186.752 184.993 186.752 192.253ZM206.774 192.253C206.774 196.038 203.703 199.108 199.919 199.108C196.134 199.108 193.063 196.038 193.063 192.253C193.063 188.469 196.134 185.398 199.919 185.398C203.703 185.398 206.774 188.469 206.774 192.253Z" fill="#284D89"/>
<path d="M198.618 201.219C198.618 199.993 197.893 198.927 196.806 198.373C194.588 197.243 193.063 194.929 193.063 192.264C193.063 189.599 194.588 187.285 196.806 186.155C197.893 185.601 198.618 184.524 198.618 183.309C198.618 181.006 196.209 179.428 194.14 180.441C189.769 182.584 186.763 187.072 186.763 192.264C186.763 197.456 189.769 201.944 194.14 204.087C196.198 205.1 198.618 203.522 198.618 201.219Z" fill="#FF4D6B"/>
<path d="M127.06 140.301H103.019V198.01H127.06V140.301Z" stroke="#3CB27F" stroke-width="1.1276" stroke-miterlimit="10"/>
<path d="M113.446 151.421H106.431V153.489H113.446V151.421Z" fill="#1AE5FF"/>
<path d="M113.446 156.048H106.431V158.116H113.446V156.048Z" fill="#1AE5FF"/>
<path d="M113.446 160.664H106.431V162.732H113.446V160.664Z" fill="#1AE5FF"/>
<path d="M113.446 184.716H106.431V186.784H113.446V184.716Z" fill="#1AE5FF"/>
<path d="M116.645 167.445H106.431V169.513H116.645V167.445Z" fill="#1AE5FF"/>
<path d="M116.645 172.072H106.431V174.14H116.645V172.072Z" fill="white"/>
<path d="M116.645 176.699H106.431V178.767H116.645V176.699Z" fill="white"/>
<path d="M47.3252 212.435H16.8662V242.894H47.3252V212.435Z" fill="#3CB27F"/>
<path d="M31.3013 219.642H0.842285V250.101H31.3013V219.642Z" stroke="#3CB27F" stroke-width="1.1276" stroke-miterlimit="10"/>
<path d="M391.948 300.592H379.123V313.418H391.948V300.592Z" stroke="#3CB27F" stroke-width="1.1276" stroke-miterlimit="10"/>
<path d="M225.249 280.357H236.059L242.072 286.36H304.59L314.206 276.743H347.863" stroke="white" stroke-width="1.1276" stroke-miterlimit="10"/>
<path d="M222.093 283.662C223.836 283.662 225.249 282.249 225.249 280.507C225.249 278.764 223.836 277.351 222.093 277.351C220.35 277.351 218.938 278.764 218.938 280.507C218.938 282.249 220.35 283.662 222.093 283.662Z" stroke="white" stroke-width="1.1276" stroke-miterlimit="10"/>
<path d="M351.126 279.75C352.869 279.75 354.282 278.337 354.282 276.594C354.282 274.851 352.869 273.438 351.126 273.438C349.384 273.438 347.971 274.851 347.971 276.594C347.971 278.337 349.384 279.75 351.126 279.75Z" stroke="white" stroke-width="1.1276" stroke-miterlimit="10"/>
<path d="M393.547 110.642C393.547 112.859 391.756 114.65 389.538 114.65C387.321 114.65 385.53 112.859 385.53 110.642C385.53 108.424 387.321 106.633 389.538 106.633C391.756 106.633 393.547 108.435 393.547 110.642Z" fill="#3CB27F"/>
<path d="M23.2843 266.924C23.2843 269.142 21.4932 270.933 19.2757 270.933C17.0582 270.933 15.2671 269.142 15.2671 266.924C15.2671 264.707 17.0582 262.916 19.2757 262.916C21.4826 262.926 23.2843 264.717 23.2843 266.924Z" fill="#FF4D6B"/>
<path d="M41.7176 281.754C41.7176 285.624 38.5832 288.769 34.7026 288.769C30.8219 288.769 27.6875 285.635 27.6875 281.754C27.6875 277.873 30.8219 274.739 34.7026 274.739C38.5832 274.739 41.7176 277.884 41.7176 281.754Z" fill="#FF4D6B"/>
<path d="M280.539 305.401H252.49V311.808H280.539V305.401Z" stroke="#3CB27F" stroke-width="1.1276" stroke-miterlimit="10"/>
<path d="M314.005 317.416H252.49V323.823H314.005V317.416Z" stroke="#3CB27F" stroke-width="1.1276" stroke-miterlimit="10"/>
<path d="M80.6519 311.541L73.8501 318.333" stroke="#3CB27F" stroke-width="1.1276" stroke-miterlimit="10" stroke-linecap="round" stroke-linejoin="round"/>
<path d="M87.1872 311.541L80.396 318.333" stroke="#3CB27F" stroke-width="1.1276" stroke-miterlimit="10" stroke-linecap="round" stroke-linejoin="round"/>
<path d="M93.7228 311.541L86.9316 318.333" stroke="#3CB27F" stroke-width="1.1276" stroke-miterlimit="10" stroke-linecap="round" stroke-linejoin="round"/>
<path d="M100.269 311.541L93.4668 318.333" stroke="#3CB27F" stroke-width="1.1276" stroke-miterlimit="10" stroke-linecap="round" stroke-linejoin="round"/>
<path d="M106.803 311.541L100.001 318.333" stroke="#3CB27F" stroke-width="1.1276" stroke-miterlimit="10" stroke-linecap="round" stroke-linejoin="round"/>
</svg>
