<svg width="108" height="97" viewBox="0 0 108 97" fill="none" xmlns="http://www.w3.org/2000/svg">
<path d="M88.7948 31.4391C87.6443 31.0432 86.4856 30.6745 85.3187 30.3331C85.5122 29.5399 85.6907 28.7421 85.8542 27.9398C88.4866 15.0443 86.7654 4.65534 80.8909 1.23542C75.2661 -2.04625 66.0415 1.37367 56.7359 9.55065C55.8209 10.3575 54.9247 11.1885 54.0472 12.0436C53.4623 11.4755 52.8623 10.9195 52.2473 10.3756C42.494 1.63203 32.7181 -2.05079 26.8504 1.38047C21.2256 4.66894 19.5539 14.4346 21.9231 26.6571C22.1601 27.8658 22.4263 29.0692 22.7218 30.2674C21.3381 30.664 20.0017 31.0878 18.7237 31.5365C7.3032 35.5593 0 41.8665 0 48.4072C0 55.1655 7.83867 61.9418 19.7474 66.0507C20.7134 66.3816 21.6883 66.6891 22.6723 66.9731C22.3528 68.2559 22.0701 69.553 21.8241 70.8645C19.5742 82.8761 21.3291 92.4106 26.9426 95.6787C32.7406 99.0533 42.467 95.5858 51.9481 87.223C52.6981 86.5612 53.448 85.8624 54.198 85.1266C55.146 86.0498 56.1209 86.9457 57.1229 87.8145C66.3025 95.7875 75.3674 99.008 80.9719 95.7308C86.7654 92.3449 88.6486 82.101 86.2029 69.6384C86.0154 68.6865 85.7994 67.715 85.5549 66.7238C86.2389 66.5199 86.9086 66.3091 87.5641 66.0915C99.9386 61.9509 108 55.2561 108 48.414C107.996 41.8416 100.458 35.4935 88.7948 31.4391ZM59.771 13.0635C67.7424 6.05821 75.1941 3.29327 78.5915 5.26952C82.2071 7.37496 83.6133 15.8647 81.3409 26.9993C81.1909 27.7245 81.0289 28.4475 80.8549 29.1682C76.0977 28.0782 71.2737 27.309 66.415 26.8656C63.633 22.8289 60.5835 18.9863 57.2871 15.3638C58.0941 14.5752 58.9205 13.8084 59.7665 13.0635H59.771ZM31.8879 53.996C32.8644 55.8998 33.8851 57.7801 34.95 59.637C36.0345 61.5316 37.1647 63.3984 38.3407 65.2371C34.9974 64.871 31.6752 64.3316 28.3871 63.6212C29.341 60.5118 30.5155 57.2822 31.8879 53.996ZM31.8879 43.0428C30.538 39.8268 29.395 36.663 28.4568 33.6079C31.5392 32.9122 34.824 32.3433 38.2484 31.9127C37.101 33.7167 35.997 35.5472 34.9365 37.4041C33.8761 39.261 32.8576 41.1405 31.8812 43.0428H31.8879ZM34.3403 48.5205C35.7623 45.5335 37.2937 42.6038 38.9346 39.7316C40.5741 36.8609 42.3192 34.0559 44.1702 31.3167C47.383 31.0719 50.6769 30.9427 54.0045 30.9427C57.3321 30.9427 60.6462 31.0719 63.8568 31.3189C65.6883 34.0522 67.4229 36.8473 69.0609 39.7044C70.6988 42.5615 72.2505 45.4776 73.7159 48.4525C72.27 51.4502 70.7221 54.3919 69.0721 57.2777C67.4357 60.1484 65.7108 62.9617 63.8973 65.7176C60.6912 65.9442 57.3726 66.0689 53.9977 66.0689C50.6229 66.0689 47.3673 65.9624 44.2197 65.7561C42.3552 63.0078 40.5958 60.1907 38.9414 57.3049C37.2869 54.4191 35.751 51.491 34.3336 48.5205H34.3403ZM73.0657 59.6052C74.1532 57.7045 75.1971 55.7789 76.1976 53.8283C77.569 56.9606 78.7796 60.1619 79.8244 63.4195C76.4976 64.1741 73.1339 64.7528 69.7471 65.1533C70.89 63.3266 71.9963 61.4772 73.0657 59.6052ZM76.1526 43.045C75.1566 41.1337 74.1209 39.2451 73.0455 37.3791C71.9955 35.5389 70.9013 33.7213 69.7628 31.9263C73.2075 32.366 76.5126 32.9507 79.6107 33.6646C78.6146 36.8477 77.4604 39.9785 76.1526 43.045ZM54.0495 18.6931C56.2961 21.1659 58.4175 23.7513 60.4055 26.4395C56.1532 26.2355 51.8978 26.2355 47.6395 26.4395C49.7387 23.6428 51.8873 21.0478 54.0495 18.6931ZM29.1723 5.40777C32.7856 3.29553 40.7751 6.31431 49.1965 13.8545C49.7342 14.3372 50.2764 14.8426 50.8164 15.3661C47.5031 18.988 44.432 22.8273 41.6233 26.8588C36.7753 27.2988 31.9608 28.0558 27.2104 29.1251C26.9359 28.0131 26.6884 26.8935 26.4679 25.7664C24.4317 15.2891 25.7794 7.39082 29.1723 5.40777ZM23.9053 62.4858C23.0053 62.2274 22.1166 61.9471 21.2391 61.645C15.9743 59.8319 11.6253 57.4658 8.63964 54.889C5.96675 52.5796 4.61231 50.2747 4.61231 48.4072C4.61231 44.4388 10.4756 39.3758 20.2537 35.9423C21.4821 35.5117 22.7211 35.1181 23.9705 34.7615C25.4227 39.4626 27.1815 44.062 29.2353 48.5296C27.157 53.059 25.3765 57.7211 23.9053 62.4858ZM48.9085 83.7147C44.7169 87.4133 40.5186 90.0355 36.8175 91.3568C33.4921 92.5421 30.844 92.5761 29.2443 91.6446C25.8379 89.6616 24.4205 82.0036 26.3532 71.7325C26.5826 70.5238 26.8451 69.315 27.1406 68.1063C31.9386 69.1474 36.8014 69.8584 41.6953 70.2344C44.5314 74.2869 47.6279 78.1479 50.9649 81.7928C50.2944 82.4568 49.6082 83.0959 48.9085 83.7147ZM54.1777 78.4522C51.9908 76.0703 49.8084 73.4345 47.68 70.6016C49.7484 70.6832 51.8543 70.7239 53.9977 70.7239C56.1982 70.7239 58.3761 70.6764 60.5225 70.5789C58.5417 73.3102 56.424 75.938 54.1777 78.4522ZM82.1936 84.9317C81.5501 88.4309 80.2564 90.7653 78.6567 91.699C75.2526 93.6889 67.9742 91.103 60.1265 84.2835C59.2265 83.5039 58.3266 82.6676 57.4109 81.7905C60.6829 78.1314 63.7068 74.2548 66.4622 70.1868C71.3832 69.7668 76.2695 69.0058 81.0866 67.9091C81.3071 68.8066 81.5021 69.686 81.6716 70.5472C82.7538 76.0544 82.909 81.0358 82.1936 84.9317ZM86.1084 61.6699C85.5189 61.8671 84.9115 62.0574 84.295 62.2433C82.7845 57.5201 80.9571 52.9057 78.8255 48.4321C80.8772 44.0182 82.633 39.4708 84.0812 34.8204C85.1859 35.1445 86.2592 35.4845 87.2919 35.8448C97.2859 39.3169 103.383 44.457 103.383 48.4072C103.383 52.6226 96.7977 58.0936 86.1084 61.6699Z" fill="#53C1DE"/>
<path d="M53.968 57.7088C55.9112 57.7151 57.8126 57.1444 59.4314 56.0689C61.0502 54.9935 62.3136 53.4616 63.0616 51.6673C63.8096 49.8729 64.0086 47.8969 63.6334 45.9894C63.2582 44.0818 62.3256 42.3286 60.9538 40.9517C59.582 39.5747 57.8326 38.636 55.9272 38.2544C54.0218 37.8728 52.0461 38.0654 50.2502 38.8079C48.4543 39.5505 46.919 40.8094 45.8387 42.4255C44.7585 44.0415 44.1819 45.9419 44.1818 47.886C44.1791 49.174 44.4302 50.45 44.9206 51.6408C45.4111 52.8317 46.1313 53.9142 47.0402 54.8265C47.949 55.7387 49.0287 56.4629 50.2174 56.9574C51.4061 57.452 52.6806 57.7073 53.968 57.7088Z" fill="#53C1DE"/>
</svg>
