<svg width="54" height="54" viewBox="0 0 54 54" fill="none" xmlns="http://www.w3.org/2000/svg">
<g filter="url(#filter0_d_418_3586)">
<rect x="8" y="8" width="38" height="38" rx="12" fill="white"/>
</g>
<path d="M34.2657 23.8341C34.042 23.7606 33.8167 23.6922 33.5897 23.6288C33.6274 23.4816 33.6621 23.3336 33.6939 23.1847C34.2057 20.7917 33.871 18.8639 32.7288 18.2293C31.6351 17.6203 29.8414 18.2549 28.032 19.7723C27.8541 19.922 27.6798 20.0762 27.5092 20.2349C27.3954 20.1295 27.2788 20.0263 27.1592 19.9254C25.2627 18.3029 23.3619 17.6194 22.2209 18.2562C21.1272 18.8664 20.8022 20.6786 21.2628 22.9467C21.3089 23.171 21.3607 23.3943 21.4181 23.6166C21.1491 23.6902 20.8892 23.7689 20.6407 23.8521C18.4201 24.5986 17 25.769 17 26.9828C17 28.2369 18.5242 29.4944 20.8398 30.2568C21.0276 30.3182 21.2172 30.3753 21.4085 30.428C21.3464 30.666 21.2914 30.9067 21.2436 31.1501C20.8061 33.3791 21.1473 35.1484 22.2388 35.7548C23.3662 36.381 25.2575 35.7376 27.101 34.1857C27.2468 34.0629 27.3927 33.9332 27.5385 33.7967C27.7228 33.968 27.9124 34.1343 28.1072 34.2955C29.8922 35.775 31.6548 36.3726 32.7445 35.7645C33.871 35.1362 34.2372 33.2352 33.7617 30.9226C33.7252 30.7459 33.6832 30.5657 33.6357 30.3817C33.7687 30.3439 33.8989 30.3048 34.0264 30.2644C36.4325 29.496 38 28.2537 38 26.984C37.9991 25.7644 36.5336 24.5864 34.2657 23.8341ZM28.6221 20.4242C30.1721 19.1242 31.6211 18.6111 32.2817 18.9778C32.9847 19.3685 33.2581 20.944 32.8163 23.0102C32.7871 23.1448 32.7556 23.2789 32.7218 23.4127C31.7968 23.2104 30.8588 23.0676 29.914 22.9854C29.3731 22.2363 28.7801 21.5232 28.1392 20.851C28.2961 20.7047 28.4568 20.5624 28.6213 20.4242H28.6221ZM23.2004 28.0199C23.3903 28.3732 23.5888 28.7221 23.7958 29.0667C24.0067 29.4182 24.2265 29.7646 24.4551 30.1059C23.8051 30.0379 23.1591 29.9378 22.5197 29.806C22.7052 29.229 22.9336 28.6297 23.2004 28.0199ZM23.2004 25.9873C22.9379 25.3905 22.7157 24.8034 22.5333 24.2365C23.1326 24.1074 23.7713 24.0019 24.4372 23.9219C24.2141 24.2567 23.9994 24.5964 23.7932 24.941C23.587 25.2855 23.389 25.6343 23.1991 25.9873H23.2004ZM23.6773 27.0038C23.9538 26.4495 24.2516 25.9059 24.5706 25.3729C24.8894 24.8402 25.2287 24.3197 25.5886 23.8113C26.2134 23.7659 26.8538 23.7419 27.5009 23.7419C28.1479 23.7419 28.7923 23.7659 29.4166 23.8118C29.7727 24.319 30.11 24.8376 30.4285 25.3678C30.747 25.898 31.0487 26.4391 31.3337 26.9912C31.0525 27.5475 30.7515 28.0933 30.4307 28.6289C30.1125 29.1616 29.7771 29.6836 29.4245 30.195C28.8011 30.2371 28.1558 30.2602 27.4996 30.2602C26.8433 30.2602 26.2103 30.2404 25.5983 30.2022C25.2357 29.6922 24.8936 29.1694 24.5719 28.6339C24.2502 28.0984 23.9516 27.555 23.676 27.0038H23.6773ZM31.2072 29.0608C31.4187 28.7081 31.6217 28.3507 31.8162 27.9888C32.0829 28.57 32.3182 29.1641 32.5214 29.7686C31.8745 29.9086 31.2205 30.016 30.5619 30.0903C30.7842 29.7513 30.9993 29.4081 31.2072 29.0608ZM31.8074 25.9877C31.6138 25.6331 31.4124 25.2826 31.2033 24.9363C30.9991 24.5948 30.7864 24.2576 30.565 23.9245C31.2348 24.0061 31.8774 24.1146 32.4799 24.247C32.2862 24.8377 32.0617 25.4187 31.8074 25.9877ZM27.5096 21.4688C27.9465 21.9277 28.359 22.4075 28.7455 22.9063C27.9187 22.8684 27.0912 22.8684 26.2632 22.9063C26.6714 22.3873 27.0892 21.9058 27.5096 21.4688ZM22.6724 19.0035C23.375 18.6115 24.9285 19.1717 26.566 20.5709C26.6705 20.6605 26.776 20.7543 26.881 20.8514C26.2367 21.5235 25.6395 22.236 25.0934 22.9841C24.1507 23.0657 23.2146 23.2062 22.2909 23.4047C22.2375 23.1983 22.1894 22.9905 22.1465 22.7814C21.7506 20.8371 22.0127 19.3715 22.6724 19.0035ZM21.6482 29.5953C21.4733 29.5474 21.3004 29.4953 21.1298 29.4393C20.1061 29.1028 19.2605 28.6638 18.6799 28.1856C18.1602 27.757 17.8968 27.3293 17.8968 26.9828C17.8968 26.2464 19.0369 25.3069 20.9382 24.6697C21.1771 24.5898 21.418 24.5168 21.6609 24.4506C21.9433 25.323 22.2853 26.1764 22.6846 27.0055C22.2805 27.846 21.9343 28.7111 21.6482 29.5953ZM26.51 33.5347C25.695 34.221 24.8786 34.7076 24.159 34.9528C23.5124 35.1728 22.9974 35.1791 22.6864 35.0062C22.024 34.6382 21.7484 33.2172 22.1242 31.3112C22.1688 31.0869 22.2199 30.8626 22.2773 30.6383C23.2103 30.8315 24.1558 30.9634 25.1074 31.0332C25.6589 31.7852 26.261 32.5017 26.9098 33.178C26.7795 33.3013 26.646 33.4199 26.51 33.5347ZM27.5346 32.5581C27.1093 32.1161 26.685 31.627 26.2711 31.1013C26.6733 31.1165 27.0828 31.124 27.4996 31.124C27.9274 31.124 28.3509 31.1152 28.7683 31.0971C28.3831 31.604 27.9713 32.0916 27.5346 32.5581ZM32.9821 33.7605C32.857 34.4099 32.6054 34.843 32.2944 35.0163C31.6325 35.3856 30.2172 34.9057 28.6913 33.6402C28.5163 33.4956 28.3413 33.3404 28.1632 33.1776C28.7994 32.4986 29.3874 31.7792 29.9232 31.0244C30.8801 30.9464 31.8302 30.8052 32.7668 30.6017C32.8097 30.7682 32.8476 30.9314 32.8806 31.0912C33.091 32.1132 33.1212 33.0376 32.9821 33.7605ZM33.7433 29.4439C33.6287 29.4805 33.5106 29.5158 33.3907 29.5503C33.097 28.6738 32.7417 27.8176 32.3272 26.9874C32.7261 26.1683 33.0675 25.3245 33.3491 24.4615C33.5639 24.5217 33.7726 24.5847 33.9734 24.6516C35.9167 25.2959 37.1023 26.2497 37.1023 26.9828C37.1023 27.765 35.8218 28.7803 33.7433 29.4439Z" fill="#53C1DE"/>
<path d="M27.4938 28.7089C27.8716 28.71 28.2413 28.6041 28.5561 28.4045C28.8709 28.205 29.1165 27.9207 29.262 27.5877C29.4074 27.2548 29.4461 26.8881 29.3732 26.5341C29.3002 26.1801 29.1189 25.8548 28.8521 25.5993C28.5854 25.3438 28.2452 25.1696 27.8747 25.0988C27.5042 25.0279 27.1201 25.0637 26.7709 25.2015C26.4217 25.3393 26.1231 25.5729 25.9131 25.8728C25.703 26.1727 25.5909 26.5253 25.5909 26.8861C25.5904 27.1251 25.6392 27.3618 25.7346 27.5828C25.8299 27.8038 25.97 28.0047 26.1467 28.174C26.3234 28.3433 26.5334 28.4776 26.7645 28.5694C26.9956 28.6612 27.2435 28.7086 27.4938 28.7089Z" fill="#53C1DE"/>
<defs>
<filter id="filter0_d_418_3586" x="0" y="0" width="54" height="54" filterUnits="userSpaceOnUse" color-interpolation-filters="sRGB">
<feFlood flood-opacity="0" result="BackgroundImageFix"/>
<feColorMatrix in="SourceAlpha" type="matrix" values="0 0 0 0 0 0 0 0 0 0 0 0 0 0 0 0 0 0 127 0" result="hardAlpha"/>
<feOffset/>
<feGaussianBlur stdDeviation="4"/>
<feComposite in2="hardAlpha" operator="out"/>
<feColorMatrix type="matrix" values="0 0 0 0 0 0 0 0 0 0 0 0 0 0 0 0 0 0 0.12 0"/>
<feBlend mode="normal" in2="BackgroundImageFix" result="effect1_dropShadow_418_3586"/>
<feBlend mode="normal" in="SourceGraphic" in2="effect1_dropShadow_418_3586" result="shape"/>
</filter>
</defs>
</svg>
