<svg width="30" height="30" viewBox="0 0 30 30" fill="none" xmlns="http://www.w3.org/2000/svg">
<path d="M1.75081 12.2559C5.10451 19.5601 11.072 25.3675 18.4911 28.5158L19.6804 29.0457C22.4015 30.2581 25.6 29.337 27.2595 26.8634L28.8137 24.5469C29.3191 23.7937 29.1653 22.7793 28.4593 22.2098L23.1885 17.9577C22.4145 17.3331 21.2761 17.4787 20.6837 18.2777L19.0532 20.478C14.8693 18.4141 11.4724 15.0173 9.40864 10.8334L11.6087 9.20287C12.408 8.61063 12.5534 7.47222 11.9288 6.69806L7.67663 1.42716C7.10726 0.721421 6.09314 0.567473 5.33999 1.07247L3.00752 2.63645C0.518426 4.30542 -0.397489 7.53041 0.842788 10.2586L1.74945 12.2529L1.75081 12.2559Z" fill="#3CB27F"/>
</svg>
