<svg width="54" height="54" viewBox="0 0 54 54" fill="none" xmlns="http://www.w3.org/2000/svg">
<g filter="url(#filter0_d_418_2990)">
<rect x="8" y="8" width="38" height="38" rx="19" fill="white"/>
</g>
<path d="M29.5532 25.5233C29.5532 25.5233 30.0624 25.2106 30.3107 24.8872C30.5584 24.5637 30.6721 24.4929 30.9102 24.5296C31.1484 24.5662 31.7183 24.4595 31.7568 24.5429C31.7953 24.6262 31.6456 24.8145 31.4618 24.8322C31.2779 24.8499 31.1175 24.975 31.1175 24.975C31.2634 25.1177 31.8958 24.9718 32.0771 24.829C32.2628 24.6957 32.3165 24.944 32.1005 25.1544C31.885 25.3648 32.0272 25.1696 32.0272 25.1696C32.2426 25.2858 32.3146 25.2757 32.2098 25.3155C32.3165 25.4317 32.4549 25.2523 32.3481 25.2997C32.5042 25.3799 31.7953 26.018 31.1048 26.2669C30.9715 26.3149 30.2589 26.5973 29.811 26.6491C29.3441 26.3964 29.3555 25.6156 29.3555 25.6156C29.3555 25.6156 29.4882 25.565 29.5532 25.5233Z" fill="#FFAA83"/>
<path d="M31.6559 25.613C31.6495 25.613 31.6439 25.6092 31.6413 25.6023C31.6388 25.5941 31.6432 25.5859 31.6514 25.5833C31.6546 25.5821 31.9964 25.4734 32.1531 25.3186C32.1587 25.3129 32.1682 25.3129 32.1739 25.3186C32.1796 25.3243 32.1796 25.3338 32.1739 25.3395C32.0122 25.4993 31.6748 25.6067 31.6603 25.6111C31.659 25.6124 31.6578 25.613 31.6559 25.613Z" fill="#994D14"/>
<path d="M31.4837 25.3913C31.4768 25.3913 31.4711 25.3869 31.4692 25.38C31.4673 25.3717 31.4717 25.3642 31.4799 25.3616C31.4825 25.361 31.7427 25.2953 31.8299 25.246C31.8369 25.2422 31.8463 25.2448 31.8501 25.2517C31.8539 25.2587 31.8514 25.2681 31.8444 25.2719C31.7535 25.3231 31.4982 25.3875 31.4869 25.3907C31.4862 25.3913 31.485 25.3913 31.4837 25.3913Z" fill="#994D14"/>
<path d="M29.4224 25.5492C27.7875 25.7956 25.8385 26.1683 24.3014 25.7728C24.3254 25.5429 24.3513 25.2681 24.3772 24.9629L21.2734 25.7311C21.4213 27.4722 22.0385 29.2108 23.6848 29.3827C26.4684 29.6726 29.8527 26.6769 29.8527 26.6769C29.8527 26.6769 29.8514 26.2207 29.4224 25.5492Z" fill="#348B65"/>
<path d="M29.3151 27.1217C29.3082 27.1185 29.3044 27.1109 29.3069 27.1033C29.5375 26.3541 28.9285 25.7053 28.9222 25.699C28.9165 25.6933 28.9165 25.6838 28.9228 25.6781C28.9285 25.6724 28.9386 25.6724 28.9436 25.6787C28.95 25.6851 29.5716 26.3465 29.3353 27.1128C29.3328 27.1204 29.3246 27.1248 29.3164 27.1229C29.3157 27.1217 29.3151 27.1217 29.3151 27.1217Z" fill="#133E2B"/>
<path d="M30.5022 24.8632C30.4984 24.8632 30.4946 24.8619 30.492 24.8594C29.684 24.1026 28.5778 23.8865 28.5665 23.884L28.5469 23.8802L28.7939 23.3925C28.7977 23.3849 28.8065 23.3824 28.8141 23.3861C28.8217 23.3899 28.8242 23.3988 28.8204 23.4064L28.5911 23.8593C28.7434 23.8922 29.7567 24.1303 30.5116 24.8379C30.5179 24.8436 30.5179 24.8531 30.5123 24.8588C30.5097 24.8613 30.5059 24.8632 30.5022 24.8632Z" fill="#994D14"/>
<path d="M30.849 19.3884L28.6523 23.4101C28.6523 23.4101 30.1559 23.9199 30.8098 25.1563C32.518 25.3256 33.3684 26.0919 33.3684 26.0919L36.7546 21.6791C36.7546 21.6791 35.1531 20.7277 33.5396 20.8484C32.7095 19.6676 30.849 19.3884 30.849 19.3884Z" fill="#EAF8F9"/>
<path d="M33.3701 26.1159L33.3581 26.102C33.3524 26.0957 32.7655 25.445 30.9777 25.1904C30.9694 25.1892 30.9638 25.1816 30.965 25.1734C30.9663 25.1652 30.9739 25.1595 30.9821 25.1607C32.6411 25.397 33.2741 25.9744 33.3682 26.0692L36.7323 21.6842L36.3084 21.4662C36.3008 21.4624 36.2983 21.4536 36.3021 21.446C36.3059 21.4384 36.3147 21.4359 36.3223 21.4397L36.7784 21.6741L36.7677 21.6886L33.3701 26.1159Z" fill="#919191"/>
<path d="M30.849 19.3884L28.6523 23.4101C28.6523 23.4101 30.1559 23.9199 30.8098 25.1563C32.0221 24.8625 33.3779 25.4633 33.3779 25.4633L36.5575 21.1307C36.5575 21.1307 35.1531 20.7271 33.5396 20.8477C32.7095 19.6676 30.849 19.3884 30.849 19.3884Z" fill="#EAF8F9"/>
<path d="M30.849 19.3884L28.6523 23.4101C28.6523 23.4101 30.1559 23.9199 30.8098 25.1563L33.5396 20.8484C32.7095 19.6676 30.849 19.3884 30.849 19.3884Z" fill="white"/>
<path d="M31.5424 24.0185C31.5398 24.0185 31.5367 24.0179 31.5341 24.016C31.5272 24.0116 31.5253 24.0021 31.5297 23.9952L33.5286 20.8402C33.533 20.8332 33.5425 20.8313 33.5494 20.8358C33.5564 20.8402 33.5583 20.8497 33.5539 20.8566L31.555 24.0116C31.5525 24.016 31.5474 24.0185 31.5424 24.0185Z" fill="#919191"/>
<path d="M33.3852 25.4823L33.3745 25.4779C33.3593 25.4716 31.8735 24.8682 30.9208 25.1709C30.9126 25.1734 30.9043 25.169 30.9018 25.1614C30.8993 25.1538 30.9037 25.145 30.9113 25.1424C31.8311 24.8499 33.2362 25.3907 33.3751 25.4457C33.5198 25.246 35.8522 22.0323 36.5345 21.1409C34.9413 20.7492 33.6 20.8528 33.5438 20.8572L33.5356 20.8579L33.5306 20.8509C32.7497 19.7504 31.0111 19.4307 30.8601 19.4048L28.6686 23.4177C28.6648 23.4253 28.6553 23.4278 28.6484 23.4234C28.6414 23.4196 28.6382 23.4102 28.6427 23.4032L30.8443 19.372L30.8544 19.3739C30.8734 19.377 32.7282 19.6771 33.5501 20.8269C33.6796 20.8174 35.0044 20.7303 36.5642 21.1175L36.5863 21.1232L36.5724 21.1415C35.8908 22.0298 33.4175 25.4393 33.3928 25.4735L33.3852 25.4823Z" fill="#919191"/>
<path d="M30.2578 24.9472C30.2578 24.9472 30.6331 24.5883 30.8043 24.4999C30.9749 24.4114 31.3457 24.1966 31.4329 24.1752C31.5201 24.1537 31.5561 24.4241 31.3198 24.5896C31.0835 24.7551 30.7613 25.0855 30.9736 25.2984C30.7626 25.5461 30.2578 24.9472 30.2578 24.9472Z" fill="#FFAA83"/>
<path d="M30.5698 25.8468C30.5653 25.8468 30.5609 25.8449 30.5578 25.8411C30.5527 25.8348 30.554 25.8253 30.5609 25.8203C30.9564 25.5208 30.8939 25.191 30.8926 25.1872C30.8907 25.179 30.8964 25.1715 30.904 25.1696C30.9122 25.1677 30.9198 25.1727 30.9217 25.1809C30.9223 25.1841 30.9899 25.5322 30.5786 25.8436C30.5761 25.8462 30.5729 25.8468 30.5698 25.8468Z" fill="#994D14"/>
<path d="M20.0117 40H22.2039C22.3271 38.5343 22.5103 34.3306 20.6384 33.7229C20.6384 33.7229 20.6681 37.8527 20.0117 40Z" fill="#2B273F"/>
<path d="M21.6532 41H25.2263C25.4819 39.2719 26.2024 34.0414 25.9455 31.5864C25.2949 30.3069 19 31.5201 19 31.5201C19 31.5201 19.134 33.0033 20.5894 34.6893C21.7499 36.0336 21.7153 39.6073 21.6532 41Z" fill="#3D3654"/>
<path d="M25.9906 32.1189C25.9817 31.9521 25.9697 31.7942 25.9533 31.6476C25.3247 30.5123 19.2422 31.5889 19.2422 31.5889C19.2422 31.5889 19.263 31.7948 19.3742 32.1353C21.4887 32.7974 23.9127 32.9061 25.9906 32.1189Z" fill="#2B273F"/>
<path d="M23.7429 37.1123C23.6709 38.6171 23.6191 39.511 23.5881 40H23.6197C23.6507 39.5104 23.7025 38.6165 23.7745 37.1135C23.8996 34.5063 22.8679 31.496 22.8578 31.4656L22.8281 31.4757C22.8376 31.5067 23.8674 34.5113 23.7429 37.1123Z" fill="#6B678C"/>
<path d="M23.6126 34.5865L23.5898 34.565C25.0315 33.0305 24.6101 31.6899 24.6057 31.6766L24.6354 31.6665C24.6392 31.6798 25.0675 33.0368 23.6126 34.5865Z" fill="#6B678C"/>
<path d="M21.3227 18.4004C21.3227 18.4004 20.1919 18.5602 19.1482 19.8982C18.1045 21.2369 17.7236 24.0249 18.2081 26.1678C18.6927 28.3107 19.2442 31.5889 19.2442 31.5889C19.2442 31.5889 20.3757 31.839 22.7315 31.8397C24.7727 31.8403 25.9547 31.6476 25.9547 31.6476C25.9547 31.6476 26.2851 24.9586 25.8852 22.6988C25.3931 19.9153 23.1921 18.8451 23.1921 18.8451L21.3227 18.4004Z" fill="#3CB27F"/>
<path d="M22.8962 19.4067C22.8962 19.4067 22.5569 19.8395 22.6397 20.8509C20.7627 20.1705 20.2447 18.4863 21.3598 18.3075C21.2637 18.6151 22.2625 19.3164 22.8962 19.4067Z" fill="#348B65"/>
<path d="M22.9023 19.4067C22.9023 19.4067 23.6181 19.6209 23.6743 20.3834C24.1456 19.4573 23.481 18.9449 23.1803 18.7099C23.2037 18.8855 23.2593 19.2715 22.9023 19.4067Z" fill="#348B65"/>
<path d="M21.501 28.6581C19.6462 27.761 19.1079 25.4273 18.5697 23.5131C18.5096 25.9662 18.2108 29.4358 20.7233 30.5723C22.4695 31.3361 24.3155 30.4081 26.0338 29.6942C26.0515 29.113 26.0686 28.4446 26.0781 27.749C24.601 28.5918 23.0305 29.3979 21.501 28.6581Z" fill="#1C6D4A"/>
<path d="M25.8849 22.6994C25.8464 22.4796 25.7958 22.2717 25.7371 22.0734C25.2411 22.4347 23.8488 22.815 19.9609 22.3545V23.6212C21.8524 23.8789 24.4401 23.9756 25.9222 22.9433C25.9108 22.8567 25.8982 22.7752 25.8849 22.6994Z" fill="#348B65"/>
<path d="M25.3777 23.6376C25.3758 23.6376 25.3745 23.6376 25.3726 23.6369C22.8462 22.7765 21.0799 20.6393 21.0622 20.6178C21.0565 20.6108 21.0578 20.6014 21.0647 20.5957C21.0717 20.59 21.0811 20.5913 21.0868 20.5982C21.1045 20.6197 22.8652 22.7506 25.3827 23.6079C25.391 23.6104 25.3954 23.6199 25.3929 23.6281C25.3903 23.6332 25.384 23.6376 25.3777 23.6376Z" fill="#133E2B"/>
<path d="M26.0485 24.5745C26.0473 24.5656 26.0473 24.5543 26.0473 24.5416C26.0334 24.1923 26.0138 23.8631 25.9891 23.5643C25.5033 23.9187 23.8645 24.8177 19.9609 24.2087V25.2208C21.9257 25.4874 24.5879 25.5935 26.0485 24.5764C26.0485 24.5757 26.0485 24.5751 26.0485 24.5745Z" fill="#348B65"/>
<path d="M25.9542 31.6628H25.9536C25.9454 31.6621 25.939 31.6552 25.9397 31.647C25.9441 31.5743 26.3427 24.3249 25.7501 22.1492C25.1923 20.1017 23.4657 19.0232 23.4487 19.0125C23.4417 19.0081 23.4392 18.9992 23.4436 18.9917C23.448 18.9847 23.4569 18.9822 23.4645 18.9866C23.4821 18.9973 25.2182 20.0821 25.7792 22.141C26.3731 24.3211 25.9738 31.5756 25.97 31.6482C25.9687 31.6564 25.9618 31.6628 25.9542 31.6628Z" fill="#133E2B"/>
<path d="M22.5979 19.7573C22.3636 19.7276 22.0862 19.6518 21.7716 19.5103C20.8922 19.1142 20.956 18.8937 20.9592 18.8843C20.9611 18.8792 20.9668 18.876 20.9718 18.8779C20.9769 18.8798 20.98 18.8855 20.9781 18.8906C20.9775 18.8931 20.9244 19.1066 21.7805 19.492C22.6649 19.89 23.2543 19.7674 23.3902 19.5533C23.526 19.3397 23.296 19.01 23.2935 19.0068C23.2903 19.0024 23.2916 18.9961 23.296 18.9929C23.3005 18.9898 23.3068 18.991 23.3099 18.9954C23.32 19.0093 23.55 19.3391 23.4066 19.564C23.3162 19.7074 23.0313 19.8117 22.5979 19.7573Z" fill="#133E2B"/>
<path d="M21.802 16.6725C21.802 16.6725 21.4937 18.3258 21.1602 18.6727C22.1672 19.3764 22.7427 19.4725 23.0921 19.3771C23.2184 19.343 23.2911 19.2078 23.2519 19.0833C23.1186 18.6613 23.1963 18.3473 23.1963 18.3473L22.2354 16.5721L21.802 16.6725Z" fill="#FFAA83"/>
<path d="M22.142 19.0428C22.1388 19.0428 22.1357 19.0409 22.1338 19.0377C21.8672 18.5519 21.8015 17.6795 21.8008 17.6706C21.8002 17.6656 21.8046 17.6612 21.8097 17.6605C21.8154 17.6599 21.8192 17.6643 21.8198 17.6694C21.8204 17.6782 21.8861 18.5469 22.1502 19.0289C22.1527 19.0333 22.1508 19.039 22.1464 19.0415C22.1445 19.0428 22.1433 19.0428 22.142 19.0428Z" fill="#994D14"/>
<path d="M21.3532 18.3453C21.352 18.3453 21.3507 18.3453 21.3501 18.3447C21.345 18.3428 21.3425 18.3371 21.3444 18.3327C21.5712 17.7452 21.7171 17.0104 21.719 17.0035C21.7203 16.9984 21.7247 16.9953 21.7304 16.9959C21.7354 16.9972 21.7386 17.0016 21.738 17.0073C21.7367 17.0149 21.5895 17.7508 21.3627 18.3396C21.3608 18.3428 21.357 18.3453 21.3532 18.3453Z" fill="#994D14"/>
<path d="M22.8938 19.4067C22.8938 19.4067 22.504 19.5962 22.5868 20.607C21.154 20.0631 20.2367 18.4856 21.3517 18.3068C21.2557 18.6151 22.2602 19.3164 22.8938 19.4067Z" fill="white"/>
<path d="M22.8984 19.4067C22.8984 19.4067 23.5321 19.3473 23.7039 20.0056C23.8758 19.5646 23.5422 18.8198 23.1764 18.7099C23.1998 18.8855 23.2554 19.2715 22.8984 19.4067Z" fill="white"/>
<path d="M24.592 14.6111C24.592 14.6111 24.7443 15.3749 24.592 16.1147C24.5781 17.1823 24.2698 18.166 23.7442 18.4048C23.2186 18.6436 22.0517 18.389 21.7908 17.061C21.5305 15.7331 22.0972 14.2762 22.1326 14.2522C22.168 14.2276 24.3532 14.0855 24.592 14.6111Z" fill="#FFAA83"/>
<path d="M24.486 17.1545C24.4848 17.1545 24.4841 17.1545 24.4829 17.1539C24.4778 17.152 24.4753 17.1469 24.4772 17.1419C24.5644 16.9037 24.5972 16.1222 24.5972 16.1146C24.5979 16.1102 24.6484 15.7962 24.6629 15.5397C24.6768 15.2832 24.6174 14.7349 24.6168 14.7292C24.6162 14.7241 24.62 14.7191 24.625 14.7185C24.6301 14.7178 24.6351 14.7216 24.6351 14.7267C24.6358 14.7324 24.6951 15.282 24.6812 15.5404C24.6667 15.7981 24.6162 16.1134 24.6155 16.1165C24.6143 16.1475 24.5827 16.9075 24.4942 17.1482C24.493 17.152 24.4898 17.1545 24.486 17.1545Z" fill="#994D14"/>
<path d="M21.8339 16.313C21.8339 16.313 21.6848 15.8032 21.2773 15.8657C20.8698 15.9282 20.909 16.4488 21.0771 16.8784C21.2451 17.308 21.8762 17.1374 21.8807 17.0085C21.8857 16.879 21.8339 16.313 21.8339 16.313Z" fill="#FFAA83"/>
<path d="M22.2823 14.6237C22.2823 14.6237 22.5779 15.2466 22.2968 15.74C22.0157 16.2334 22.0245 16.4577 22.0776 16.8822C22.1307 17.3061 22.607 17.2467 22.8528 17.1892C23.0985 17.1317 23.6418 16.8683 24.0796 17.2259C24.3052 17.2695 24.5079 17.0717 24.5079 17.0717C24.5079 17.0717 24.5105 18.0718 23.8812 18.5393C23.252 19.0068 22.2564 18.4123 22.065 17.989C21.8735 17.5658 21.8912 16.9094 21.8672 16.6289C21.8438 16.3477 21.6549 15.8619 21.1843 15.8941C20.7016 15.4576 20.4654 13.7822 21.4724 13.7222C21.2077 12.8238 23.2009 13.0146 23.5363 13.0215C23.6785 13.0247 23.7587 13.1378 23.6608 13.2357C23.5281 13.369 23.1737 13.4979 23.1737 13.4979C23.9312 13.177 24.206 13.3166 24.1087 13.4941C24.0114 13.6716 23.9691 13.719 23.9691 13.719C23.9691 13.719 24.3525 13.5503 24.621 13.791C24.8902 14.0317 24.4505 14.0816 24.4505 14.0816C24.4505 14.0816 24.9085 14.0469 25.0197 14.3552C25.1309 14.6628 24.6324 14.8018 24.3108 14.697C23.9893 14.5921 23.8326 14.4683 23.8326 14.4683C23.8326 14.4683 23.8951 14.8044 23.609 14.7961C23.3228 14.7873 23.0101 14.5175 23.0101 14.5175C23.0101 14.5175 23.1718 14.7608 23.0018 14.7822C22.8313 14.8031 22.2823 14.6237 22.2823 14.6237Z" fill="#3D3654"/>
<path d="M22.9839 15.457C22.9839 15.457 23.3149 15.3591 23.5108 15.4292C23.706 15.4994 23.4741 15.5733 23.3674 15.5474C23.2606 15.5215 23.0142 15.5303 22.9731 15.5101C22.9314 15.4899 22.9839 15.457 22.9839 15.457Z" fill="#3D3654"/>
<path d="M24.6843 15.7843C24.6843 15.7843 24.491 15.589 24.316 15.5859C24.141 15.5834 24.2743 15.7242 24.364 15.7369C24.4537 15.7489 24.6275 15.8379 24.6673 15.8342C24.7064 15.8304 24.6843 15.7843 24.6843 15.7843Z" fill="#3D3654"/>
<path d="M23.9028 17.0509C23.7759 17.0686 23.5794 16.9258 23.5705 16.9195C23.5661 16.9164 23.5649 16.91 23.5687 16.905C23.5718 16.9006 23.5781 16.8993 23.5832 16.9031C23.5857 16.905 23.8075 17.0673 23.9224 17.0256C23.9534 17.0143 23.9723 16.9896 23.9825 16.9505C24.0361 16.73 24.0324 16.0723 24.0324 16.066C24.0324 16.0603 24.0368 16.0553 24.0425 16.0559C24.0482 16.0559 24.0526 16.0603 24.0526 16.066C24.0526 16.0932 24.0557 16.7325 24.002 16.9555C23.9907 17.0016 23.9667 17.032 23.9294 17.0452C23.9205 17.0478 23.9117 17.0497 23.9028 17.0509Z" fill="#994D14"/>
<path d="M23.4809 16.03C23.4809 16.1046 23.4461 16.1646 23.4026 16.1646C23.3596 16.1646 23.3242 16.1046 23.3242 16.03C23.3242 15.9555 23.359 15.8954 23.4026 15.8954C23.4455 15.8954 23.4809 15.9555 23.4809 16.03Z" fill="#994D14"/>
<path d="M24.4692 16.1646C24.4692 16.2391 24.4344 16.2991 24.3908 16.2991C24.3479 16.2991 24.3125 16.2391 24.3125 16.1646C24.3125 16.09 24.3472 16.03 24.3908 16.03C24.4344 16.03 24.4692 16.09 24.4692 16.1646Z" fill="#994D14"/>
<path d="M21.6074 16.8671C21.5923 16.869 21.5765 16.8678 21.5594 16.8614C21.4994 16.8406 21.4375 16.7673 21.4406 16.6909C21.4444 16.6069 21.5392 16.538 21.6024 16.5184C21.6106 16.5159 21.6182 16.514 21.6251 16.5134C21.5613 16.4281 21.476 16.406 21.4154 16.4142H21.4147C21.3686 16.4205 21.3332 16.4451 21.3231 16.478C21.3212 16.4837 21.3155 16.4862 21.3105 16.4849C21.3048 16.483 21.3023 16.4773 21.3035 16.4723C21.3162 16.4319 21.3572 16.4022 21.4116 16.3946H21.4122C21.4804 16.3851 21.5752 16.4104 21.6453 16.5077C21.6264 16.4356 21.5992 16.3605 21.5695 16.2903C21.5253 16.1874 21.4419 16.1185 21.3516 16.1109C21.2789 16.1046 21.2132 16.1394 21.1702 16.2057C21.0666 16.3655 21.1949 16.7604 21.1961 16.7642C21.198 16.7692 21.1949 16.7755 21.1898 16.7768C21.1848 16.7787 21.1785 16.7755 21.1772 16.7705C21.1715 16.7541 21.0445 16.3624 21.1532 16.1943C21.2006 16.121 21.2732 16.0831 21.3535 16.0901C21.4514 16.0983 21.5417 16.1722 21.5885 16.2815C21.67 16.4717 21.7388 16.73 21.6668 16.8305C21.651 16.8513 21.6308 16.864 21.6074 16.8671ZM21.6257 16.5342C21.6169 16.5355 21.6043 16.5386 21.5872 16.5462C21.5284 16.5727 21.464 16.6296 21.4615 16.6921C21.459 16.7591 21.5133 16.8242 21.5664 16.8425C21.5859 16.8494 21.6232 16.8551 21.6497 16.8185C21.6889 16.7648 21.6813 16.6523 21.6504 16.5272L21.639 16.5348C21.6384 16.5342 21.6333 16.5329 21.6257 16.5342Z" fill="#994D14"/>
<path d="M23.5754 17.7066C23.516 17.7148 23.4598 17.7123 23.4067 17.6977C23.2077 17.644 23.1256 17.4532 23.1218 17.445C23.1199 17.44 23.1218 17.4337 23.1275 17.4318C23.1325 17.4292 23.1389 17.4318 23.1408 17.4375C23.1414 17.4393 23.2229 17.6276 23.4124 17.6781C23.5653 17.7192 23.7447 17.6617 23.9469 17.5082C23.9513 17.505 23.9576 17.5057 23.9614 17.5101C23.9646 17.5145 23.9639 17.5208 23.9595 17.5246C23.8212 17.6289 23.6929 17.6902 23.5754 17.7066Z" fill="white"/>
<path d="M27.625 25.1898L35.8157 14.9781L35.8852 15.0394L27.8531 25.5796L27.625 25.1898Z" fill="#3D3654"/>
<path d="M27.021 25.1203C27.021 25.1203 27.3685 24.889 27.5182 24.51C27.6679 24.1309 27.7873 24.1297 28.1051 23.9692C28.3205 23.8605 28.8107 23.503 28.8701 23.5731C28.9302 23.6426 28.8727 23.8132 28.7255 23.9243C28.5233 24.0779 28.3849 24.3059 28.3849 24.3059C28.5644 24.4032 29.1216 23.9471 29.2561 23.7601C29.3983 23.5807 29.5177 23.8049 29.3686 24.0665C29.2195 24.328 29.0843 24.3956 29.0843 24.3956C29.3237 24.4481 29.1664 24.6648 29.0767 24.7324C29.2113 24.8145 29.0691 24.9863 28.9794 25.0615C29.0767 25.1512 28.9422 25.3572 28.8221 25.4336C28.7027 25.5101 27.9933 25.9599 27.5769 26.133C27.0583 26.018 26.8555 25.2643 26.8555 25.2643C26.8555 25.2643 26.9698 25.1784 27.021 25.1203Z" fill="#FFAA83"/>
<path d="M18.6718 21.609C18.6718 21.609 19.1172 20.7599 20.0345 20.9962C20.9518 21.2325 21.7598 25.1658 22.0492 26.8014C23.6355 26.7597 25.4076 25.8664 26.9118 25.1803C27.5094 25.7078 27.6352 26.1463 27.6352 26.1463C27.6352 26.1463 25.2035 29.9564 22.4472 30.4416C19.6908 30.9274 18.5341 26.2985 18.4501 24.5681C18.3661 22.8378 18.4785 22.1883 18.6718 21.609Z" fill="#348B65"/>
<path d="M21.7738 26.0427C21.7713 26.0427 21.7687 26.042 21.7662 26.0408C19.3782 24.6326 18.8336 22.6716 18.8286 22.652C18.8267 22.6438 18.8311 22.6356 18.8393 22.6337C18.8475 22.6318 18.8557 22.6362 18.8576 22.6444C18.8627 22.664 19.4047 24.6136 21.782 26.0155C21.789 26.0199 21.7915 26.0288 21.7871 26.0357C21.7839 26.0401 21.7795 26.0427 21.7738 26.0427Z" fill="#133E2B"/>
<path d="M21.4277 26.1071C21.4264 26.1071 21.4252 26.1071 21.4239 26.1064C20.2128 25.8152 19.1325 24.7956 19.1218 24.7848C19.1161 24.7791 19.1155 24.7696 19.1211 24.764C19.1268 24.7583 19.1363 24.7576 19.142 24.7633C19.1527 24.7734 20.2274 25.788 21.4308 26.0774C21.4391 26.0793 21.4441 26.0875 21.4416 26.0957C21.441 26.1027 21.4346 26.1071 21.4277 26.1071Z" fill="#133E2B"/>
<path d="M22.6281 28.4857C22.6256 28.4857 22.6224 28.485 22.6205 28.4831C22.6136 28.4787 22.6111 28.4699 22.6155 28.4623C22.6256 28.4459 23.6396 26.8323 25.5601 26.0136C25.5677 26.0104 25.5765 26.0136 25.5797 26.0218C25.5828 26.0294 25.5797 26.0382 25.5715 26.0414C23.6598 26.857 22.6502 28.4623 22.6401 28.4781C22.6382 28.4831 22.6332 28.4857 22.6281 28.4857Z" fill="#133E2B"/>
<path d="M22.0374 26.8159C22.0304 26.8159 22.0241 26.8109 22.0229 26.8039C22.0216 26.7976 21.9066 26.1759 21.6546 24.9661C21.441 23.9395 20.8731 21.2129 19.9577 20.9968C19.0795 20.789 18.6777 21.6077 18.6733 21.6159C18.6695 21.6235 18.6607 21.6267 18.6531 21.6229C18.6455 21.6191 18.6423 21.6102 18.6461 21.6027C18.6499 21.5945 19.0631 20.7542 19.964 20.9678C20.7916 21.1636 21.3172 23.2042 21.683 24.9604C21.9351 26.1709 22.0507 26.7925 22.0513 26.7989C22.0526 26.8071 22.0475 26.8146 22.0393 26.8165C22.0393 26.8159 22.0387 26.8159 22.0374 26.8159Z" fill="#133E2B"/>
<path d="M20.9664 26.8317C20.9582 26.8304 20.9525 26.8235 20.9532 26.8152C20.9538 26.807 20.9614 26.8013 20.9696 26.802C20.9753 26.8026 21.5262 26.8633 22.1952 26.7799C22.2034 26.7792 22.211 26.7849 22.2116 26.7931C22.2129 26.8013 22.2066 26.8089 22.1984 26.8096C21.5268 26.8936 20.9721 26.8323 20.9664 26.8317Z" fill="#133E2B"/>
<path d="M27.237 26.7212C27.2295 26.7199 27.2238 26.7136 27.2238 26.706C27.2402 25.922 26.4758 25.4659 26.4682 25.4615C26.4612 25.457 26.4587 25.4482 26.4631 25.4412C26.4669 25.4343 26.4764 25.4318 26.4834 25.4362C26.4909 25.4406 27.2705 25.9062 27.2541 26.7073C27.2541 26.7155 27.2471 26.7218 27.2389 26.7218C27.2377 26.7212 27.2377 26.7212 27.237 26.7212Z" fill="#133E2B"/>
<path d="M20.97 27.6978C20.9681 27.6978 20.9662 27.6972 20.9643 27.6959C20.9573 27.6915 20.9548 27.6827 20.9592 27.6757C21.416 26.9113 22.5607 26.7439 22.5721 26.742C22.5803 26.7407 22.5879 26.7464 22.5892 26.7546C22.5904 26.7628 22.5847 26.7704 22.5765 26.7717C22.5652 26.7736 21.4349 26.9391 20.9851 27.6909C20.9813 27.6959 20.9757 27.6985 20.97 27.6978Z" fill="#133E2B"/>
<path d="M28.4603 24.7444C28.454 24.7444 28.4483 24.7406 28.4464 24.7349C28.4433 24.7274 28.4471 24.7185 28.4553 24.716C28.4591 24.7147 28.8413 24.5675 29.0719 24.3843C29.0782 24.3793 29.0877 24.3805 29.0927 24.3868C29.0978 24.3932 29.0965 24.4026 29.0902 24.4077C28.8558 24.5941 28.4692 24.7425 28.4654 24.7438C28.4641 24.7438 28.4622 24.7444 28.4603 24.7444Z" fill="#994D14"/>
<path d="M28.5266 25.0508C28.5203 25.0508 28.5146 25.047 28.5128 25.0413C28.5096 25.0337 28.514 25.0249 28.5216 25.0223C28.5248 25.0211 28.8394 24.9017 29.0706 24.7178C29.0769 24.7128 29.0864 24.7141 29.0914 24.7204C29.0965 24.7267 29.0952 24.7362 29.0889 24.7412C28.8545 24.9276 28.5349 25.0489 28.5317 25.0501C28.5304 25.0508 28.5285 25.0508 28.5266 25.0508Z" fill="#994D14"/>
<path d="M28.542 25.3307C28.5356 25.3307 28.53 25.3269 28.5281 25.3206C28.5255 25.313 28.53 25.3041 28.5375 25.3016C28.5394 25.301 28.734 25.2346 28.9646 25.0514C28.9709 25.0464 28.9804 25.0476 28.9854 25.054C28.9905 25.0603 28.9892 25.0697 28.9829 25.0748C28.7479 25.2612 28.5552 25.3269 28.547 25.33C28.5451 25.3307 28.5432 25.3307 28.542 25.3307Z" fill="#994D14"/>
<defs>
<filter id="filter0_d_418_2990" x="0" y="0" width="54" height="54" filterUnits="userSpaceOnUse" color-interpolation-filters="sRGB">
<feFlood flood-opacity="0" result="BackgroundImageFix"/>
<feColorMatrix in="SourceAlpha" type="matrix" values="0 0 0 0 0 0 0 0 0 0 0 0 0 0 0 0 0 0 127 0" result="hardAlpha"/>
<feOffset/>
<feGaussianBlur stdDeviation="4"/>
<feComposite in2="hardAlpha" operator="out"/>
<feColorMatrix type="matrix" values="0 0 0 0 0 0 0 0 0 0 0 0 0 0 0 0 0 0 0.12 0"/>
<feBlend mode="normal" in2="BackgroundImageFix" result="effect1_dropShadow_418_2990"/>
<feBlend mode="normal" in="SourceGraphic" in2="effect1_dropShadow_418_2990" result="shape"/>
</filter>
</defs>
</svg>
