<svg width="60" height="60" viewBox="0 0 60 60" fill="none" xmlns="http://www.w3.org/2000/svg">
<path fill-rule="evenodd" clip-rule="evenodd" d="M33.75 52.5V45C33.75 43.6193 32.6307 42.5 31.25 42.5H28.75C27.3693 42.5 26.25 43.6193 26.25 45V52.5H12.5V10C12.5 7.23858 14.7386 5 17.5 5H42.5C45.2614 5 47.5 7.23858 47.5 10V52.5H33.75ZM22.5 10C21.1193 10 20 11.1193 20 12.5V15C20 16.3807 21.1193 17.5 22.5 17.5H25C26.3807 17.5 27.5 16.3807 27.5 15V12.5C27.5 11.1193 26.3807 10 25 10H22.5ZM35 10C33.6193 10 32.5 11.1193 32.5 12.5V15C32.5 16.3807 33.6193 17.5 35 17.5H37.5C38.8807 17.5 40 16.3807 40 15V12.5C40 11.1193 38.8807 10 37.5 10H35ZM22.5 20C21.1193 20 20 21.1193 20 22.5V25C20 26.3807 21.1193 27.5 22.5 27.5H25C26.3807 27.5 27.5 26.3807 27.5 25V22.5C27.5 21.1193 26.3807 20 25 20H22.5ZM22.5 30C21.1193 30 20 31.1193 20 32.5V35C20 36.3807 21.1193 37.5 22.5 37.5H25C26.3807 37.5 27.5 36.3807 27.5 35V32.5C27.5 31.1193 26.3807 30 25 30H22.5ZM35 30C33.6193 30 32.5 31.1193 32.5 32.5V35C32.5 36.3807 33.6193 37.5 35 37.5H37.5C38.8807 37.5 40 36.3807 40 35V32.5C40 31.1193 38.8807 30 37.5 30H35Z" fill="#3CB27F"/>
<path d="M37.5 20H35C33.6193 20 32.5 21.1193 32.5 22.5V25C32.5 26.3807 33.6193 27.5 35 27.5H37.5C38.8807 27.5 40 26.3807 40 25V22.5C40 21.1193 38.8807 20 37.5 20Z" fill="white"/>
<path opacity="0.3" fill-rule="evenodd" clip-rule="evenodd" d="M10 52.5H50C51.3807 52.5 52.5 53.6193 52.5 55V56C52.5 56.8284 51.8284 57.5 51 57.5H9C8.17157 57.5 7.5 56.8284 7.5 56V55C7.5 53.6193 8.61929 52.5 10 52.5Z" fill="#3CB27F"/>
</svg>
