<svg width="60" height="60" viewBox="0 0 60 60" fill="none" xmlns="http://www.w3.org/2000/svg">
<path fill-rule="evenodd" clip-rule="evenodd" d="M37.5 25V47.5L34.6185 48.4605C31.5595 49.4802 28.3561 50 25.1317 50H16.1485C12.5734 50 9.49531 47.4766 8.79417 43.9709L6.92118 34.6059C6.10884 30.5442 8.74297 26.593 12.8047 25.7807C13.4527 25.6511 14.115 25.6077 14.7744 25.6516L23.75 26.25L22.8395 16.2346C22.6683 14.351 24.0564 12.6853 25.94 12.5141C26.043 12.5047 26.1465 12.5 26.25 12.5C28.5765 12.5 30.7324 13.7207 31.9294 15.7156L37.5 25Z" fill="#3CB27F"/>
<path opacity="0.3" d="M45 22.5H52.5C53.8807 22.5 55 23.6193 55 25V47.5C55 48.8807 53.8807 50 52.5 50H45C43.6193 50 42.5 48.8807 42.5 47.5V25C42.5 23.6193 43.6193 22.5 45 22.5Z" fill="#3CB27F"/>
</svg>
