<svg width="60" height="60" viewBox="0 0 60 60" fill="none" xmlns="http://www.w3.org/2000/svg">
<path opacity="0.3" d="M17.5 12.2368V52.5H12.5V7.5H27.5V12.2368H17.5Z" fill="#3CB27F"/>
<path fill-rule="evenodd" clip-rule="evenodd" d="M25.4457 5.61867L45.4457 9.24271C46.6352 9.45823 47.5 10.4939 47.5 11.7026V48.2976C47.5 49.5064 46.6352 50.542 45.4457 50.7575L25.4457 54.3816C24.0872 54.6278 22.7862 53.726 22.5401 52.3674C22.5134 52.2203 22.5 52.0711 22.5 51.9216V8.07861C22.5 6.6979 23.6193 5.57861 25 5.57861C25.1495 5.57861 25.2987 5.59202 25.4457 5.61867ZM29.7917 32.2651C31.5176 32.2651 32.9167 30.744 32.9167 28.8676C32.9167 26.9912 31.5176 25.4701 29.7917 25.4701C28.0658 25.4701 26.6667 26.9912 26.6667 28.8676C26.6667 30.744 28.0658 32.2651 29.7917 32.2651Z" fill="#3CB27F"/>
</svg>
