<svg width="60" height="60" viewBox="0 0 60 60" fill="none" xmlns="http://www.w3.org/2000/svg">
<g clip-path="url(#clip0_40_1683)">
<path opacity="0.3" fill-rule="evenodd" clip-rule="evenodd" d="M10 10L29.0786 6.4228C29.6875 6.30861 30.3125 6.30861 30.9214 6.4228L50 10V33.2076C50 40.5435 46.2209 47.362 40 51.25L31.325 56.6719C30.5143 57.1786 29.4857 57.1786 28.675 56.6719L20 51.25C13.7791 47.362 10 40.5435 10 33.2076V10Z" fill="#3CB27F"/>
<path fill-rule="evenodd" clip-rule="evenodd" d="M27.9375 36.875C27.3385 36.875 26.7396 36.6354 26.2604 36.1562L21.4687 31.3646C20.5104 30.4062 20.5104 28.9687 21.4687 28.0104C22.4271 27.0521 23.9844 27.0521 24.8229 28.0104L27.9375 31.125L35.8437 23.2188C36.8021 22.2604 38.2396 22.2604 39.1979 23.2188C40.1562 24.1771 40.1562 25.6146 39.1979 26.5729L29.6146 36.1562C29.1354 36.6354 28.5365 36.875 27.9375 36.875Z" fill="#3CB27F"/>
</g>
<defs>
<clipPath id="clip0_40_1683">
<rect width="60" height="60" fill="white"/>
</clipPath>
</defs>
</svg>
