<svg width="60" height="60" viewBox="0 0 60 60" fill="none" xmlns="http://www.w3.org/2000/svg">
<path d="M21.0824 17.9357L23.5196 19.6422C23.7404 19.7969 23.9054 20.0188 23.9898 20.2749C24.2059 20.9305 23.8496 21.6372 23.1939 21.8533L14.727 24.6442C14.6117 24.6822 14.4915 24.7032 14.3702 24.7066C13.6801 24.7257 13.1052 24.1817 13.0861 23.4916L12.8403 14.6C12.8328 14.3317 12.9119 14.0682 13.0658 13.8484C13.4618 13.2829 14.2412 13.1455 14.8067 13.5415L16.8228 14.9531C20.4137 11.8046 25.06 10 30 10C41.0457 10 50 18.9543 50 30C50 41.0457 41.0457 50 30 50C18.9543 50 10 41.0457 10 30H15C15 38.2843 21.7157 45 30 45C38.2843 45 45 38.2843 45 30C45 21.7157 38.2843 15 30 15C26.7213 15 23.6192 16.0571 21.0824 17.9357Z" fill="#3CB27F"/>
</svg>
